<svg width="231" height="231" viewBox="0 0 231 231" fill="none" xmlns="http://www.w3.org/2000/svg">
<circle cx="115.5" cy="115.5" r="110" fill="url(#paint0_radial_81_484)" stroke="url(#paint1_linear_81_484)" stroke-width="11"/>
<g filter="url(#filter0_d_81_484)">
<circle cx="115.5" cy="115.5" r="104.5" fill="url(#paint2_radial_81_484)"/>
<circle cx="115.5" cy="115.5" r="103.5" stroke="url(#paint3_linear_81_484)" stroke-width="2"/>
</g>
<circle cx="115.5" cy="115.5" r="92" stroke="#242632" stroke-width="13" stroke-dasharray="1 25"/>
<g filter="url(#filter1_d_81_484)">
<path d="M113.894 36.1634C114.694 35.0862 116.306 35.0862 117.106 36.1634L124.822 46.5579C125.801 47.8776 124.859 49.75 123.216 49.75H107.784C106.141 49.75 105.199 47.8776 106.178 46.5579L113.894 36.1634Z" fill="url(#paint4_linear_81_484)"/>
</g>
<path d="M64.96 131.6H67.78C68.82 131.6 69.588 131.836 70.084 132.308C70.588 132.78 70.84 133.44 70.84 134.288C70.84 135.136 70.588 135.796 70.084 136.268C69.58 136.74 68.812 136.976 67.78 136.976H66.088V140H64.96V131.6ZM66.088 132.632V135.944H67.72C68.416 135.944 68.912 135.808 69.208 135.536C69.512 135.256 69.664 134.84 69.664 134.288C69.664 133.744 69.512 133.332 69.208 133.052C68.904 132.772 68.408 132.632 67.72 132.632H66.088ZM74.3781 140.096C73.9541 140.096 73.5701 140.032 73.2261 139.904C72.8901 139.768 72.6021 139.576 72.3621 139.328C72.1221 139.072 71.9381 138.764 71.8101 138.404C71.6821 138.044 71.6181 137.632 71.6181 137.168V136.832C71.6181 136.368 71.6821 135.956 71.8101 135.596C71.9381 135.228 72.1181 134.92 72.3501 134.672C72.5901 134.424 72.8741 134.236 73.2021 134.108C73.5381 133.972 73.9101 133.904 74.3181 133.904C74.7261 133.904 75.0941 133.972 75.4221 134.108C75.7581 134.236 76.0421 134.428 76.2741 134.684C76.5141 134.94 76.6981 135.252 76.8261 135.62C76.9541 135.988 77.0181 136.412 77.0181 136.892V137.324H72.7461C72.7621 137.892 72.9061 138.332 73.1781 138.644C73.4581 138.956 73.8381 139.112 74.3181 139.112C74.7021 139.112 75.0181 139.04 75.2661 138.896C75.5141 138.752 75.7021 138.52 75.8301 138.2H76.9581C76.8141 138.824 76.5181 139.296 76.0701 139.616C75.6301 139.936 75.0661 140.096 74.3781 140.096ZM74.3181 134.888C73.8621 134.888 73.5021 135.02 73.2381 135.284C72.9741 135.548 72.8141 135.932 72.7581 136.436H75.8901C75.7941 135.404 75.2701 134.888 74.3181 134.888ZM78.4586 134H79.5386V136.388H80.3786L82.0106 134H83.2586L81.2306 136.844L83.4986 140H82.2026L80.3786 137.372H79.5386V140H78.4586V134ZM86.8 140.096C85.944 140.096 85.268 139.844 84.772 139.34C84.284 138.836 84.04 138.112 84.04 137.168V136.832C84.04 135.896 84.288 135.176 84.784 134.672C85.28 134.16 85.952 133.904 86.8 133.904C87.656 133.904 88.328 134.156 88.816 134.66C89.312 135.164 89.56 135.888 89.56 136.832V137.168C89.56 138.104 89.312 138.828 88.816 139.34C88.32 139.844 87.648 140.096 86.8 140.096ZM86.8 139.112C87.304 139.112 87.7 138.956 87.988 138.644C88.284 138.324 88.432 137.832 88.432 137.168V136.832C88.432 136.176 88.284 135.688 87.988 135.368C87.7 135.048 87.304 134.888 86.8 134.888C86.296 134.888 85.896 135.048 85.6 135.368C85.312 135.68 85.168 136.168 85.168 136.832V137.168C85.168 137.824 85.312 138.312 85.6 138.632C85.896 138.952 86.296 139.112 86.8 139.112ZM90.9977 134H92.6057L94.2017 137.42H94.2257L95.8217 134H97.3577V140H96.2777V135.32H96.2537L94.7177 138.62H93.6377L92.1017 135.32H92.0777V140H90.9977V134ZM101.554 140.096C101.13 140.096 100.746 140.032 100.402 139.904C100.066 139.768 99.7779 139.576 99.5379 139.328C99.2979 139.072 99.1139 138.764 98.9859 138.404C98.8579 138.044 98.7939 137.632 98.7939 137.168V136.832C98.7939 136.368 98.8579 135.956 98.9859 135.596C99.1139 135.228 99.2939 134.92 99.5259 134.672C99.7659 134.424 100.05 134.236 100.378 134.108C100.714 133.972 101.086 133.904 101.494 133.904C101.902 133.904 102.27 133.972 102.598 134.108C102.934 134.236 103.218 134.428 103.45 134.684C103.69 134.94 103.874 135.252 104.002 135.62C104.13 135.988 104.194 136.412 104.194 136.892V137.324H99.9219C99.9379 137.892 100.082 138.332 100.354 138.644C100.634 138.956 101.014 139.112 101.494 139.112C101.878 139.112 102.194 139.04 102.442 138.896C102.69 138.752 102.878 138.52 103.006 138.2H104.134C103.99 138.824 103.694 139.296 103.246 139.616C102.806 139.936 102.242 140.096 101.554 140.096ZM101.494 134.888C101.038 134.888 100.678 135.02 100.414 135.284C100.15 135.548 99.9899 135.932 99.9339 136.436H103.066C102.97 135.404 102.446 134.888 101.494 134.888ZM105.634 134H106.714V136.448H109.714V134H110.794V140H109.714V137.432H106.714V140H105.634V134ZM111.875 139.016H112.475C112.603 138.84 112.707 138.656 112.787 138.464C112.875 138.264 112.943 138.044 112.991 137.804C113.047 137.556 113.083 137.272 113.099 136.952C113.123 136.624 113.135 136.24 113.135 135.8V134H117.455V139.016H118.175V141.56H117.143V140H112.907V141.56H111.875V139.016ZM116.375 139.016V134.984H114.167V135.8C114.167 136.192 114.159 136.544 114.143 136.856C114.127 137.16 114.099 137.44 114.059 137.696C114.019 137.944 113.967 138.176 113.903 138.392C113.839 138.6 113.763 138.8 113.675 138.992V139.016H116.375ZM121.71 140.096C120.854 140.096 120.178 139.844 119.682 139.34C119.194 138.836 118.95 138.112 118.95 137.168V136.832C118.95 135.896 119.198 135.176 119.694 134.672C120.19 134.16 120.862 133.904 121.71 133.904C122.566 133.904 123.238 134.156 123.726 134.66C124.222 135.164 124.47 135.888 124.47 136.832V137.168C124.47 138.104 124.222 138.828 123.726 139.34C123.23 139.844 122.558 140.096 121.71 140.096ZM121.71 139.112C122.214 139.112 122.61 138.956 122.898 138.644C123.194 138.324 123.342 137.832 123.342 137.168V136.832C123.342 136.176 123.194 135.688 122.898 135.368C122.61 135.048 122.214 134.888 121.71 134.888C121.206 134.888 120.806 135.048 120.51 135.368C120.222 135.68 120.078 136.168 120.078 136.832V137.168C120.078 137.824 120.222 138.312 120.51 138.632C120.806 138.952 121.206 139.112 121.71 139.112ZM125.908 134H128.248C129.032 134 129.596 134.152 129.94 134.456C130.292 134.76 130.468 135.164 130.468 135.668C130.468 135.924 130.404 136.156 130.276 136.364C130.148 136.564 129.964 136.732 129.724 136.868V136.892C130.036 137.02 130.276 137.204 130.444 137.444C130.62 137.676 130.708 137.948 130.708 138.26C130.708 138.804 130.532 139.232 130.18 139.544C129.836 139.848 129.272 140 128.488 140H125.908V134ZM129.34 135.728C129.34 135.496 129.256 135.316 129.088 135.188C128.928 135.052 128.628 134.984 128.188 134.984H126.988V136.484H128.188C128.628 136.484 128.928 136.42 129.088 136.292C129.256 136.156 129.34 135.968 129.34 135.728ZM129.58 138.2C129.58 137.944 129.496 137.748 129.328 137.612C129.16 137.468 128.86 137.396 128.428 137.396H126.988V139.016H128.428C128.86 139.016 129.16 138.948 129.328 138.812C129.496 138.668 129.58 138.464 129.58 138.2ZM133.762 140.096C133.082 140.096 132.57 139.936 132.226 139.616C131.89 139.296 131.722 138.86 131.722 138.308C131.722 137.708 131.922 137.236 132.322 136.892C132.73 136.54 133.39 136.364 134.302 136.364H135.682V136.04C135.682 135.648 135.578 135.36 135.37 135.176C135.17 134.984 134.834 134.888 134.362 134.888C133.93 134.888 133.614 134.964 133.414 135.116C133.214 135.26 133.098 135.448 133.066 135.68H131.962C131.978 135.432 132.038 135.2 132.142 134.984C132.254 134.768 132.41 134.58 132.61 134.42C132.81 134.26 133.054 134.136 133.342 134.048C133.638 133.952 133.978 133.904 134.362 133.904C135.186 133.904 135.79 134.088 136.174 134.456C136.566 134.824 136.762 135.372 136.762 136.1V140H135.922L135.79 139.1H135.766C135.278 139.764 134.61 140.096 133.762 140.096ZM133.882 139.112C134.13 139.112 134.362 139.072 134.578 138.992C134.802 138.904 134.994 138.788 135.154 138.644C135.322 138.492 135.45 138.32 135.538 138.128C135.634 137.928 135.682 137.716 135.682 137.492V137.276H134.362C133.802 137.276 133.41 137.372 133.186 137.564C132.962 137.748 132.85 137.992 132.85 138.296C132.85 138.536 132.934 138.732 133.102 138.884C133.278 139.036 133.538 139.112 133.882 139.112ZM138.505 134H139.585V136.448H142.585V134H143.665V140H142.585V137.432H139.585V140H138.505V134ZM145.466 134H146.546V136.448H149.546V134H150.626V140H149.546V137.432H146.546V140H145.466V134ZM158.067 134H159.147V140H158.067V134ZM152.427 134H153.507V135.92H154.707C155.531 135.92 156.135 136.1 156.519 136.46C156.911 136.82 157.107 137.32 157.107 137.96C157.107 138.592 156.911 139.092 156.519 139.46C156.127 139.82 155.523 140 154.707 140H152.427V134ZM153.507 136.904V139.016H154.647C155.135 139.016 155.479 138.928 155.679 138.752C155.879 138.576 155.979 138.312 155.979 137.96C155.979 137.616 155.875 137.356 155.667 137.18C155.467 136.996 155.127 136.904 154.647 136.904H153.507ZM163.347 140.096C162.923 140.096 162.539 140.032 162.195 139.904C161.859 139.768 161.571 139.576 161.331 139.328C161.091 139.072 160.907 138.764 160.779 138.404C160.651 138.044 160.587 137.632 160.587 137.168V136.832C160.587 136.368 160.651 135.956 160.779 135.596C160.907 135.228 161.087 134.92 161.319 134.672C161.559 134.424 161.843 134.236 162.171 134.108C162.507 133.972 162.879 133.904 163.287 133.904C163.695 133.904 164.063 133.972 164.391 134.108C164.727 134.236 165.011 134.428 165.243 134.684C165.483 134.94 165.667 135.252 165.795 135.62C165.923 135.988 165.987 136.412 165.987 136.892V137.324H161.715C161.731 137.892 161.875 138.332 162.147 138.644C162.427 138.956 162.807 139.112 163.287 139.112C163.671 139.112 163.987 139.04 164.235 138.896C164.483 138.752 164.671 138.52 164.799 138.2H165.927C165.783 138.824 165.487 139.296 165.039 139.616C164.599 139.936 164.035 140.096 163.347 140.096ZM163.287 134.888C162.831 134.888 162.471 135.02 162.207 135.284C161.943 135.548 161.783 135.932 161.727 136.436H164.859C164.763 135.404 164.239 134.888 163.287 134.888Z" fill="#838CA2"/>
<path d="M87.21 120.266C85.8167 120.266 84.5753 120.089 83.486 119.734C82.3967 119.354 81.4847 118.835 80.75 118.176C80.0153 117.492 79.4453 116.694 79.04 115.782C78.66 114.87 78.47 113.869 78.47 112.78C78.47 111.184 78.888 109.829 79.724 108.714C80.5853 107.574 81.738 106.7 83.182 106.092C81.966 105.56 81.0033 104.8 80.294 103.812C79.5847 102.824 79.23 101.608 79.23 100.164C79.23 99.176 79.42 98.264 79.8 97.428C80.2053 96.5667 80.75 95.8193 81.434 95.186C82.1433 94.5527 82.9793 94.0587 83.942 93.704C84.93 93.324 86.0193 93.134 87.21 93.134C88.426 93.134 89.5153 93.3113 90.478 93.666C91.466 94.0207 92.302 94.5147 92.986 95.148C93.6953 95.7813 94.24 96.5287 94.62 97.39C95 98.226 95.19 99.1507 95.19 100.164C95.19 101.583 94.8227 102.786 94.088 103.774C93.3787 104.762 92.416 105.535 91.2 106.092C92.644 106.675 93.7967 107.536 94.658 108.676C95.5193 109.816 95.95 111.184 95.95 112.78C95.95 113.844 95.7473 114.832 95.342 115.744C94.962 116.656 94.392 117.454 93.632 118.138C92.872 118.797 91.9473 119.316 90.858 119.696C89.794 120.076 88.578 120.266 87.21 120.266ZM87.21 105.028C87.8687 104.952 88.5147 104.813 89.148 104.61C89.7813 104.382 90.3387 104.078 90.82 103.698C91.3267 103.293 91.7193 102.799 91.998 102.216C92.302 101.633 92.454 100.949 92.454 100.164C92.454 99.5813 92.3273 99.024 92.074 98.492C91.846 97.9347 91.504 97.4533 91.048 97.048C90.592 96.6173 90.0347 96.2753 89.376 96.022C88.7427 95.7687 88.0207 95.642 87.21 95.642C86.3993 95.642 85.6647 95.7687 85.006 96.022C84.3727 96.2753 83.828 96.6173 83.372 97.048C82.916 97.4533 82.5613 97.9347 82.308 98.492C82.08 99.024 81.966 99.5813 81.966 100.164C81.966 100.924 82.118 101.595 82.422 102.178C82.726 102.735 83.1187 103.217 83.6 103.622C84.1067 104.027 84.6767 104.344 85.31 104.572C85.9433 104.8 86.5767 104.952 87.21 105.028ZM87.21 117.758C88.1473 117.758 88.9833 117.631 89.718 117.378C90.478 117.099 91.1113 116.732 91.618 116.276C92.1247 115.82 92.5173 115.301 92.796 114.718C93.0747 114.11 93.214 113.464 93.214 112.78C93.214 111.969 93.0493 111.235 92.72 110.576C92.416 109.917 91.9853 109.36 91.428 108.904C90.896 108.423 90.2627 108.043 89.528 107.764C88.7933 107.485 88.0207 107.308 87.21 107.232C86.374 107.308 85.5887 107.485 84.854 107.764C84.1193 108.017 83.4733 108.385 82.916 108.866C82.384 109.322 81.966 109.879 81.662 110.538C81.358 111.197 81.206 111.944 81.206 112.78C81.206 113.464 81.3453 114.11 81.624 114.718C81.9027 115.301 82.2953 115.82 82.802 116.276C83.3087 116.732 83.9293 117.099 84.664 117.378C85.424 117.631 86.2727 117.758 87.21 117.758ZM109.624 120.266C108.231 120.266 106.989 120.089 105.9 119.734C104.811 119.354 103.899 118.835 103.164 118.176C102.429 117.492 101.859 116.694 101.454 115.782C101.074 114.87 100.884 113.869 100.884 112.78C100.884 111.184 101.302 109.829 102.138 108.714C102.999 107.574 104.152 106.7 105.596 106.092C104.38 105.56 103.417 104.8 102.708 103.812C101.999 102.824 101.644 101.608 101.644 100.164C101.644 99.176 101.834 98.264 102.214 97.428C102.619 96.5667 103.164 95.8193 103.848 95.186C104.557 94.5527 105.393 94.0587 106.356 93.704C107.344 93.324 108.433 93.134 109.624 93.134C110.84 93.134 111.929 93.3113 112.892 93.666C113.88 94.0207 114.716 94.5147 115.4 95.148C116.109 95.7813 116.654 96.5287 117.034 97.39C117.414 98.226 117.604 99.1507 117.604 100.164C117.604 101.583 117.237 102.786 116.502 103.774C115.793 104.762 114.83 105.535 113.614 106.092C115.058 106.675 116.211 107.536 117.072 108.676C117.933 109.816 118.364 111.184 118.364 112.78C118.364 113.844 118.161 114.832 117.756 115.744C117.376 116.656 116.806 117.454 116.046 118.138C115.286 118.797 114.361 119.316 113.272 119.696C112.208 120.076 110.992 120.266 109.624 120.266ZM109.624 105.028C110.283 104.952 110.929 104.813 111.562 104.61C112.195 104.382 112.753 104.078 113.234 103.698C113.741 103.293 114.133 102.799 114.412 102.216C114.716 101.633 114.868 100.949 114.868 100.164C114.868 99.5813 114.741 99.024 114.488 98.492C114.26 97.9347 113.918 97.4533 113.462 97.048C113.006 96.6173 112.449 96.2753 111.79 96.022C111.157 95.7687 110.435 95.642 109.624 95.642C108.813 95.642 108.079 95.7687 107.42 96.022C106.787 96.2753 106.242 96.6173 105.786 97.048C105.33 97.4533 104.975 97.9347 104.722 98.492C104.494 99.024 104.38 99.5813 104.38 100.164C104.38 100.924 104.532 101.595 104.836 102.178C105.14 102.735 105.533 103.217 106.014 103.622C106.521 104.027 107.091 104.344 107.724 104.572C108.357 104.8 108.991 104.952 109.624 105.028ZM109.624 117.758C110.561 117.758 111.397 117.631 112.132 117.378C112.892 117.099 113.525 116.732 114.032 116.276C114.539 115.82 114.931 115.301 115.21 114.718C115.489 114.11 115.628 113.464 115.628 112.78C115.628 111.969 115.463 111.235 115.134 110.576C114.83 109.917 114.399 109.36 113.842 108.904C113.31 108.423 112.677 108.043 111.942 107.764C111.207 107.485 110.435 107.308 109.624 107.232C108.788 107.308 108.003 107.485 107.268 107.764C106.533 108.017 105.887 108.385 105.33 108.866C104.798 109.322 104.38 109.879 104.076 110.538C103.772 111.197 103.62 111.944 103.62 112.78C103.62 113.464 103.759 114.11 104.038 114.718C104.317 115.301 104.709 115.82 105.216 116.276C105.723 116.732 106.343 117.099 107.078 117.378C107.838 117.631 108.687 117.758 109.624 117.758ZM128.808 106.966C127.921 106.966 127.098 106.814 126.338 106.51C125.603 106.206 124.97 105.788 124.438 105.256C123.906 104.724 123.488 104.078 123.184 103.318C122.88 102.558 122.728 101.722 122.728 100.81V99.29C122.728 98.378 122.88 97.542 123.184 96.782C123.488 96.022 123.906 95.376 124.438 94.844C124.97 94.312 125.603 93.894 126.338 93.59C127.098 93.286 127.921 93.134 128.808 93.134C129.695 93.134 130.505 93.286 131.24 93.59C132 93.894 132.646 94.312 133.178 94.844C133.71 95.376 134.128 96.022 134.432 96.782C134.736 97.542 134.888 98.378 134.888 99.29V100.81C134.888 101.722 134.736 102.558 134.432 103.318C134.128 104.078 133.71 104.724 133.178 105.256C132.646 105.788 132 106.206 131.24 106.51C130.505 106.814 129.695 106.966 128.808 106.966ZM128.808 104.762C129.872 104.762 130.746 104.407 131.43 103.698C132.114 102.989 132.456 102.026 132.456 100.81V99.29C132.456 98.074 132.114 97.1113 131.43 96.402C130.746 95.6927 129.872 95.338 128.808 95.338C127.744 95.338 126.87 95.6927 126.186 96.402C125.502 97.1113 125.16 98.074 125.16 99.29V100.81C125.16 102.026 125.502 102.989 126.186 103.698C126.87 104.407 127.744 104.762 128.808 104.762ZM147.048 120.266C146.161 120.266 145.338 120.114 144.578 119.81C143.843 119.506 143.21 119.088 142.678 118.556C142.146 118.024 141.728 117.378 141.424 116.618C141.12 115.858 140.968 115.022 140.968 114.11V112.59C140.968 111.678 141.12 110.842 141.424 110.082C141.728 109.322 142.146 108.676 142.678 108.144C143.21 107.612 143.843 107.194 144.578 106.89C145.338 106.586 146.161 106.434 147.048 106.434C147.935 106.434 148.745 106.586 149.48 106.89C150.24 107.194 150.886 107.612 151.418 108.144C151.95 108.676 152.368 109.322 152.672 110.082C152.976 110.842 153.128 111.678 153.128 112.59V114.11C153.128 115.022 152.976 115.858 152.672 116.618C152.368 117.378 151.95 118.024 151.418 118.556C150.886 119.088 150.24 119.506 149.48 119.81C148.745 120.114 147.935 120.266 147.048 120.266ZM147.048 118.062C148.112 118.062 148.986 117.707 149.67 116.998C150.354 116.289 150.696 115.326 150.696 114.11V112.59C150.696 111.374 150.354 110.411 149.67 109.702C148.986 108.993 148.112 108.638 147.048 108.638C145.984 108.638 145.11 108.993 144.426 109.702C143.742 110.411 143.4 111.374 143.4 112.59V114.11C143.4 115.326 143.742 116.289 144.426 116.998C145.11 117.707 145.984 118.062 147.048 118.062ZM144.236 93.4H147.048L131.62 120H128.808L144.236 93.4Z" fill="white"/>
<defs>
<filter id="filter0_d_81_484" x="7" y="11" width="217" height="217" filterUnits="userSpaceOnUse" color-interpolation-filters="sRGB">
<feFlood flood-opacity="0" result="BackgroundImageFix"/>
<feColorMatrix in="SourceAlpha" type="matrix" values="0 0 0 0 0 0 0 0 0 0 0 0 0 0 0 0 0 0 127 0" result="hardAlpha"/>
<feOffset dy="4"/>
<feGaussianBlur stdDeviation="2"/>
<feComposite in2="hardAlpha" operator="out"/>
<feColorMatrix type="matrix" values="0 0 0 0 0.372549 0 0 0 0 0.501961 0 0 0 0 0.94902 0 0 0 0.33 0"/>
<feBlend mode="normal" in2="BackgroundImageFix" result="effect1_dropShadow_81_484"/>
<feBlend mode="normal" in="SourceGraphic" in2="effect1_dropShadow_81_484" result="shape"/>
</filter>
<filter id="filter1_d_81_484" x="101.78" y="33.3555" width="27.4395" height="22.3945" filterUnits="userSpaceOnUse" color-interpolation-filters="sRGB">
<feFlood flood-opacity="0" result="BackgroundImageFix"/>
<feColorMatrix in="SourceAlpha" type="matrix" values="0 0 0 0 0 0 0 0 0 0 0 0 0 0 0 0 0 0 127 0" result="hardAlpha"/>
<feOffset dy="2"/>
<feGaussianBlur stdDeviation="2"/>
<feComposite in2="hardAlpha" operator="out"/>
<feColorMatrix type="matrix" values="0 0 0 0 0 0 0 0 0 0 0 0 0 0 0 0 0 0 0.25 0"/>
<feBlend mode="normal" in2="BackgroundImageFix" result="effect1_dropShadow_81_484"/>
<feBlend mode="normal" in="SourceGraphic" in2="effect1_dropShadow_81_484" result="shape"/>
</filter>
<radialGradient id="paint0_radial_81_484" cx="0" cy="0" r="1" gradientUnits="userSpaceOnUse" gradientTransform="translate(115.5 115.5) rotate(90) scale(71.5)">
<stop stop-color="#272A39"/>
<stop offset="1" stop-color="#13161F"/>
</radialGradient>
<linearGradient id="paint1_linear_81_484" x1="2.34984e-06" y1="110.5" x2="231" y2="110.5" gradientUnits="userSpaceOnUse">
<stop stop-color="#222632"/>
<stop offset="0.509379" stop-color="#2E3444"/>
<stop offset="1" stop-color="#212531"/>
</linearGradient>
<radialGradient id="paint2_radial_81_484" cx="0" cy="0" r="1" gradientUnits="userSpaceOnUse" gradientTransform="translate(115.5 115.5) rotate(90) scale(74.5)">
<stop stop-color="#313848"/>
<stop offset="1" stop-color="#13161F"/>
</radialGradient>
<linearGradient id="paint3_linear_81_484" x1="129" y1="11" x2="129" y2="220" gradientUnits="userSpaceOnUse">
<stop stop-color="#5F80F2" stop-opacity="0"/>
<stop offset="1" stop-color="#5F80F2"/>
</linearGradient>
<linearGradient id="paint4_linear_81_484" x1="115.5" y1="34" x2="115.5" y2="55" gradientUnits="userSpaceOnUse">
<stop stop-color="#F0F1F4"/>
<stop offset="1" stop-color="#6D7792"/>
</linearGradient>
</defs>
</svg>
