<svg width="241" height="241" viewBox="0 0 241 241" fill="none" xmlns="http://www.w3.org/2000/svg">
<circle cx="120.5" cy="120.5" r="110" fill="url(#paint0_radial_81_483)" stroke="url(#paint1_linear_81_483)" stroke-width="11"/>
<circle cx="120.5" cy="120.5" r="92" stroke="#242632" stroke-width="13" stroke-dasharray="1 25"/>
<g filter="url(#filter0_d_81_483)">
<path d="M118.894 41.1634C119.694 40.0862 121.306 40.0862 122.106 41.1634L129.822 51.5579C130.801 52.8776 129.859 54.75 128.216 54.75H112.784C111.141 54.75 110.199 52.8776 111.178 51.5579L118.894 41.1634Z" fill="url(#paint2_linear_81_483)"/>
</g>
<g filter="url(#filter1_f_81_483)">
<mask id="path-4-inside-1_81_483" fill="white">
<path d="M72.8782 21.1836C71.5991 18.5161 68.3929 17.3794 65.7875 18.7807C42.2666 31.4312 23.8019 51.8786 13.6304 76.6921C2.78014 103.161 2.13876 132.715 11.8304 159.63C21.5221 186.545 40.8572 208.906 66.091 222.382C91.3249 235.858 120.662 239.49 148.42 232.575C176.178 225.659 200.383 208.689 216.346 184.95C232.309 161.211 238.894 132.393 234.826 104.077C230.759 75.7612 216.328 49.9621 194.328 31.6765C173.705 14.5346 147.806 5.13922 121.099 5.00146C118.141 4.9862 115.842 7.49414 115.964 10.45V10.45C116.086 13.4058 118.582 15.6888 121.541 15.7181C145.594 15.9563 168.898 24.4697 187.481 39.9152C207.44 56.5047 220.532 79.9109 224.222 105.601C227.913 131.29 221.938 157.435 207.456 178.972C192.973 200.509 171.014 215.905 145.83 222.179C120.647 228.453 94.031 225.158 71.1377 212.932C48.2444 200.706 30.7027 180.419 21.91 156.001C13.1172 131.582 13.6991 104.77 23.5429 80.7555C32.7079 58.3975 49.2942 39.9467 70.425 28.4521C73.0237 27.0385 74.1573 23.8511 72.8782 21.1836V21.1836Z"/>
</mask>
<path d="M72.8782 21.1836C71.5991 18.5161 68.3929 17.3794 65.7875 18.7807C42.2666 31.4312 23.8019 51.8786 13.6304 76.6921C2.78014 103.161 2.13876 132.715 11.8304 159.63C21.5221 186.545 40.8572 208.906 66.091 222.382C91.3249 235.858 120.662 239.49 148.42 232.575C176.178 225.659 200.383 208.689 216.346 184.95C232.309 161.211 238.894 132.393 234.826 104.077C230.759 75.7612 216.328 49.9621 194.328 31.6765C173.705 14.5346 147.806 5.13922 121.099 5.00146C118.141 4.9862 115.842 7.49414 115.964 10.45V10.45C116.086 13.4058 118.582 15.6888 121.541 15.7181C145.594 15.9563 168.898 24.4697 187.481 39.9152C207.44 56.5047 220.532 79.9109 224.222 105.601C227.913 131.29 221.938 157.435 207.456 178.972C192.973 200.509 171.014 215.905 145.83 222.179C120.647 228.453 94.031 225.158 71.1377 212.932C48.2444 200.706 30.7027 180.419 21.91 156.001C13.1172 131.582 13.6991 104.77 23.5429 80.7555C32.7079 58.3975 49.2942 39.9467 70.425 28.4521C73.0237 27.0385 74.1573 23.8511 72.8782 21.1836V21.1836Z" stroke="#875BE4" stroke-opacity="0.44" stroke-width="36" mask="url(#path-4-inside-1_81_483)"/>
</g>
<mask id="path-5-inside-2_81_483" fill="white">
<path d="M72.8782 21.1836C71.5991 18.5161 68.3929 17.3794 65.7875 18.7807C42.2666 31.4312 23.8019 51.8786 13.6304 76.6921C2.78014 103.161 2.13876 132.715 11.8304 159.63C21.5221 186.545 40.8572 208.906 66.091 222.382C91.3249 235.858 120.662 239.49 148.42 232.575C176.178 225.659 200.383 208.689 216.346 184.95C232.309 161.211 238.894 132.393 234.826 104.077C230.759 75.7612 216.328 49.9621 194.328 31.6765C173.705 14.5346 147.806 5.13922 121.099 5.00146C118.141 4.9862 115.842 7.49414 115.964 10.45V10.45C116.086 13.4058 118.582 15.6888 121.541 15.7181C145.594 15.9563 168.898 24.4697 187.481 39.9152C207.44 56.5047 220.532 79.9109 224.222 105.601C227.913 131.29 221.938 157.435 207.456 178.972C192.973 200.509 171.014 215.905 145.83 222.179C120.647 228.453 94.031 225.158 71.1377 212.932C48.2444 200.706 30.7027 180.419 21.91 156.001C13.1172 131.582 13.6991 104.77 23.5429 80.7555C32.7079 58.3975 49.2942 39.9467 70.425 28.4521C73.0237 27.0385 74.1573 23.8511 72.8782 21.1836V21.1836Z"/>
</mask>
<path d="M72.8782 21.1836C71.5991 18.5161 68.3929 17.3794 65.7875 18.7807C42.2666 31.4312 23.8019 51.8786 13.6304 76.6921C2.78014 103.161 2.13876 132.715 11.8304 159.63C21.5221 186.545 40.8572 208.906 66.091 222.382C91.3249 235.858 120.662 239.49 148.42 232.575C176.178 225.659 200.383 208.689 216.346 184.95C232.309 161.211 238.894 132.393 234.826 104.077C230.759 75.7612 216.328 49.9621 194.328 31.6765C173.705 14.5346 147.806 5.13922 121.099 5.00146C118.141 4.9862 115.842 7.49414 115.964 10.45V10.45C116.086 13.4058 118.582 15.6888 121.541 15.7181C145.594 15.9563 168.898 24.4697 187.481 39.9152C207.44 56.5047 220.532 79.9109 224.222 105.601C227.913 131.29 221.938 157.435 207.456 178.972C192.973 200.509 171.014 215.905 145.83 222.179C120.647 228.453 94.031 225.158 71.1377 212.932C48.2444 200.706 30.7027 180.419 21.91 156.001C13.1172 131.582 13.6991 104.77 23.5429 80.7555C32.7079 58.3975 49.2942 39.9467 70.425 28.4521C73.0237 27.0385 74.1573 23.8511 72.8782 21.1836V21.1836Z" stroke="#875BE4" stroke-width="36" mask="url(#path-5-inside-2_81_483)"/>
<path d="M80.96 136.6H82.64L84.884 141.544H84.908L87.152 136.6H88.76V145H87.632V137.92H87.608L85.46 142.66H84.26L82.112 137.92H82.088V145H80.96V136.6ZM90.6148 139H91.6948V143.68H91.7188L94.3348 139H95.7748V145H94.6948V140.32H94.6708L92.0548 145H90.6148V139ZM97.5758 139H98.6558V141.448H101.656V139H102.736V145H101.656V142.432H98.6558V145H97.5758V139ZM104.537 139H105.617V143.68H105.641L108.257 139H109.697V145H108.617V140.32H108.593L105.977 145H104.537V139ZM111.498 139H113.106L114.702 142.42H114.726L116.322 139H117.858V145H116.778V140.32H116.754L115.218 143.62H114.138L112.602 140.32H112.578V145H111.498V139ZM121.274 145.096C120.594 145.096 120.082 144.936 119.738 144.616C119.402 144.296 119.234 143.86 119.234 143.308C119.234 142.708 119.434 142.236 119.834 141.892C120.242 141.54 120.902 141.364 121.814 141.364H123.194V141.04C123.194 140.648 123.09 140.36 122.882 140.176C122.682 139.984 122.346 139.888 121.874 139.888C121.442 139.888 121.126 139.964 120.926 140.116C120.726 140.26 120.61 140.448 120.578 140.68H119.474C119.49 140.432 119.55 140.2 119.654 139.984C119.766 139.768 119.922 139.58 120.122 139.42C120.322 139.26 120.566 139.136 120.854 139.048C121.15 138.952 121.49 138.904 121.874 138.904C122.698 138.904 123.302 139.088 123.686 139.456C124.078 139.824 124.274 140.372 124.274 141.1V145H123.434L123.302 144.1H123.278C122.79 144.764 122.122 145.096 121.274 145.096ZM121.394 144.112C121.642 144.112 121.874 144.072 122.09 143.992C122.314 143.904 122.506 143.788 122.666 143.644C122.834 143.492 122.962 143.32 123.05 143.128C123.146 142.928 123.194 142.716 123.194 142.492V142.276H121.874C121.314 142.276 120.922 142.372 120.698 142.564C120.474 142.748 120.362 142.992 120.362 143.296C120.362 143.536 120.446 143.732 120.614 143.884C120.79 144.036 121.05 144.112 121.394 144.112ZM125.297 144.112H125.477C125.709 144.112 125.889 144.036 126.017 143.884C126.153 143.732 126.249 143.516 126.305 143.236C126.369 142.948 126.405 142.604 126.413 142.204C126.429 141.804 126.437 141.356 126.437 140.86V139H130.757V145H129.677V139.984H127.517V140.86C127.517 141.412 127.505 141.944 127.481 142.456C127.457 142.968 127.381 143.42 127.253 143.812C127.125 144.204 126.921 144.516 126.641 144.748C126.369 144.98 125.981 145.096 125.477 145.096H125.297V144.112ZM132.556 139H133.636V140.92H134.836C135.66 140.92 136.264 141.1 136.648 141.46C137.04 141.82 137.236 142.32 137.236 142.96C137.236 143.592 137.04 144.092 136.648 144.46C136.256 144.82 135.652 145 134.836 145H132.556V139ZM133.636 141.904V144.016H134.776C135.264 144.016 135.608 143.928 135.808 143.752C136.008 143.576 136.108 143.312 136.108 142.96C136.108 142.616 136.004 142.356 135.796 142.18C135.596 141.996 135.256 141.904 134.776 141.904H133.636ZM138.439 139H139.519V141.448H142.519V139H143.599V145H142.519V142.432H139.519V145H138.439V139ZM151.04 139H152.12V145H151.04V139ZM145.4 139H146.48V140.92H147.68C148.504 140.92 149.108 141.1 149.492 141.46C149.884 141.82 150.08 142.32 150.08 142.96C150.08 143.592 149.884 144.092 149.492 144.46C149.1 144.82 148.496 145 147.68 145H145.4V139ZM146.48 141.904V144.016H147.62C148.108 144.016 148.452 143.928 148.652 143.752C148.852 143.576 148.952 143.312 148.952 142.96C148.952 142.616 148.848 142.356 148.64 142.18C148.44 141.996 148.1 141.904 147.62 141.904H146.48ZM156.32 145.096C155.896 145.096 155.512 145.032 155.168 144.904C154.832 144.768 154.544 144.576 154.304 144.328C154.064 144.072 153.88 143.764 153.752 143.404C153.624 143.044 153.56 142.632 153.56 142.168V141.832C153.56 141.368 153.624 140.956 153.752 140.596C153.88 140.228 154.06 139.92 154.292 139.672C154.532 139.424 154.816 139.236 155.144 139.108C155.48 138.972 155.852 138.904 156.26 138.904C156.668 138.904 157.036 138.972 157.364 139.108C157.7 139.236 157.984 139.428 158.216 139.684C158.456 139.94 158.64 140.252 158.768 140.62C158.896 140.988 158.96 141.412 158.96 141.892V142.324H154.688C154.704 142.892 154.848 143.332 155.12 143.644C155.4 143.956 155.78 144.112 156.26 144.112C156.644 144.112 156.96 144.04 157.208 143.896C157.456 143.752 157.644 143.52 157.772 143.2H158.9C158.756 143.824 158.46 144.296 158.012 144.616C157.572 144.936 157.008 145.096 156.32 145.096ZM156.26 139.888C155.804 139.888 155.444 140.02 155.18 140.284C154.916 140.548 154.756 140.932 154.7 141.436H157.832C157.736 140.404 157.212 139.888 156.26 139.888Z" fill="#838CA2"/>
<path d="M92.02 125.266C90.956 125.266 89.9933 125.114 89.132 124.81C88.296 124.506 87.5613 124.101 86.928 123.594C86.2947 123.062 85.7627 122.454 85.332 121.77C84.9267 121.061 84.6353 120.301 84.458 119.49H87.27C87.65 120.427 88.2073 121.2 88.942 121.808C89.6767 122.416 90.7027 122.72 92.02 122.72C92.9067 122.72 93.7173 122.568 94.452 122.264C95.1867 121.935 95.82 121.403 96.352 120.668C96.884 119.908 97.302 118.907 97.606 117.666C97.9353 116.425 98.1253 114.879 98.176 113.03C97.492 114.018 96.6053 114.791 95.516 115.348C94.4267 115.88 93.198 116.146 91.83 116.146C90.6647 116.146 89.588 115.943 88.6 115.538C87.612 115.107 86.7507 114.512 86.016 113.752C85.2813 112.992 84.6987 112.093 84.268 111.054C83.8627 110.015 83.66 108.863 83.66 107.596V106.684C83.66 105.443 83.8627 104.303 84.268 103.264C84.6987 102.2 85.2813 101.288 86.016 100.528C86.776 99.768 87.6627 99.1853 88.676 98.78C89.6893 98.3493 90.804 98.134 92.02 98.134C93.3373 98.134 94.528 98.362 95.592 98.818C96.6813 99.2487 97.606 99.92 98.366 100.832C99.126 101.744 99.7087 102.909 100.114 104.328C100.545 105.721 100.76 107.393 100.76 109.344V111.776C100.76 114.233 100.545 116.323 100.114 118.046C99.6833 119.743 99.0753 121.137 98.29 122.226C97.5047 123.29 96.58 124.063 95.516 124.544C94.452 125.025 93.2867 125.266 92.02 125.266ZM86.396 107.596C86.396 109.471 86.9153 110.953 87.954 112.042C88.9927 113.106 90.348 113.638 92.02 113.638C93.8693 113.638 95.326 113.119 96.39 112.08C97.4793 111.016 98.024 109.648 98.024 107.976V107.064C98.024 105.012 97.4793 103.429 96.39 102.314C95.326 101.199 93.8693 100.642 92.02 100.642C90.348 100.642 88.9927 101.187 87.954 102.276C86.9153 103.34 86.396 104.809 86.396 106.684V107.596ZM114.81 125.266C113.416 125.266 112.175 125.089 111.086 124.734C109.996 124.354 109.084 123.835 108.35 123.176C107.615 122.492 107.045 121.694 106.64 120.782C106.26 119.87 106.07 118.869 106.07 117.78C106.07 116.184 106.488 114.829 107.324 113.714C108.185 112.574 109.338 111.7 110.782 111.092C109.566 110.56 108.603 109.8 107.894 108.812C107.184 107.824 106.83 106.608 106.83 105.164C106.83 104.176 107.02 103.264 107.4 102.428C107.805 101.567 108.35 100.819 109.034 100.186C109.743 99.5527 110.579 99.0587 111.542 98.704C112.53 98.324 113.619 98.134 114.81 98.134C116.026 98.134 117.115 98.3113 118.078 98.666C119.066 99.0207 119.902 99.5147 120.586 100.148C121.295 100.781 121.84 101.529 122.22 102.39C122.6 103.226 122.79 104.151 122.79 105.164C122.79 106.583 122.422 107.786 121.688 108.774C120.978 109.762 120.016 110.535 118.8 111.092C120.244 111.675 121.396 112.536 122.258 113.676C123.119 114.816 123.55 116.184 123.55 117.78C123.55 118.844 123.347 119.832 122.942 120.744C122.562 121.656 121.992 122.454 121.232 123.138C120.472 123.797 119.547 124.316 118.458 124.696C117.394 125.076 116.178 125.266 114.81 125.266ZM114.81 110.028C115.468 109.952 116.114 109.813 116.748 109.61C117.381 109.382 117.938 109.078 118.42 108.698C118.926 108.293 119.319 107.799 119.598 107.216C119.902 106.633 120.054 105.949 120.054 105.164C120.054 104.581 119.927 104.024 119.674 103.492C119.446 102.935 119.104 102.453 118.648 102.048C118.192 101.617 117.634 101.275 116.976 101.022C116.342 100.769 115.62 100.642 114.81 100.642C113.999 100.642 113.264 100.769 112.606 101.022C111.972 101.275 111.428 101.617 110.972 102.048C110.516 102.453 110.161 102.935 109.908 103.492C109.68 104.024 109.566 104.581 109.566 105.164C109.566 105.924 109.718 106.595 110.022 107.178C110.326 107.735 110.718 108.217 111.2 108.622C111.706 109.027 112.276 109.344 112.91 109.572C113.543 109.8 114.176 109.952 114.81 110.028ZM114.81 122.758C115.747 122.758 116.583 122.631 117.318 122.378C118.078 122.099 118.711 121.732 119.218 121.276C119.724 120.82 120.117 120.301 120.396 119.718C120.674 119.11 120.814 118.464 120.814 117.78C120.814 116.969 120.649 116.235 120.32 115.576C120.016 114.917 119.585 114.36 119.028 113.904C118.496 113.423 117.862 113.043 117.128 112.764C116.393 112.485 115.62 112.308 114.81 112.232C113.974 112.308 113.188 112.485 112.454 112.764C111.719 113.017 111.073 113.385 110.516 113.866C109.984 114.322 109.566 114.879 109.262 115.538C108.958 116.197 108.806 116.944 108.806 117.78C108.806 118.464 108.945 119.11 109.224 119.718C109.502 120.301 109.895 120.82 110.402 121.276C110.908 121.732 111.529 122.099 112.264 122.378C113.024 122.631 113.872 122.758 114.81 122.758ZM133.994 111.966C133.107 111.966 132.284 111.814 131.524 111.51C130.789 111.206 130.156 110.788 129.624 110.256C129.092 109.724 128.674 109.078 128.37 108.318C128.066 107.558 127.914 106.722 127.914 105.81V104.29C127.914 103.378 128.066 102.542 128.37 101.782C128.674 101.022 129.092 100.376 129.624 99.844C130.156 99.312 130.789 98.894 131.524 98.59C132.284 98.286 133.107 98.134 133.994 98.134C134.88 98.134 135.691 98.286 136.426 98.59C137.186 98.894 137.832 99.312 138.364 99.844C138.896 100.376 139.314 101.022 139.618 101.782C139.922 102.542 140.074 103.378 140.074 104.29V105.81C140.074 106.722 139.922 107.558 139.618 108.318C139.314 109.078 138.896 109.724 138.364 110.256C137.832 110.788 137.186 111.206 136.426 111.51C135.691 111.814 134.88 111.966 133.994 111.966ZM133.994 109.762C135.058 109.762 135.932 109.407 136.616 108.698C137.3 107.989 137.642 107.026 137.642 105.81V104.29C137.642 103.074 137.3 102.111 136.616 101.402C135.932 100.693 135.058 100.338 133.994 100.338C132.93 100.338 132.056 100.693 131.372 101.402C130.688 102.111 130.346 103.074 130.346 104.29V105.81C130.346 107.026 130.688 107.989 131.372 108.698C132.056 109.407 132.93 109.762 133.994 109.762ZM152.234 125.266C151.347 125.266 150.524 125.114 149.764 124.81C149.029 124.506 148.396 124.088 147.864 123.556C147.332 123.024 146.914 122.378 146.61 121.618C146.306 120.858 146.154 120.022 146.154 119.11V117.59C146.154 116.678 146.306 115.842 146.61 115.082C146.914 114.322 147.332 113.676 147.864 113.144C148.396 112.612 149.029 112.194 149.764 111.89C150.524 111.586 151.347 111.434 152.234 111.434C153.12 111.434 153.931 111.586 154.666 111.89C155.426 112.194 156.072 112.612 156.604 113.144C157.136 113.676 157.554 114.322 157.858 115.082C158.162 115.842 158.314 116.678 158.314 117.59V119.11C158.314 120.022 158.162 120.858 157.858 121.618C157.554 122.378 157.136 123.024 156.604 123.556C156.072 124.088 155.426 124.506 154.666 124.81C153.931 125.114 153.12 125.266 152.234 125.266ZM152.234 123.062C153.298 123.062 154.172 122.707 154.856 121.998C155.54 121.289 155.882 120.326 155.882 119.11V117.59C155.882 116.374 155.54 115.411 154.856 114.702C154.172 113.993 153.298 113.638 152.234 113.638C151.17 113.638 150.296 113.993 149.612 114.702C148.928 115.411 148.586 116.374 148.586 117.59V119.11C148.586 120.326 148.928 121.289 149.612 121.998C150.296 122.707 151.17 123.062 152.234 123.062ZM149.422 98.4H152.234L136.806 125H133.994L149.422 98.4Z" fill="white"/>
<defs>
<filter id="filter0_d_81_483" x="106.78" y="38.3555" width="27.4395" height="22.3945" filterUnits="userSpaceOnUse" color-interpolation-filters="sRGB">
<feFlood flood-opacity="0" result="BackgroundImageFix"/>
<feColorMatrix in="SourceAlpha" type="matrix" values="0 0 0 0 0 0 0 0 0 0 0 0 0 0 0 0 0 0 127 0" result="hardAlpha"/>
<feOffset dy="2"/>
<feGaussianBlur stdDeviation="2"/>
<feComposite in2="hardAlpha" operator="out"/>
<feColorMatrix type="matrix" values="0 0 0 0 0 0 0 0 0 0 0 0 0 0 0 0 0 0 0.25 0"/>
<feBlend mode="normal" in2="BackgroundImageFix" result="effect1_dropShadow_81_483"/>
<feBlend mode="normal" in="SourceGraphic" in2="effect1_dropShadow_81_483" result="shape"/>
</filter>
<filter id="filter1_f_81_483" x="0" y="0.00138855" width="241" height="240.999" filterUnits="userSpaceOnUse" color-interpolation-filters="sRGB">
<feFlood flood-opacity="0" result="BackgroundImageFix"/>
<feBlend mode="normal" in="SourceGraphic" in2="BackgroundImageFix" result="shape"/>
<feGaussianBlur stdDeviation="2.5" result="effect1_foregroundBlur_81_483"/>
</filter>
<radialGradient id="paint0_radial_81_483" cx="0" cy="0" r="1" gradientUnits="userSpaceOnUse" gradientTransform="translate(120.5 120.5) rotate(90) scale(71.5)">
<stop stop-color="#313848"/>
<stop offset="1" stop-color="#13161F"/>
</radialGradient>
<linearGradient id="paint1_linear_81_483" x1="5" y1="115.5" x2="236" y2="115.5" gradientUnits="userSpaceOnUse">
<stop stop-color="#222632"/>
<stop offset="0.509379" stop-color="#2E3444"/>
<stop offset="1" stop-color="#212531"/>
</linearGradient>
<linearGradient id="paint2_linear_81_483" x1="120.5" y1="39" x2="120.5" y2="60" gradientUnits="userSpaceOnUse">
<stop stop-color="#F0F1F4"/>
<stop offset="1" stop-color="#6D7792"/>
</linearGradient>
</defs>
</svg>
