<svg width="18" height="12" viewBox="0 0 18 12" fill="none" xmlns="http://www.w3.org/2000/svg">
<path d="M17.9971 0.0617609C17.9971 4.02035 17.9971 7.97895 17.9971 11.9411C17.9795 11.9446 17.9619 11.9481 17.9443 11.9481C14.2529 11.9481 10.5615 11.9481 6.87012 11.9516C6.7541 11.9516 6.71895 11.9129 6.72246 11.8004C6.72598 11.3856 6.71895 10.9707 6.71543 10.5559C7.34824 10.6262 7.97754 10.5981 8.60684 10.5243C10.1748 10.3379 11.7006 9.95473 13.1842 9.41684C14.3057 9.01254 15.3885 8.5309 16.3588 7.82778C16.6682 7.60278 16.6717 7.59223 16.3482 7.40239C15.8068 7.07895 15.2514 6.77309 14.71 6.44965C14.608 6.38989 14.5553 6.40043 14.4709 6.47075C14.1299 6.75551 13.7889 7.04379 13.4373 7.3145C12.3861 8.13012 11.2752 8.83676 9.99902 9.25512C8.93027 9.60317 7.83691 9.76137 6.71191 9.62075L6.71543 9.62778C6.71543 9.29731 6.71191 8.97036 6.71191 8.63989C6.93691 8.6645 7.16543 8.69965 7.39043 8.70668C8.29043 8.73481 9.12363 8.48872 9.92168 8.09496C11.3982 7.36372 12.6076 6.29848 13.701 5.08559C13.7748 5.00121 13.7572 4.95551 13.6939 4.88168C13.2896 4.41059 12.8432 3.97817 12.3615 3.58793C11.2049 2.65629 9.91816 1.99184 8.4416 1.73168C7.86856 1.62973 7.28848 1.63325 6.71191 1.64379L6.71543 1.64731C6.71543 1.19028 6.71191 0.733245 6.71191 0.27973C6.71191 0.0582455 6.71191 0.0582453 6.94043 0.0582453C10.5615 0.0582453 14.1826 0.0582453 17.8002 0.0582453C17.8705 0.0512141 17.9338 0.0582453 17.9971 0.0617609Z" fill="#75B800"/>
<path d="M0.00390625 4.9453C0.0777344 4.96288 0.102344 4.89608 0.141016 4.86092C1.47695 3.68319 2.94648 2.71991 4.63398 2.11522C5.25625 1.89022 5.89961 1.73202 6.56055 1.67225C6.61328 1.66873 6.6625 1.65467 6.71523 1.64413L6.71172 1.64061C6.71523 1.93592 6.71523 2.22772 6.71875 2.52303C6.55 2.54413 6.38125 2.56522 6.2125 2.58983C4.47578 2.86405 3.0625 3.69725 1.94102 5.04022C1.85664 5.13866 1.85313 5.22655 1.89883 5.34256C2.31719 6.41483 2.9043 7.37811 3.7375 8.17616C4.57422 8.97772 5.55508 9.48397 6.71523 9.62108L6.71172 9.61405C6.71172 9.92694 6.71523 10.2398 6.71523 10.5562C5.77305 10.4578 4.88008 10.2047 4.04336 9.75819C2.64766 9.00936 1.60352 7.90194 0.784375 6.566C0.520703 6.13709 0.292188 5.69061 0.0953125 5.22655C0.0777344 5.18788 0.0917969 5.10702 0.00390625 5.12108C0.00390625 5.06131 0.00390625 5.00506 0.00390625 4.9453Z" fill="#75B700"/>
<path d="M6.71895 3.61255C6.71543 3.24692 6.71543 2.8813 6.71191 2.51567C7.35879 2.49458 7.99863 2.52974 8.6209 2.72661C9.91816 3.13794 10.9518 3.92192 11.8201 4.94497C11.8729 5.00474 11.8904 5.05396 11.8307 5.12778C11.001 6.15786 10.0834 7.08599 8.85293 7.63794C8.2166 7.92271 7.55566 8.02114 6.87012 7.8313C6.81387 7.81724 6.7541 7.81021 6.71191 7.7645L6.71543 7.77153C6.71543 6.69927 6.71543 5.627 6.71543 4.55474L6.71191 4.55825C6.74355 4.53364 6.77871 4.54419 6.81387 4.54771C7.37285 4.61099 7.82637 4.85708 8.15332 5.32114C8.35723 5.60942 8.53301 5.91177 8.71231 6.21411C8.75801 6.29146 8.78965 6.31255 8.86699 6.24575C9.31699 5.86255 9.77051 5.48286 10.224 5.10317C10.2873 5.05044 10.2908 5.01177 10.2346 4.94849C9.28535 3.92544 8.12871 3.43325 6.71543 3.60903L6.71895 3.61255Z" fill="#75B700"/>
<path d="M6.71895 7.77471L6.71544 7.76768C6.71544 8.05596 6.71895 8.34776 6.71895 8.63604C5.3795 8.39346 4.42677 7.61651 3.7377 6.47393C3.53731 6.14346 3.37559 5.7919 3.24903 5.42627C3.22091 5.3419 3.21739 5.27862 3.29122 5.2083C4.22637 4.3294 5.32677 3.79151 6.59591 3.61221C6.63458 3.60518 6.67677 3.61221 6.71895 3.61221L6.71192 3.60518C6.71192 3.92159 6.71192 4.24151 6.71192 4.55791L6.71544 4.5544C6.65216 4.51221 6.58184 4.51573 6.51153 4.51573C5.77325 4.52276 5.21427 4.89541 4.71505 5.39112C4.65177 5.4544 4.67286 5.51416 4.69747 5.58448C4.89434 6.13643 5.18262 6.63565 5.59044 7.06104C5.91036 7.38799 6.26895 7.65869 6.71895 7.77471Z" fill="#74B700"/>
</svg>
