<svg width="17" height="17" viewBox="0 0 17 17" fill="none" xmlns="http://www.w3.org/2000/svg">
<path d="M10.5503 0.662476C12.2665 0.662476 13.0852 0.820572 13.9356 1.27538C14.7049 1.68677 15.3128 2.29473 15.7242 3.06395C16.179 3.91438 16.3371 4.73307 16.3371 6.44933V10.5506C16.3371 12.2669 16.179 13.0856 15.7242 13.936C15.3128 14.7052 14.7049 15.3132 13.9356 15.7246C13.0852 16.1794 12.2665 16.3375 10.5503 16.3375H6.44897C4.7327 16.3375 3.91401 16.1794 3.06359 15.7246C2.29436 15.3132 1.68641 14.7052 1.27502 13.936C0.820206 13.0856 0.662109 12.2669 0.662109 10.5506V6.44933C0.662109 4.73307 0.820206 3.91438 1.27502 3.06395C1.68641 2.29473 2.29436 1.68677 3.06359 1.27538C3.91401 0.820572 4.7327 0.662476 6.44897 0.662476H10.5503ZM10.5503 2.08748H6.44897C4.94783 2.08748 4.35138 2.20266 3.73562 2.53197C3.21472 2.81055 2.81018 3.21509 2.5316 3.73598C2.20229 4.35174 2.08711 4.94819 2.08711 6.44933V10.5506C2.08711 12.0518 2.20229 12.6482 2.5316 13.264C2.81018 13.7849 3.21472 14.1894 3.73562 14.468C4.35138 14.7973 4.94783 14.9125 6.44897 14.9125H10.5503C12.0514 14.9125 12.6478 14.7973 13.2636 14.468C13.7845 14.1894 14.189 13.7849 14.4676 13.264C14.7969 12.6482 14.9121 12.0518 14.9121 10.5506V6.44933C14.9121 4.94819 14.7969 4.35174 14.4676 3.73598C14.189 3.21509 13.7845 2.81055 13.2636 2.53197C12.6478 2.20266 12.0514 2.08748 10.5503 2.08748ZM10.8458 6.33366C11.124 6.05541 11.5752 6.05541 11.8534 6.33366C12.1317 6.61191 12.1317 7.06304 11.8534 7.34129L8.21176 10.983C7.93351 11.2612 7.48238 11.2612 7.20413 10.983L5.1458 8.92462C4.86755 8.64637 4.86755 8.19524 5.1458 7.917C5.42404 7.63875 5.87517 7.63875 6.15342 7.917L7.70794 9.47152L10.8458 6.33366Z" fill="#75B700"/>
</svg>
