<svg width="23" height="17" viewBox="0 0 23 17" fill="none" xmlns="http://www.w3.org/2000/svg">
<path fill-rule="evenodd" clip-rule="evenodd" d="M6.40007 0.0720284C5.93607 0.22807 5.6218 0.57683 5.52171 1.04692L5.46784 1.29991H3.00192C0.619269 1.29991 0.530012 1.30287 0.358557 1.3877C0.244299 1.44422 0.148792 1.53685 0.0905161 1.64766C0.000854352 1.81814 0 1.88949 0 9.14995C0 16.4104 0.000854352 16.4818 0.0905161 16.6522C0.148792 16.7631 0.244299 16.8557 0.358557 16.9122C0.5319 16.998 0.616931 17 4.04692 17C7.47691 17 7.56194 16.998 7.73528 16.9122C7.84954 16.8557 7.94505 16.7631 8.00333 16.6522C8.08948 16.4884 8.09384 16.3979 8.09384 14.7776V13.075H9.82502H11.5562V14.3833V15.6917H10.8125C10.1558 15.6917 10.048 15.702 9.8913 15.7794C9.69179 15.8782 9.53275 16.1294 9.53275 16.3458C9.53275 16.5622 9.69179 16.8135 9.8913 16.9122C10.0654 16.9983 10.1481 17 14.2542 17C18.3602 17 18.4429 16.9983 18.617 16.9122C18.8165 16.8135 18.9756 16.5622 18.9756 16.3458C18.9756 16.1294 18.8165 15.8782 18.617 15.7794C18.4603 15.702 18.3525 15.6917 17.6958 15.6917H16.9521V14.3847V13.0778L19.4814 13.0655L22.0108 13.0532L22.2662 12.9315C22.5557 12.7936 22.7669 12.5823 22.9053 12.2922L23 12.0937V6.53327V0.972821L22.9053 0.774346C22.7669 0.484199 22.5557 0.272902 22.2662 0.135047L22.0108 0.013371L14.3216 0.00364571C7.03202 -0.0055999 6.62036 -0.00202373 6.40007 0.0720284ZM21.6735 6.53327V11.7666H14.2542H6.8348V6.53327V1.29991H14.2542H21.6735V6.53327ZM5.48583 3.26242V3.91659H3.4174H1.34897V3.26242V2.60825H3.4174H5.48583V3.26242ZM5.48583 5.8791V6.53327H3.4174H1.34897V5.8791V5.22493H3.4174H5.48583V5.8791ZM5.48583 9.88341C5.48583 12.1271 5.49248 12.1924 5.75702 12.5466C5.92519 12.7717 6.22731 12.9632 6.52283 13.032L6.74487 13.0837V14.3877V15.6917H4.04692H1.34897V11.7666V7.84161H3.4174H5.48583V9.88341ZM15.6031 14.3833V15.6917H14.2542H12.9052V14.3833V13.075H14.2542H15.6031V14.3833ZM3.72141 13.6446C3.53157 13.7418 3.37243 13.9991 3.37243 14.2089C3.37243 14.5407 3.70478 14.863 4.04692 14.863C4.38907 14.863 4.72141 14.5407 4.72141 14.2089C4.72141 13.9925 4.56236 13.7412 4.36285 13.6425C4.1413 13.5329 3.93837 13.5336 3.72141 13.6446Z" fill="#875BE4"/>
</svg>
