<svg width="258" height="47" viewBox="0 0 258 47" fill="none" xmlns="http://www.w3.org/2000/svg">
<circle cx="23.5" cy="23.5" r="23.5" fill="url(#paint0_linear_75_3907)"/>
<circle cx="23.5" cy="23.5" r="23.5" fill="url(#paint1_radial_75_3907)"/>
<mask id="mask0_75_3907" style="mask-type:alpha" maskUnits="userSpaceOnUse" x="0" y="0" width="47" height="47">
<circle cx="23.5" cy="23.5" r="23.5" fill="url(#paint2_linear_75_3907)"/>
<circle cx="23.5" cy="23.5" r="23.5" fill="url(#paint3_radial_75_3907)"/>
</mask>
<g mask="url(#mask0_75_3907)">
<path d="M39 14V22.8H28.2692V54H18.7308V22.8H8V14H39Z" fill="white"/>
</g>
<path d="M70.36 7.12H63.48V3.6H81.08V7.12H74.2V26H70.36V7.12Z" fill="white"/>
<path d="M87.175 26.32C84.7643 26.32 82.8763 25.6373 81.511 24.272C80.167 22.8853 79.495 20.912 79.495 18.352V17.648C79.495 16.3893 79.6656 15.2693 80.007 14.288C80.3696 13.2853 80.871 12.4427 81.511 11.76C82.1723 11.0773 82.9616 10.5653 83.879 10.224C84.8176 9.86133 85.863 9.68 87.015 9.68C89.3403 9.68 91.175 10.3733 92.519 11.76C93.863 13.1467 94.535 15.1627 94.535 17.808V19.152H83.239C83.3456 20.56 83.6976 21.584 84.295 22.224C84.8923 22.864 85.799 23.184 87.015 23.184C88.935 23.184 90.1083 22.5227 90.535 21.2H94.375C94.0123 22.864 93.2016 24.1333 91.943 25.008C90.7056 25.8827 89.1163 26.32 87.175 26.32ZM87.015 12.816C85.8843 12.816 85.0203 13.104 84.423 13.68C83.8256 14.2347 83.4416 15.1413 83.271 16.4H90.759C90.6096 15.1413 90.2363 14.2347 89.639 13.68C89.0416 13.104 88.167 12.816 87.015 12.816Z" fill="white"/>
<path d="M104.136 26.32C101.854 26.32 100.051 25.6373 98.7282 24.272C97.4269 22.8853 96.7762 20.8587 96.7762 18.192V17.488C96.7762 16.2507 96.9469 15.152 97.2882 14.192C97.6296 13.232 98.1202 12.4213 98.7602 11.76C99.4002 11.0773 100.168 10.5653 101.064 10.224C101.982 9.86133 103.006 9.68 104.136 9.68C105.182 9.68 106.11 9.81867 106.92 10.096C107.752 10.3733 108.456 10.7573 109.032 11.248C109.63 11.7387 110.099 12.3147 110.44 12.976C110.803 13.6373 111.048 14.352 111.176 15.12H107.272C107.038 14.5013 106.686 14.0107 106.216 13.648C105.768 13.264 105.128 13.072 104.296 13.072C103.272 13.072 102.408 13.4133 101.704 14.096C101.022 14.7787 100.68 15.9093 100.68 17.488V18.192C100.68 19.0667 100.766 19.8027 100.936 20.4C101.128 20.9973 101.384 21.488 101.704 21.872C102.046 22.2347 102.43 22.5013 102.856 22.672C103.304 22.8427 103.784 22.928 104.296 22.928C105.128 22.928 105.768 22.7253 106.216 22.32C106.686 21.9147 107.038 21.328 107.272 20.56H111.176C111.048 21.4133 110.803 22.192 110.44 22.896C110.099 23.6 109.63 24.208 109.032 24.72C108.456 25.232 107.752 25.6267 106.92 25.904C106.11 26.1813 105.182 26.32 104.136 26.32Z" fill="white"/>
<path d="M113.892 3.6H117.604V11.44H117.668C118.799 10.2667 120.26 9.68 122.052 9.68C123.994 9.68 125.519 10.2667 126.628 11.44C127.738 12.592 128.292 14.2987 128.292 16.56V26H124.58V16.72C124.58 15.504 124.292 14.5973 123.716 14C123.14 13.3813 122.319 13.072 121.252 13.072C120.143 13.072 119.258 13.4027 118.596 14.064C117.935 14.7253 117.604 15.6107 117.604 16.72V26H113.892V3.6Z" fill="white"/>
<path d="M132.299 10H135.179L135.499 11.76H135.563C136.864 10.3733 138.496 9.68 140.459 9.68C142.4 9.68 143.925 10.2667 145.035 11.44C146.144 12.592 146.699 14.2987 146.699 16.56V26H142.987V16.72C142.987 15.504 142.699 14.5973 142.123 14C141.547 13.3813 140.725 13.072 139.659 13.072C138.549 13.072 137.664 13.4027 137.003 14.064C136.341 14.7253 136.011 15.6107 136.011 16.72V26H132.299V10Z" fill="white"/>
<path d="M150.865 10H154.577V26H150.865V10ZM152.721 8.08C152.038 8.08 151.462 7.856 150.993 7.408C150.545 6.93867 150.321 6.36267 150.321 5.68C150.321 4.99733 150.545 4.432 150.993 3.984C151.462 3.51467 152.038 3.28 152.721 3.28C153.404 3.28 153.969 3.51467 154.417 3.984C154.886 4.432 155.121 4.99733 155.121 5.68C155.121 6.36267 154.886 6.93867 154.417 7.408C153.969 7.856 153.404 8.08 152.721 8.08Z" fill="white"/>
<path d="M165.292 26.32C163.01 26.32 161.207 25.6373 159.884 24.272C158.583 22.8853 157.932 20.8587 157.932 18.192V17.488C157.932 16.2507 158.103 15.152 158.444 14.192C158.786 13.232 159.276 12.4213 159.916 11.76C160.556 11.0773 161.324 10.5653 162.22 10.224C163.138 9.86133 164.162 9.68 165.292 9.68C166.338 9.68 167.266 9.81867 168.076 10.096C168.908 10.3733 169.612 10.7573 170.188 11.248C170.786 11.7387 171.255 12.3147 171.596 12.976C171.959 13.6373 172.204 14.352 172.332 15.12H168.428C168.194 14.5013 167.842 14.0107 167.372 13.648C166.924 13.264 166.284 13.072 165.452 13.072C164.428 13.072 163.564 13.4133 162.86 14.096C162.178 14.7787 161.836 15.9093 161.836 17.488V18.192C161.836 19.0667 161.922 19.8027 162.092 20.4C162.284 20.9973 162.54 21.488 162.86 21.872C163.202 22.2347 163.586 22.5013 164.012 22.672C164.46 22.8427 164.94 22.928 165.452 22.928C166.284 22.928 166.924 22.7253 167.372 22.32C167.842 21.9147 168.194 21.328 168.428 20.56H172.332C172.204 21.4133 171.959 22.192 171.596 22.896C171.255 23.6 170.786 24.208 170.188 24.72C169.612 25.232 168.908 25.6267 168.076 25.904C167.266 26.1813 166.338 26.32 165.292 26.32Z" fill="white"/>
<path d="M179.529 26.32C177.63 26.32 176.222 25.8933 175.305 25.04C174.387 24.1867 173.929 23.0027 173.929 21.488C173.929 20.6987 174.057 19.984 174.313 19.344C174.569 18.704 174.985 18.16 175.561 17.712C176.137 17.264 176.883 16.9227 177.801 16.688C178.718 16.432 179.827 16.304 181.129 16.304H184.297V15.44C184.297 14.608 184.051 13.968 183.561 13.52C183.07 13.0507 182.313 12.816 181.289 12.816C180.265 12.816 179.529 13.008 179.081 13.392C178.633 13.7547 178.366 14.224 178.281 14.8H174.569C174.611 14.0747 174.782 13.4027 175.081 12.784C175.379 12.144 175.806 11.6 176.361 11.152C176.915 10.6827 177.598 10.32 178.409 10.064C179.241 9.808 180.201 9.68 181.289 9.68C183.571 9.68 185.257 10.2027 186.345 11.248C187.454 12.2933 188.009 13.7973 188.009 15.76V26H185.129L184.777 23.92H184.713C184.094 24.688 183.337 25.2853 182.441 25.712C181.545 26.1173 180.574 26.32 179.529 26.32ZM180.169 23.184C180.766 23.184 181.31 23.088 181.801 22.896C182.313 22.704 182.75 22.448 183.113 22.128C183.475 21.7867 183.763 21.392 183.977 20.944C184.19 20.4747 184.297 19.9733 184.297 19.44V19.056H181.289C180.009 19.056 179.113 19.2693 178.601 19.696C178.089 20.1013 177.833 20.656 177.833 21.36C177.833 21.8933 178.014 22.3307 178.377 22.672C178.761 23.0133 179.358 23.184 180.169 23.184Z" fill="white"/>
<path d="M197.265 26C196.391 26 195.655 25.8933 195.057 25.68C194.46 25.4667 193.969 25.1893 193.585 24.848C193.201 24.5067 192.903 24.1333 192.689 23.728C192.476 23.3013 192.316 22.896 192.209 22.512C192.124 22.128 192.071 21.776 192.049 21.456C192.028 21.136 192.017 20.8907 192.017 20.72V3.6H195.729V20.336C195.729 21.8507 196.465 22.608 197.937 22.608H198.737V26H197.265Z" fill="white"/>
<path d="M210.419 26.32C208.947 26.32 207.613 26.0853 206.419 25.616C205.224 25.1253 204.2 24.4213 203.347 23.504C202.493 22.5653 201.832 21.4133 201.363 20.048C200.893 18.6613 200.659 17.0827 200.659 15.312V13.968C200.659 12.2827 200.893 10.7787 201.363 9.456C201.832 8.13333 202.493 7.01333 203.347 6.096C204.2 5.17867 205.224 4.48533 206.419 4.016C207.635 3.52533 208.968 3.28 210.419 3.28C211.741 3.28 212.925 3.472 213.971 3.856C215.037 4.21867 215.955 4.73067 216.723 5.392C217.491 6.05333 218.109 6.832 218.579 7.728C219.048 8.624 219.368 9.59467 219.539 10.64H215.379C215.059 9.50933 214.493 8.592 213.683 7.888C212.872 7.16267 211.784 6.8 210.419 6.8C208.712 6.8 207.325 7.39733 206.259 8.592C205.213 9.76533 204.691 11.5573 204.691 13.968V15.312C204.691 16.592 204.829 17.7013 205.107 18.64C205.405 19.5787 205.8 20.3573 206.291 20.976C206.803 21.5947 207.411 22.0533 208.115 22.352C208.819 22.6507 209.587 22.8 210.419 22.8C211.763 22.8 212.829 22.4267 213.619 21.68C214.429 20.9333 214.995 19.92 215.315 18.64H219.539C219.368 19.7707 219.048 20.8053 218.579 21.744C218.109 22.6827 217.491 23.4933 216.723 24.176C215.955 24.8587 215.037 25.392 213.971 25.776C212.925 26.1387 211.741 26.32 210.419 26.32Z" fill="white"/>
<path d="M222.896 10H226.608V26H222.896V10ZM224.752 8.08C224.07 8.08 223.494 7.856 223.024 7.408C222.576 6.93867 222.352 6.36267 222.352 5.68C222.352 4.99733 222.576 4.432 223.024 3.984C223.494 3.51467 224.07 3.28 224.752 3.28C225.435 3.28 226 3.51467 226.448 3.984C226.918 4.432 227.152 4.99733 227.152 5.68C227.152 6.36267 226.918 6.93867 226.448 7.408C226 7.856 225.435 8.08 224.752 8.08Z" fill="white"/>
<path d="M237.164 26C236.289 26 235.553 25.8933 234.956 25.68C234.358 25.4667 233.857 25.1893 233.452 24.848C233.068 24.5067 232.769 24.1333 232.556 23.728C232.342 23.3013 232.182 22.896 232.076 22.512C231.99 22.128 231.937 21.776 231.916 21.456C231.894 21.136 231.884 20.8907 231.884 20.72V13.392H229.004V10H231.884V5.52H235.596V10H239.564V13.392H235.596V20.208C235.596 20.3787 235.606 20.6027 235.628 20.88C235.649 21.1573 235.734 21.424 235.884 21.68C236.033 21.936 236.257 22.16 236.556 22.352C236.854 22.5227 237.281 22.608 237.836 22.608H239.884V26H237.164Z" fill="white"/>
<path d="M247.187 26L240.691 10H244.723L249.107 21.392H249.171L253.235 10H257.011L248.531 32.4H244.755L247.187 26Z" fill="white"/>
<path d="M65.85 44.6253C65.366 44.6253 64.926 44.5446 64.53 44.3833C64.134 44.2219 63.793 43.9836 63.507 43.6683C63.221 43.3529 62.9973 42.9643 62.836 42.5023C62.682 42.0329 62.605 41.4976 62.605 40.8963V40.3683C62.605 39.7963 62.682 39.2866 62.836 38.8393C62.9973 38.3919 63.221 38.0143 63.507 37.7063C63.793 37.3909 64.134 37.1526 64.53 36.9913C64.9333 36.8299 65.3733 36.7493 65.85 36.7493C66.29 36.7493 66.6823 36.8116 67.027 36.9363C67.379 37.0609 67.6796 37.2333 67.929 37.4533C68.1856 37.6659 68.391 37.9189 68.545 38.2123C68.7063 38.4983 68.8163 38.8099 68.875 39.1473H67.775C67.7163 38.9419 67.632 38.7513 67.522 38.5753C67.4193 38.3993 67.2873 38.2453 67.126 38.1133C66.972 37.9813 66.785 37.8786 66.565 37.8053C66.3523 37.7319 66.114 37.6953 65.85 37.6953C65.542 37.6953 65.2523 37.7539 64.981 37.8713C64.717 37.9813 64.4896 38.1499 64.299 38.3773C64.1083 38.6046 63.958 38.8833 63.848 39.2133C63.738 39.5433 63.683 39.9283 63.683 40.3683V40.8963C63.683 41.3583 63.738 41.7653 63.848 42.1173C63.958 42.4619 64.1083 42.7516 64.299 42.9863C64.497 43.2136 64.728 43.3859 64.992 43.5033C65.256 43.6206 65.542 43.6793 65.85 43.6793C66.3853 43.6793 66.8106 43.5363 67.126 43.2503C67.4486 42.9569 67.665 42.5793 67.775 42.1173H68.875C68.8163 42.4839 68.7063 42.8213 68.545 43.1293C68.391 43.4299 68.1856 43.6939 67.929 43.9213C67.6796 44.1413 67.379 44.3136 67.027 44.4383C66.6823 44.5629 66.29 44.6253 65.85 44.6253Z" fill="white" fill-opacity="0.8"/>
<path d="M70.1941 39.0373H70.9641L71.0741 39.8073H71.0961C71.3528 39.4993 71.6205 39.2793 71.8991 39.1473C72.1851 39.0153 72.5261 38.9493 72.9221 38.9493C73.2521 38.9493 73.5528 39.0079 73.8241 39.1253C74.0955 39.2353 74.3301 39.4039 74.5281 39.6313C74.7261 39.8513 74.8765 40.1299 74.9791 40.4673C75.0891 40.7973 75.1441 41.1859 75.1441 41.6333V41.9413C75.1441 42.3813 75.0891 42.7699 74.9791 43.1073C74.8691 43.4373 74.7151 43.7159 74.5171 43.9433C74.3191 44.1706 74.0845 44.3429 73.8131 44.4603C73.5418 44.5703 73.2448 44.6253 72.9221 44.6253C72.5481 44.6253 72.2255 44.5666 71.9541 44.4493C71.6901 44.3319 71.4408 44.1413 71.2061 43.8773H71.1841V46.7373H70.1941V39.0373ZM72.6471 43.7233C73.0945 43.7233 73.4501 43.5803 73.7141 43.2943C73.9781 43.0009 74.1101 42.5499 74.1101 41.9413V41.6333C74.1101 41.0393 73.9745 40.5956 73.7031 40.3023C73.4391 40.0016 73.0871 39.8513 72.6471 39.8513C72.1998 39.8513 71.8441 39.9979 71.5801 40.2913C71.3161 40.5773 71.1841 41.0246 71.1841 41.6333V41.9413C71.1841 42.5353 71.3161 42.9826 71.5801 43.2833C71.8515 43.5766 72.2071 43.7233 72.6471 43.7233Z" fill="white" fill-opacity="0.8"/>
<path d="M77.9526 44.6253C77.3292 44.6253 76.8599 44.4786 76.5446 44.1853C76.2366 43.8919 76.0826 43.4923 76.0826 42.9863C76.0826 42.4363 76.2659 42.0036 76.6326 41.6883C77.0066 41.3656 77.6116 41.2043 78.4476 41.2043H79.7126V40.9073C79.7126 40.5479 79.6172 40.2839 79.4266 40.1153C79.2432 39.9393 78.9352 39.8513 78.5026 39.8513C78.1066 39.8513 77.8169 39.9209 77.6336 40.0603C77.4502 40.1923 77.3439 40.3646 77.3146 40.5773H76.3026C76.3172 40.3499 76.3722 40.1373 76.4676 39.9393C76.5702 39.7413 76.7132 39.5689 76.8966 39.4223C77.0799 39.2756 77.3036 39.1619 77.5676 39.0813C77.8389 38.9933 78.1506 38.9493 78.5026 38.9493C79.2579 38.9493 79.8116 39.1179 80.1636 39.4553C80.5229 39.7926 80.7026 40.2949 80.7026 40.9623V44.5373H79.9326L79.8116 43.7123H79.7896C79.3422 44.3209 78.7299 44.6253 77.9526 44.6253ZM78.0626 43.7233C78.2899 43.7233 78.5026 43.6866 78.7006 43.6133C78.9059 43.5326 79.0819 43.4263 79.2286 43.2943C79.3826 43.1549 79.4999 42.9973 79.5806 42.8213C79.6686 42.6379 79.7126 42.4436 79.7126 42.2383V42.0403H78.5026C77.9892 42.0403 77.6299 42.1283 77.4246 42.3043C77.2192 42.4729 77.1166 42.6966 77.1166 42.9753C77.1166 43.1953 77.1936 43.3749 77.3476 43.5143C77.5089 43.6536 77.7472 43.7233 78.0626 43.7233Z" fill="white" fill-opacity="0.8"/>
<path d="M82.3006 39.0373H84.4456C85.1642 39.0373 85.6812 39.1766 85.9966 39.4553C86.3192 39.7339 86.4806 40.1043 86.4806 40.5663C86.4806 40.8009 86.4219 41.0136 86.3046 41.2043C86.1872 41.3876 86.0186 41.5416 85.7986 41.6663V41.6883C86.0846 41.8056 86.3046 41.9743 86.4586 42.1943C86.6199 42.4069 86.7006 42.6563 86.7006 42.9423C86.7006 43.4409 86.5392 43.8333 86.2166 44.1193C85.9012 44.3979 85.3842 44.5373 84.6656 44.5373H82.3006V39.0373ZM85.4466 40.6213C85.4466 40.4086 85.3696 40.2436 85.2156 40.1263C85.0689 40.0016 84.7939 39.9393 84.3906 39.9393H83.2906V41.3143H84.3906C84.7939 41.3143 85.0689 41.2556 85.2156 41.1383C85.3696 41.0136 85.4466 40.8413 85.4466 40.6213ZM85.6666 42.8873C85.6666 42.6526 85.5896 42.4729 85.4356 42.3483C85.2816 42.2163 85.0066 42.1503 84.6106 42.1503H83.2906V43.6353H84.6106C85.0066 43.6353 85.2816 43.5729 85.4356 43.4483C85.5896 43.3163 85.6666 43.1293 85.6666 42.8873Z" fill="white" fill-opacity="0.8"/>
<path d="M88.0154 39.0373H89.0054V41.2813H91.7554V39.0373H92.7454V44.5373H91.7554V42.1833H89.0054V44.5373H88.0154V39.0373Z" fill="white" fill-opacity="0.8"/>
<path d="M96.5963 44.6253C96.2076 44.6253 95.8556 44.5666 95.5403 44.4493C95.2323 44.3246 94.9683 44.1486 94.7483 43.9213C94.5283 43.6866 94.3596 43.4043 94.2423 43.0743C94.1249 42.7443 94.0663 42.3666 94.0663 41.9413V41.6333C94.0663 41.2079 94.1249 40.8303 94.2423 40.5003C94.3596 40.1629 94.5246 39.8806 94.7373 39.6533C94.9573 39.4259 95.2176 39.2536 95.5183 39.1363C95.8263 39.0116 96.1673 38.9493 96.5413 38.9493C96.9153 38.9493 97.2526 39.0116 97.5533 39.1363C97.8613 39.2536 98.1216 39.4296 98.3343 39.6643C98.5543 39.8989 98.7229 40.1849 98.8403 40.5223C98.9576 40.8596 99.0163 41.2483 99.0163 41.6883V42.0843H95.1003C95.1149 42.6049 95.2469 43.0083 95.4963 43.2943C95.7529 43.5803 96.1013 43.7233 96.5413 43.7233C96.8933 43.7233 97.1829 43.6573 97.4103 43.5253C97.6376 43.3933 97.8099 43.1806 97.9273 42.8873H98.9613C98.8293 43.4593 98.5579 43.8919 98.1473 44.1853C97.7439 44.4786 97.2269 44.6253 96.5963 44.6253ZM96.5413 39.8513C96.1233 39.8513 95.7933 39.9723 95.5513 40.2143C95.3093 40.4563 95.1626 40.8083 95.1113 41.2703H97.9823C97.8943 40.3243 97.4139 39.8513 96.5413 39.8513Z" fill="white" fill-opacity="0.8"/>
<path d="M100.337 39.0373H101.327V41.2813H104.077V39.0373H105.067V44.5373H104.077V42.1833H101.327V44.5373H100.337V39.0373Z" fill="white" fill-opacity="0.8"/>
<path d="M106.718 39.0373H107.708V43.3273H107.73L110.128 39.0373H111.448V44.5373H110.458V40.2473H110.436L108.038 44.5373H106.718V39.0373Z" fill="white" fill-opacity="0.8"/>
<path d="M113.835 42.4253C113.483 42.2859 113.227 42.0843 113.065 41.8203C112.904 41.5563 112.823 41.2299 112.823 40.8413C112.823 40.2693 113.003 39.8256 113.362 39.5103C113.722 39.1949 114.312 39.0373 115.133 39.0373H117.003V44.5373H116.013V42.6233H115.133C115.075 42.6233 115.016 42.6233 114.957 42.6233C114.899 42.6233 114.84 42.6196 114.781 42.6123L113.703 44.5373H112.603L113.835 42.4253ZM113.857 40.8413C113.857 41.1273 113.953 41.3473 114.143 41.5013C114.334 41.6479 114.682 41.7213 115.188 41.7213H116.013V39.9393H115.188C114.675 39.9393 114.323 40.0163 114.132 40.1703C113.949 40.3169 113.857 40.5406 113.857 40.8413Z" fill="white" fill-opacity="0.8"/>
<path d="M119.048 43.3823H120.192L119.422 46.1873H118.542L119.048 43.3823Z" fill="white" fill-opacity="0.8"/>
<path d="M126.79 44.6253C126.049 44.6253 125.459 44.3943 125.019 43.9323C124.586 43.4703 124.37 42.7883 124.37 41.8863V41.5783C124.37 41.1603 124.429 40.7899 124.546 40.4673C124.663 40.1446 124.825 39.8696 125.03 39.6423C125.243 39.4149 125.496 39.2426 125.789 39.1253C126.09 39.0079 126.423 38.9493 126.79 38.9493C127.135 38.9493 127.439 38.9969 127.703 39.0923C127.974 39.1803 128.205 39.3013 128.396 39.4553C128.587 39.6093 128.741 39.7926 128.858 40.0053C128.975 40.2179 129.056 40.4453 129.1 40.6873H128.066C127.985 40.4526 127.846 40.2546 127.648 40.0933C127.457 39.9319 127.19 39.8513 126.845 39.8513C126.405 39.8513 126.053 39.9943 125.789 40.2803C125.532 40.5589 125.404 40.9916 125.404 41.5783V41.8863C125.404 42.5243 125.532 42.9899 125.789 43.2833C126.053 43.5766 126.405 43.7233 126.845 43.7233C127.19 43.7233 127.457 43.6389 127.648 43.4703C127.846 43.2943 127.985 43.0633 128.066 42.7773H129.1C129.056 43.0486 128.975 43.2979 128.858 43.5253C128.741 43.7453 128.587 43.9396 128.396 44.1083C128.205 44.2696 127.974 44.3979 127.703 44.4933C127.439 44.5813 127.135 44.6253 126.79 44.6253Z" fill="white" fill-opacity="0.8"/>
<path d="M130.254 39.0373H134.764V44.5373H133.774V39.9393H131.244V44.5373H130.254V39.0373Z" fill="white" fill-opacity="0.8"/>
<path d="M138.609 44.6253C138.22 44.6253 137.868 44.5666 137.553 44.4493C137.245 44.3246 136.981 44.1486 136.761 43.9213C136.541 43.6866 136.372 43.4043 136.255 43.0743C136.138 42.7443 136.079 42.3666 136.079 41.9413V41.6333C136.079 41.2079 136.138 40.8303 136.255 40.5003C136.372 40.1629 136.537 39.8806 136.75 39.6533C136.97 39.4259 137.23 39.2536 137.531 39.1363C137.839 39.0116 138.18 38.9493 138.554 38.9493C138.928 38.9493 139.265 39.0116 139.566 39.1363C139.874 39.2536 140.134 39.4296 140.347 39.6643C140.567 39.8989 140.736 40.1849 140.853 40.5223C140.97 40.8596 141.029 41.2483 141.029 41.6883V42.0843H137.113C137.128 42.6049 137.26 43.0083 137.509 43.2943C137.766 43.5803 138.114 43.7233 138.554 43.7233C138.906 43.7233 139.196 43.6573 139.423 43.5253C139.65 43.3933 139.823 43.1806 139.94 42.8873H140.974C140.842 43.4593 140.571 43.8919 140.16 44.1853C139.757 44.4786 139.24 44.6253 138.609 44.6253ZM138.554 39.8513C138.136 39.8513 137.806 39.9723 137.564 40.2143C137.322 40.4563 137.175 40.8083 137.124 41.2703H139.995C139.907 40.3243 139.427 39.8513 138.554 39.8513Z" fill="white" fill-opacity="0.8"/>
<path d="M146.584 44.5373H142.349V39.0373H143.339V43.6353H145.814V39.0373H146.804V43.6353H147.574V45.9673H146.584V44.5373Z" fill="white" fill-opacity="0.8"/>
<path d="M148.623 39.0373H149.613V43.3273H149.635L152.033 39.0373H153.353V44.5373H152.363V40.2473H152.341L149.943 44.5373H148.623V39.0373Z" fill="white" fill-opacity="0.8"/>
<path d="M157.534 44.6253H157.149C156.775 44.6253 156.434 44.5666 156.126 44.4493C155.825 44.3246 155.565 44.1486 155.345 43.9213C155.132 43.6866 154.967 43.4043 154.85 43.0743C154.732 42.7443 154.674 42.3666 154.674 41.9413V41.6333C154.674 41.2153 154.732 40.8413 154.85 40.5113C154.974 40.1813 155.143 39.9026 155.356 39.6753C155.576 39.4406 155.836 39.2609 156.137 39.1363C156.445 39.0116 156.782 38.9493 157.149 38.9493H157.534V36.8373H158.524V38.9493H158.909C159.283 38.9493 159.62 39.0116 159.921 39.1363C160.229 39.2536 160.489 39.4296 160.702 39.6643C160.922 39.8916 161.09 40.1703 161.208 40.5003C161.325 40.8303 161.384 41.2079 161.384 41.6333V41.9413C161.384 42.3593 161.321 42.7369 161.197 43.0743C161.079 43.4043 160.911 43.6866 160.691 43.9213C160.478 44.1486 160.218 44.3246 159.91 44.4493C159.609 44.5666 159.275 44.6253 158.909 44.6253H158.524V46.7373H157.534V44.6253ZM160.35 41.6333C160.35 41.0393 160.214 40.5956 159.943 40.3023C159.679 40.0016 159.334 39.8513 158.909 39.8513H158.524V43.7233H158.909C159.349 43.7233 159.697 43.5803 159.954 43.2943C160.218 43.0009 160.35 42.5499 160.35 41.9413V41.6333ZM155.708 41.9413C155.708 42.5353 155.84 42.9826 156.104 43.2833C156.375 43.5766 156.723 43.7233 157.149 43.7233H157.534V39.8513H157.149C156.709 39.8513 156.357 39.9979 156.093 40.2913C155.836 40.5773 155.708 41.0246 155.708 41.6333V41.9413Z" fill="white" fill-opacity="0.8"/>
<path d="M162.706 39.0373H163.696V43.3273H163.718L166.116 39.0373H167.436V44.5373H166.446V40.2473H166.424L164.026 44.5373H162.706V39.0373Z" fill="white" fill-opacity="0.8"/>
<path d="M169.087 39.0373H170.077V41.2263H170.847L172.343 39.0373H173.487L171.628 41.6443L173.707 44.5373H172.519L170.847 42.1283H170.077V44.5373H169.087V39.0373Z" fill="white" fill-opacity="0.8"/>
<path d="M176.072 44.6253C175.448 44.6253 174.979 44.4786 174.664 44.1853C174.356 43.8919 174.202 43.4923 174.202 42.9863C174.202 42.4363 174.385 42.0036 174.752 41.6883C175.126 41.3656 175.731 41.2043 176.567 41.2043H177.832V40.9073C177.832 40.5479 177.736 40.2839 177.546 40.1153C177.362 39.9393 177.054 39.8513 176.622 39.8513C176.226 39.8513 175.936 39.9209 175.753 40.0603C175.569 40.1923 175.463 40.3646 175.434 40.5773H174.422C174.436 40.3499 174.491 40.1373 174.587 39.9393C174.689 39.7413 174.832 39.5689 175.016 39.4223C175.199 39.2756 175.423 39.1619 175.687 39.0813C175.958 38.9933 176.27 38.9493 176.622 38.9493C177.377 38.9493 177.931 39.1179 178.283 39.4553C178.642 39.7926 178.822 40.2949 178.822 40.9623V44.5373H178.052L177.931 43.7123H177.909C177.461 44.3209 176.849 44.6253 176.072 44.6253ZM176.182 43.7233C176.409 43.7233 176.622 43.6866 176.82 43.6133C177.025 43.5326 177.201 43.4263 177.348 43.2943C177.502 43.1549 177.619 42.9973 177.7 42.8213C177.788 42.6379 177.832 42.4436 177.832 42.2383V42.0403H176.622C176.108 42.0403 175.749 42.1283 175.544 42.3043C175.338 42.4729 175.236 42.6966 175.236 42.9753C175.236 43.1953 175.313 43.3749 175.467 43.5143C175.628 43.6536 175.866 43.7233 176.182 43.7233Z" fill="white" fill-opacity="0.8"/>
<path d="M184.655 44.5373H180.42V39.0373H181.41V43.6353H183.885V39.0373H184.875V43.6353H185.645V45.9673H184.655V44.5373Z" fill="white" fill-opacity="0.8"/>
<path d="M186.693 39.0373H187.683V43.3273H187.705L190.103 39.0373H191.423V44.5373H190.433V40.2473H190.411L188.013 44.5373H186.693V39.0373Z" fill="white" fill-opacity="0.8"/>
<path d="M193.074 39.0373H194.064V43.3273H194.086L196.484 39.0373H197.804V44.5373H196.814V40.2473H196.792L194.394 44.5373H193.074V39.0373Z" fill="white" fill-opacity="0.8"/>
<path d="M202.205 39.0373H203.195V43.3273H203.217L205.615 39.0373H206.935V44.5373H205.945V40.2473H205.923L203.525 44.5373H202.205V39.0373Z" fill="white" fill-opacity="0.8"/>
<path d="M211.336 39.0373H212.106L212.216 39.8073H212.238C212.494 39.4993 212.762 39.2793 213.041 39.1473C213.327 39.0153 213.668 38.9493 214.064 38.9493C214.394 38.9493 214.694 39.0079 214.966 39.1253C215.237 39.2353 215.472 39.4039 215.67 39.6313C215.868 39.8513 216.018 40.1299 216.121 40.4673C216.231 40.7973 216.286 41.1859 216.286 41.6333V41.9413C216.286 42.3813 216.231 42.7699 216.121 43.1073C216.011 43.4373 215.857 43.7159 215.659 43.9433C215.461 44.1706 215.226 44.3429 214.955 44.4603C214.683 44.5703 214.386 44.6253 214.064 44.6253C213.69 44.6253 213.367 44.5666 213.096 44.4493C212.832 44.3319 212.582 44.1413 212.348 43.8773H212.326V46.7373H211.336V39.0373ZM213.789 43.7233C214.236 43.7233 214.592 43.5803 214.856 43.2943C215.12 43.0009 215.252 42.5499 215.252 41.9413V41.6333C215.252 41.0393 215.116 40.5956 214.845 40.3023C214.581 40.0016 214.229 39.8513 213.789 39.8513C213.341 39.8513 212.986 39.9979 212.722 40.2913C212.458 40.5773 212.326 41.0246 212.326 41.6333V41.9413C212.326 42.5353 212.458 42.9826 212.722 43.2833C212.993 43.5766 213.349 43.7233 213.789 43.7233Z" fill="white" fill-opacity="0.8"/>
<path d="M219.809 44.6253C219.42 44.6253 219.068 44.5666 218.753 44.4493C218.445 44.3246 218.181 44.1486 217.961 43.9213C217.741 43.6866 217.572 43.4043 217.455 43.0743C217.338 42.7443 217.279 42.3666 217.279 41.9413V41.6333C217.279 41.2079 217.338 40.8303 217.455 40.5003C217.572 40.1629 217.738 39.8806 217.95 39.6533C218.17 39.4259 218.43 39.2536 218.731 39.1363C219.039 39.0116 219.38 38.9493 219.754 38.9493C220.128 38.9493 220.465 39.0116 220.766 39.1363C221.074 39.2536 221.335 39.4296 221.547 39.6643C221.767 39.8989 221.936 40.1849 222.053 40.5223C222.171 40.8596 222.229 41.2483 222.229 41.6883V42.0843H218.313C218.328 42.6049 218.46 43.0083 218.709 43.2943C218.966 43.5803 219.314 43.7233 219.754 43.7233C220.106 43.7233 220.396 43.6573 220.623 43.5253C220.85 43.3933 221.023 43.1806 221.14 42.8873H222.174C222.042 43.4593 221.771 43.8919 221.36 44.1853C220.957 44.4786 220.44 44.6253 219.809 44.6253ZM219.754 39.8513C219.336 39.8513 219.006 39.9723 218.764 40.2143C218.522 40.4563 218.375 40.8083 218.324 41.2703H221.195C221.107 40.3243 220.627 39.8513 219.754 39.8513Z" fill="white" fill-opacity="0.8"/>
<path d="M223.55 39.0373H224.54V43.3273H224.562L226.96 39.0373H228.28V44.5373H227.29V40.2473H227.268L224.87 44.5373H223.55V39.0373ZM225.915 38.3553C225.431 38.3553 225.053 38.2233 224.782 37.9593C224.51 37.6879 224.375 37.3139 224.375 36.8373H225.233C225.233 37.1233 225.291 37.3359 225.409 37.4753C225.533 37.6073 225.702 37.6733 225.915 37.6733C226.127 37.6733 226.292 37.6073 226.41 37.4753C226.534 37.3359 226.597 37.1233 226.597 36.8373H227.455C227.455 37.3139 227.319 37.6879 227.048 37.9593C226.776 38.2233 226.399 38.3553 225.915 38.3553Z" fill="white" fill-opacity="0.8"/>
<path d="M231.03 39.9393H229.27V39.0373H233.78V39.9393H232.02V44.5373H231.03V39.9393Z" fill="white" fill-opacity="0.8"/>
<path d="M234.775 39.0373H235.765V43.3273H235.787L238.185 39.0373H239.505V44.5373H238.515V40.2473H238.493L236.095 44.5373H234.775V39.0373Z" fill="white" fill-opacity="0.8"/>
<path d="M241.156 39.0373H242.146V41.2813H244.896V39.0373H245.886V44.5373H244.896V42.1833H242.146V44.5373H241.156V39.0373Z" fill="white" fill-opacity="0.8"/>
<path d="M247.537 39.0373H251.222V39.9393H248.527V44.5373H247.537V39.0373Z" fill="white" fill-opacity="0.8"/>
<path d="M252.21 39.0373H253.2V43.3273H253.222L255.62 39.0373H256.94V44.5373H255.95V40.2473H255.928L253.53 44.5373H252.21V39.0373Z" fill="white" fill-opacity="0.8"/>
<defs>
<linearGradient id="paint0_linear_75_3907" x1="38.3678" y1="16.3061" x2="37.888" y2="50.3571" gradientUnits="userSpaceOnUse">
<stop stop-color="#875BE4"/>
<stop offset="1" stop-color="#5F80F2"/>
</linearGradient>
<radialGradient id="paint1_radial_75_3907" cx="0" cy="0" r="1" gradientUnits="userSpaceOnUse" gradientTransform="translate(4.31633 13.4286) rotate(80.9605) scale(21.3674)">
<stop stop-color="#549EE3"/>
<stop offset="1" stop-color="#549EE3" stop-opacity="0"/>
</radialGradient>
<linearGradient id="paint2_linear_75_3907" x1="38.3678" y1="16.3061" x2="37.888" y2="50.3571" gradientUnits="userSpaceOnUse">
<stop stop-color="#875BE4"/>
<stop offset="1" stop-color="#5F80F2"/>
</linearGradient>
<radialGradient id="paint3_radial_75_3907" cx="0" cy="0" r="1" gradientUnits="userSpaceOnUse" gradientTransform="translate(4.31633 13.4286) rotate(80.9605) scale(21.3674)">
<stop stop-color="#549EE3"/>
<stop offset="1" stop-color="#549EE3" stop-opacity="0"/>
</radialGradient>
</defs>
</svg>
