<svg width="148" height="159" viewBox="0 0 148 159" fill="none" xmlns="http://www.w3.org/2000/svg">
<path d="M107.324 143.774L105.28 145.16V143.732L107.324 142.318H108.64V152.118H107.324V143.774ZM114.165 152.23C113.651 152.23 113.185 152.146 112.765 151.978C112.354 151.81 112.004 151.544 111.715 151.18C111.425 150.807 111.201 150.331 111.043 149.752C110.884 149.164 110.805 148.455 110.805 147.624V146.812C110.805 145.991 110.884 145.291 111.043 144.712C111.201 144.124 111.425 143.648 111.715 143.284C112.013 142.911 112.368 142.64 112.779 142.472C113.199 142.295 113.661 142.206 114.165 142.206C114.678 142.206 115.14 142.29 115.551 142.458C115.971 142.626 116.325 142.897 116.615 143.27C116.904 143.634 117.128 144.11 117.287 144.698C117.445 145.277 117.525 145.981 117.525 146.812V147.624C117.525 148.445 117.445 149.15 117.287 149.738C117.128 150.317 116.899 150.793 116.601 151.166C116.311 151.53 115.957 151.801 115.537 151.978C115.126 152.146 114.669 152.23 114.165 152.23ZM114.165 150.97C114.473 150.97 114.748 150.919 114.991 150.816C115.243 150.704 115.453 150.522 115.621 150.27C115.789 150.009 115.919 149.663 116.013 149.234C116.106 148.805 116.153 148.268 116.153 147.624V146.812C116.153 146.168 116.106 145.636 116.013 145.216C115.919 144.787 115.784 144.441 115.607 144.18C115.439 143.919 115.229 143.737 114.977 143.634C114.734 143.522 114.463 143.466 114.165 143.466C113.857 143.466 113.577 143.522 113.325 143.634C113.082 143.737 112.877 143.919 112.709 144.18C112.541 144.432 112.41 144.773 112.317 145.202C112.223 145.631 112.177 146.168 112.177 146.812V147.624C112.177 148.268 112.223 148.805 112.317 149.234C112.41 149.654 112.541 149.995 112.709 150.256C112.886 150.517 113.096 150.704 113.339 150.816C113.591 150.919 113.866 150.97 114.165 150.97ZM122.709 152.23C122.196 152.23 121.729 152.146 121.309 151.978C120.899 151.81 120.549 151.544 120.259 151.18C119.97 150.807 119.746 150.331 119.587 149.752C119.429 149.164 119.349 148.455 119.349 147.624V146.812C119.349 145.991 119.429 145.291 119.587 144.712C119.746 144.124 119.97 143.648 120.259 143.284C120.558 142.911 120.913 142.64 121.323 142.472C121.743 142.295 122.205 142.206 122.709 142.206C123.223 142.206 123.685 142.29 124.095 142.458C124.515 142.626 124.87 142.897 125.159 143.27C125.449 143.634 125.673 144.11 125.831 144.698C125.99 145.277 126.069 145.981 126.069 146.812V147.624C126.069 148.445 125.99 149.15 125.831 149.738C125.673 150.317 125.444 150.793 125.145 151.166C124.856 151.53 124.501 151.801 124.081 151.978C123.671 152.146 123.213 152.23 122.709 152.23ZM122.709 150.97C123.017 150.97 123.293 150.919 123.535 150.816C123.787 150.704 123.997 150.522 124.165 150.27C124.333 150.009 124.464 149.663 124.557 149.234C124.651 148.805 124.697 148.268 124.697 147.624V146.812C124.697 146.168 124.651 145.636 124.557 145.216C124.464 144.787 124.329 144.441 124.151 144.18C123.983 143.919 123.773 143.737 123.521 143.634C123.279 143.522 123.008 143.466 122.709 143.466C122.401 143.466 122.121 143.522 121.869 143.634C121.627 143.737 121.421 143.919 121.253 144.18C121.085 144.432 120.955 144.773 120.861 145.202C120.768 145.631 120.721 146.168 120.721 146.812V147.624C120.721 148.268 120.768 148.805 120.861 149.234C120.955 149.654 121.085 149.995 121.253 150.256C121.431 150.517 121.641 150.704 121.883 150.816C122.135 150.919 122.411 150.97 122.709 150.97Z" fill="black" fill-opacity="0.6"/>
<path d="M32.27 152.23C31.7567 152.23 31.29 152.146 30.87 151.978C30.4593 151.81 30.1093 151.544 29.82 151.18C29.5307 150.807 29.3067 150.331 29.148 149.752C28.9893 149.164 28.91 148.455 28.91 147.624V146.812C28.91 145.991 28.9893 145.291 29.148 144.712C29.3067 144.124 29.5307 143.648 29.82 143.284C30.1187 142.911 30.4733 142.64 30.884 142.472C31.304 142.295 31.766 142.206 32.27 142.206C32.7833 142.206 33.2453 142.29 33.656 142.458C34.076 142.626 34.4307 142.897 34.72 143.27C35.0093 143.634 35.2333 144.11 35.392 144.698C35.5507 145.277 35.63 145.981 35.63 146.812V147.624C35.63 148.445 35.5507 149.15 35.392 149.738C35.2333 150.317 35.0047 150.793 34.706 151.166C34.4167 151.53 34.062 151.801 33.642 151.978C33.2313 152.146 32.774 152.23 32.27 152.23ZM32.27 150.97C32.578 150.97 32.8533 150.919 33.096 150.816C33.348 150.704 33.558 150.522 33.726 150.27C33.894 150.009 34.0247 149.663 34.118 149.234C34.2113 148.805 34.258 148.268 34.258 147.624V146.812C34.258 146.168 34.2113 145.636 34.118 145.216C34.0247 144.787 33.8893 144.441 33.712 144.18C33.544 143.919 33.334 143.737 33.082 143.634C32.8393 143.522 32.5687 143.466 32.27 143.466C31.962 143.466 31.682 143.522 31.43 143.634C31.1873 143.737 30.982 143.919 30.814 144.18C30.646 144.432 30.5153 144.773 30.422 145.202C30.3287 145.631 30.282 146.168 30.282 146.812V147.624C30.282 148.268 30.3287 148.805 30.422 149.234C30.5153 149.654 30.646 149.995 30.814 150.256C30.9913 150.517 31.2013 150.704 31.444 150.816C31.696 150.919 31.9713 150.97 32.27 150.97Z" fill="black" fill-opacity="0.6"/>
<mask id="path-3-inside-1_22_1115" fill="white">
<path d="M110.328 128.843C111.981 131.378 115.391 132.109 117.793 130.269C128.594 121.992 136.86 110.798 141.58 97.9555C146.932 83.394 147.437 67.4935 143.021 52.6216C138.605 37.7497 129.503 24.702 117.071 15.4215C104.639 6.14099 89.5426 1.12409 74.0289 1.11786C58.5151 1.11164 43.4143 6.11644 30.9751 15.387C18.5358 24.6575 9.42367 37.6979 4.99543 52.5662C0.567193 67.4346 1.05978 83.3355 6.39984 97.9013C11.1094 110.747 19.3671 121.949 30.1615 130.233C32.562 132.076 35.9723 131.347 37.627 128.814C39.2816 126.28 38.5508 122.903 36.1757 121.028C27.3465 114.058 20.5852 104.757 16.6887 94.1292C12.1614 81.7804 11.7438 68.2996 15.498 55.6942C19.2523 43.0889 26.9776 32.0333 37.5235 24.1737C48.0695 16.3142 60.8719 12.0711 74.0245 12.0764C87.177 12.0816 99.9761 16.335 110.516 24.203C121.055 32.071 128.772 43.1328 132.516 55.7411C136.26 68.3495 135.832 81.83 131.294 94.1752C127.389 104.8 120.621 114.095 111.786 121.058C109.409 122.932 108.676 126.308 110.328 128.843Z"/>
</mask>
<path d="M110.328 128.843C111.981 131.378 115.391 132.109 117.793 130.269C128.594 121.992 136.86 110.798 141.58 97.9555C146.932 83.394 147.437 67.4935 143.021 52.6216C138.605 37.7497 129.503 24.702 117.071 15.4215C104.639 6.14099 89.5426 1.12409 74.0289 1.11786C58.5151 1.11164 43.4143 6.11644 30.9751 15.387C18.5358 24.6575 9.42367 37.6979 4.99543 52.5662C0.567193 67.4346 1.05978 83.3355 6.39984 97.9013C11.1094 110.747 19.3671 121.949 30.1615 130.233C32.562 132.076 35.9723 131.347 37.627 128.814C39.2816 126.28 38.5508 122.903 36.1757 121.028C27.3465 114.058 20.5852 104.757 16.6887 94.1292C12.1614 81.7804 11.7438 68.2996 15.498 55.6942C19.2523 43.0889 26.9776 32.0333 37.5235 24.1737C48.0695 16.3142 60.8719 12.0711 74.0245 12.0764C87.177 12.0816 99.9761 16.335 110.516 24.203C121.055 32.071 128.772 43.1328 132.516 55.7411C136.26 68.3495 135.832 81.83 131.294 94.1752C127.389 104.8 120.621 114.095 111.786 121.058C109.409 122.932 108.676 126.308 110.328 128.843Z" fill="#D9D9D9" stroke="#EFEFEF" stroke-width="28" mask="url(#path-3-inside-1_22_1115)"/>
<mask id="path-4-inside-2_22_1115" fill="white">
<path d="M110.529 121.854C120.843 114.141 128.452 103.362 132.265 91.061C136.078 78.7596 135.9 65.5669 131.756 53.3729C127.612 41.1789 119.715 30.6093 109.197 23.1783C98.6778 15.7473 86.0769 11.8362 73.1992 12.0053C60.3214 12.1743 47.8276 16.4149 37.5075 24.1195C27.1875 31.8241 19.5707 42.5974 15.7484 54.896C11.9262 67.1946 12.0945 80.3874 16.2293 92.5844C20.3642 104.781 28.2533 115.357 38.7666 122.796L44.9571 114.047C36.291 107.915 29.788 99.1975 26.3797 89.1434C22.9713 79.0894 22.8325 68.2146 25.9832 58.0769C29.1339 47.9392 35.4124 39.0588 43.9193 32.7078C52.4261 26.3569 62.7248 22.8614 73.3399 22.722C83.955 22.5827 94.3419 25.8066 103.013 31.932C111.683 38.0574 118.193 46.7699 121.608 56.8214C125.024 66.8729 125.171 77.7476 122.028 87.8876C118.885 98.0277 112.613 106.913 104.11 113.27L110.529 121.854Z"/>
</mask>
<path d="M110.529 121.854C120.843 114.141 128.452 103.362 132.265 91.061C136.078 78.7596 135.9 65.5669 131.756 53.3729C127.612 41.1789 119.715 30.6093 109.197 23.1783C98.6778 15.7473 86.0769 11.8362 73.1992 12.0053C60.3214 12.1743 47.8276 16.4149 37.5075 24.1195C27.1875 31.8241 19.5707 42.5974 15.7484 54.896C11.9262 67.1946 12.0945 80.3874 16.2293 92.5844C20.3642 104.781 28.2533 115.357 38.7666 122.796L44.9571 114.047C36.291 107.915 29.788 99.1975 26.3797 89.1434C22.9713 79.0894 22.8325 68.2146 25.9832 58.0769C29.1339 47.9392 35.4124 39.0588 43.9193 32.7078C52.4261 26.3569 62.7248 22.8614 73.3399 22.722C83.955 22.5827 94.3419 25.8066 103.013 31.932C111.683 38.0574 118.193 46.7699 121.608 56.8214C125.024 66.8729 125.171 77.7476 122.028 87.8876C118.885 98.0277 112.613 106.913 104.11 113.27L110.529 121.854Z" stroke="#E0E0E0" stroke-width="18" stroke-dasharray="1 20" mask="url(#path-4-inside-2_22_1115)"/>
<mask id="path-5-inside-3_22_1115" fill="white">
<path d="M9.78166 55.4318C6.91123 54.6413 3.92223 56.3252 3.34859 59.2467C0.768301 72.3884 1.89864 86.0287 6.66735 98.6195C11.4361 111.21 19.6254 122.177 30.2641 130.312C32.6292 132.121 35.9838 131.402 37.6103 128.908C39.2369 126.415 38.5164 123.092 36.1754 121.253C27.4402 114.389 20.709 105.253 16.7502 94.8007C12.7915 84.3484 11.7817 73.0455 13.7781 62.1171C14.3131 59.1883 12.6521 56.2223 9.78166 55.4318Z"/>
</mask>
<path d="M9.78166 55.4318C6.91123 54.6413 3.92223 56.3252 3.34859 59.2467C0.768301 72.3884 1.89864 86.0287 6.66735 98.6195C11.4361 111.21 19.6254 122.177 30.2641 130.312C32.6292 132.121 35.9838 131.402 37.6103 128.908C39.2369 126.415 38.5164 123.092 36.1754 121.253C27.4402 114.389 20.709 105.253 16.7502 94.8007C12.7915 84.3484 11.7817 73.0455 13.7781 62.1171C14.3131 59.1883 12.6521 56.2223 9.78166 55.4318Z" fill="#D9D9D9" stroke="#875BE4" stroke-width="28" mask="url(#path-5-inside-3_22_1115)"/>
<g filter="url(#filter0_di_22_1115)">
<circle cx="8.5" cy="60.5" r="8.5" fill="#9060F3"/>
</g>
<path d="M54.525 76.5279L57.915 73.2729C58.245 72.9529 58.525 72.6729 58.755 72.4329C58.985 72.1929 59.165 71.9729 59.295 71.7729C59.435 71.5729 59.535 71.3879 59.595 71.2179C59.655 71.0479 59.685 70.8729 59.685 70.6929C59.685 70.2229 59.54 69.8479 59.25 69.5679C58.96 69.2879 58.56 69.1479 58.05 69.1479C57.54 69.1479 57.14 69.2979 56.85 69.5979C56.56 69.8879 56.415 70.3029 56.415 70.8429H54.525C54.525 70.3329 54.605 69.8679 54.765 69.4479C54.925 69.0279 55.155 68.6729 55.455 68.3829C55.765 68.0929 56.135 67.8679 56.565 67.7079C57.005 67.5479 57.5 67.4679 58.05 67.4679C58.6 67.4679 59.09 67.5479 59.52 67.7079C59.96 67.8579 60.33 68.0779 60.63 68.3679C60.94 68.6479 61.175 68.9879 61.335 69.3879C61.495 69.7779 61.575 70.2129 61.575 70.6929C61.575 71.2829 61.385 71.8629 61.005 72.4329C60.625 73.0029 60.035 73.6529 59.235 74.3829L56.88 76.5279H61.575V78.1179H54.525V76.5279ZM66.5221 78.2679C65.3421 78.2679 64.4271 77.9529 63.7771 77.3229C63.1271 76.6829 62.7921 75.7729 62.7721 74.5929H64.6621C64.6821 75.2829 64.8471 75.7879 65.1571 76.1079C65.4671 76.4279 65.9221 76.5879 66.5221 76.5879C67.1421 76.5879 67.6071 76.4479 67.9171 76.1679C68.2271 75.8779 68.3821 75.4879 68.3821 74.9979C68.3821 74.5679 68.2321 74.2129 67.9321 73.9329C67.6421 73.6529 67.2071 73.5129 66.6271 73.5129H65.2471V71.9229H66.6271C67.1071 71.9229 67.4821 71.7979 67.7521 71.5479C68.0221 71.2979 68.1571 70.9729 68.1571 70.5729C68.1571 70.1429 68.0171 69.7979 67.7371 69.5379C67.4671 69.2779 67.0621 69.1479 66.5221 69.1479C65.5221 69.1479 64.9771 69.7129 64.8871 70.8429H62.9971C63.0171 69.7829 63.3321 68.9579 63.9421 68.3679C64.5621 67.7679 65.4221 67.4679 66.5221 67.4679C67.1021 67.4679 67.6121 67.5429 68.0521 67.6929C68.4921 67.8329 68.8571 68.0379 69.1471 68.3079C69.4471 68.5679 69.6721 68.8829 69.8221 69.2529C69.9721 69.6129 70.0471 70.0129 70.0471 70.4529C70.0471 70.9329 69.9421 71.3679 69.7321 71.7579C69.5221 72.1479 69.1971 72.4629 68.7571 72.7029C69.2671 72.9529 69.6471 73.2879 69.8971 73.7079C70.1471 74.1279 70.2721 74.6029 70.2721 75.1329C70.2721 75.6029 70.1921 76.0279 70.0321 76.4079C69.8721 76.7879 69.6321 77.1179 69.3121 77.3979C69.0021 77.6779 68.6121 77.8929 68.1421 78.0429C67.6821 78.1929 67.1421 78.2679 66.5221 78.2679ZM73.1982 78.2679C72.8482 78.2679 72.5582 78.1529 72.3282 77.9229C72.1082 77.6929 71.9982 77.4079 71.9982 77.0679C71.9982 76.7279 72.1082 76.4429 72.3282 76.2129C72.5582 75.9829 72.8482 75.8679 73.1982 75.8679C73.5482 75.8679 73.8332 75.9829 74.0532 76.2129C74.2832 76.4429 74.3982 76.7279 74.3982 77.0679C74.3982 77.4079 74.2832 77.6929 74.0532 77.9229C73.8332 78.1529 73.5482 78.2679 73.1982 78.2679ZM79.7203 78.2679C78.5403 78.2679 77.6253 77.9529 76.9753 77.3229C76.3253 76.6829 75.9903 75.7729 75.9703 74.5929H77.8603C77.8803 75.2829 78.0453 75.7879 78.3553 76.1079C78.6653 76.4279 79.1203 76.5879 79.7203 76.5879C80.3403 76.5879 80.8053 76.4479 81.1153 76.1679C81.4253 75.8779 81.5803 75.4879 81.5803 74.9979C81.5803 74.5679 81.4303 74.2129 81.1303 73.9329C80.8403 73.6529 80.4053 73.5129 79.8253 73.5129H78.4453V71.9229H79.8253C80.3053 71.9229 80.6803 71.7979 80.9503 71.5479C81.2203 71.2979 81.3553 70.9729 81.3553 70.5729C81.3553 70.1429 81.2153 69.7979 80.9353 69.5379C80.6653 69.2779 80.2603 69.1479 79.7203 69.1479C78.7203 69.1479 78.1753 69.7129 78.0853 70.8429H76.1953C76.2153 69.7829 76.5303 68.9579 77.1403 68.3679C77.7603 67.7679 78.6203 67.4679 79.7203 67.4679C80.3003 67.4679 80.8103 67.5429 81.2503 67.6929C81.6903 67.8329 82.0553 68.0379 82.3453 68.3079C82.6453 68.5679 82.8703 68.8829 83.0203 69.2529C83.1703 69.6129 83.2453 70.0129 83.2453 70.4529C83.2453 70.9329 83.1403 71.3679 82.9303 71.7579C82.7203 72.1479 82.3953 72.4629 81.9553 72.7029C82.4653 72.9529 82.8453 73.2879 83.0953 73.7079C83.3453 74.1279 83.4703 74.6029 83.4703 75.1329C83.4703 75.6029 83.3903 76.0279 83.2303 76.4079C83.0703 76.7879 82.8303 77.1179 82.5103 77.3979C82.2003 77.6779 81.8103 77.8929 81.3403 78.0429C80.8803 78.1929 80.3403 78.2679 79.7203 78.2679ZM84.3715 74.3229L88.7515 67.6179H91.1215V74.3229H92.3215V75.9129H91.1215V78.1179H89.3215V75.9129H84.3715V74.3229ZM89.3215 74.3229V69.6129L86.3065 74.3229H89.3215Z" fill="#875BE4"/>
<defs>
<filter id="filter0_di_22_1115" x="0" y="51" width="17" height="24" filterUnits="userSpaceOnUse" color-interpolation-filters="sRGB">
<feFlood flood-opacity="0" result="BackgroundImageFix"/>
<feColorMatrix in="SourceAlpha" type="matrix" values="0 0 0 0 0 0 0 0 0 0 0 0 0 0 0 0 0 0 127 0" result="hardAlpha"/>
<feMorphology radius="4" operator="erode" in="SourceAlpha" result="effect1_dropShadow_22_1115"/>
<feOffset dy="6"/>
<feGaussianBlur stdDeviation="2"/>
<feComposite in2="hardAlpha" operator="out"/>
<feColorMatrix type="matrix" values="0 0 0 0 0.172537 0 0 0 0 0.11026 0 0 0 0 0.304167 0 0 0 0.46 0"/>
<feBlend mode="normal" in2="BackgroundImageFix" result="effect1_dropShadow_22_1115"/>
<feBlend mode="normal" in="SourceGraphic" in2="effect1_dropShadow_22_1115" result="shape"/>
<feColorMatrix in="SourceAlpha" type="matrix" values="0 0 0 0 0 0 0 0 0 0 0 0 0 0 0 0 0 0 127 0" result="hardAlpha"/>
<feOffset dy="-1"/>
<feGaussianBlur stdDeviation="2"/>
<feComposite in2="hardAlpha" operator="arithmetic" k2="-1" k3="1"/>
<feColorMatrix type="matrix" values="0 0 0 0 1 0 0 0 0 1 0 0 0 0 1 0 0 0 0.25 0"/>
<feBlend mode="normal" in2="shape" result="effect2_innerShadow_22_1115"/>
</filter>
</defs>
</svg>
