<svg width="148" height="160" viewBox="0 0 148 160" fill="none" xmlns="http://www.w3.org/2000/svg">
<path d="M32.27 153.23C31.7567 153.23 31.29 153.146 30.87 152.978C30.4593 152.81 30.1093 152.544 29.82 152.18C29.5307 151.807 29.3067 151.331 29.148 150.752C28.9893 150.164 28.91 149.455 28.91 148.624V147.812C28.91 146.991 28.9893 146.291 29.148 145.712C29.3067 145.124 29.5307 144.648 29.82 144.284C30.1187 143.911 30.4733 143.64 30.884 143.472C31.304 143.295 31.766 143.206 32.27 143.206C32.7833 143.206 33.2453 143.29 33.656 143.458C34.076 143.626 34.4307 143.897 34.72 144.27C35.0093 144.634 35.2333 145.11 35.392 145.698C35.5507 146.277 35.63 146.981 35.63 147.812V148.624C35.63 149.445 35.5507 150.15 35.392 150.738C35.2333 151.317 35.0047 151.793 34.706 152.166C34.4167 152.53 34.062 152.801 33.642 152.978C33.2313 153.146 32.774 153.23 32.27 153.23ZM32.27 151.97C32.578 151.97 32.8533 151.919 33.096 151.816C33.348 151.704 33.558 151.522 33.726 151.27C33.894 151.009 34.0247 150.663 34.118 150.234C34.2113 149.805 34.258 149.268 34.258 148.624V147.812C34.258 147.168 34.2113 146.636 34.118 146.216C34.0247 145.787 33.8893 145.441 33.712 145.18C33.544 144.919 33.334 144.737 33.082 144.634C32.8393 144.522 32.5687 144.466 32.27 144.466C31.962 144.466 31.682 144.522 31.43 144.634C31.1873 144.737 30.982 144.919 30.814 145.18C30.646 145.432 30.5153 145.773 30.422 146.202C30.3287 146.631 30.282 147.168 30.282 147.812V148.624C30.282 149.268 30.3287 149.805 30.422 150.234C30.5153 150.654 30.646 150.995 30.814 151.256C30.9913 151.517 31.2013 151.704 31.444 151.816C31.696 151.919 31.9713 151.97 32.27 151.97Z" fill="black" fill-opacity="0.6"/>
<path d="M107.324 144.774L105.28 146.16V144.732L107.324 143.318H108.64V153.118H107.324V144.774ZM114.165 153.23C113.651 153.23 113.185 153.146 112.765 152.978C112.354 152.81 112.004 152.544 111.715 152.18C111.425 151.807 111.201 151.331 111.043 150.752C110.884 150.164 110.805 149.455 110.805 148.624V147.812C110.805 146.991 110.884 146.291 111.043 145.712C111.201 145.124 111.425 144.648 111.715 144.284C112.013 143.911 112.368 143.64 112.779 143.472C113.199 143.295 113.661 143.206 114.165 143.206C114.678 143.206 115.14 143.29 115.551 143.458C115.971 143.626 116.325 143.897 116.615 144.27C116.904 144.634 117.128 145.11 117.287 145.698C117.445 146.277 117.525 146.981 117.525 147.812V148.624C117.525 149.445 117.445 150.15 117.287 150.738C117.128 151.317 116.899 151.793 116.601 152.166C116.311 152.53 115.957 152.801 115.537 152.978C115.126 153.146 114.669 153.23 114.165 153.23ZM114.165 151.97C114.473 151.97 114.748 151.919 114.991 151.816C115.243 151.704 115.453 151.522 115.621 151.27C115.789 151.009 115.919 150.663 116.013 150.234C116.106 149.805 116.153 149.268 116.153 148.624V147.812C116.153 147.168 116.106 146.636 116.013 146.216C115.919 145.787 115.784 145.441 115.607 145.18C115.439 144.919 115.229 144.737 114.977 144.634C114.734 144.522 114.463 144.466 114.165 144.466C113.857 144.466 113.577 144.522 113.325 144.634C113.082 144.737 112.877 144.919 112.709 145.18C112.541 145.432 112.41 145.773 112.317 146.202C112.223 146.631 112.177 147.168 112.177 147.812V148.624C112.177 149.268 112.223 149.805 112.317 150.234C112.41 150.654 112.541 150.995 112.709 151.256C112.886 151.517 113.096 151.704 113.339 151.816C113.591 151.919 113.866 151.97 114.165 151.97ZM122.709 153.23C122.196 153.23 121.729 153.146 121.309 152.978C120.899 152.81 120.549 152.544 120.259 152.18C119.97 151.807 119.746 151.331 119.587 150.752C119.429 150.164 119.349 149.455 119.349 148.624V147.812C119.349 146.991 119.429 146.291 119.587 145.712C119.746 145.124 119.97 144.648 120.259 144.284C120.558 143.911 120.913 143.64 121.323 143.472C121.743 143.295 122.205 143.206 122.709 143.206C123.223 143.206 123.685 143.29 124.095 143.458C124.515 143.626 124.87 143.897 125.159 144.27C125.449 144.634 125.673 145.11 125.831 145.698C125.99 146.277 126.069 146.981 126.069 147.812V148.624C126.069 149.445 125.99 150.15 125.831 150.738C125.673 151.317 125.444 151.793 125.145 152.166C124.856 152.53 124.501 152.801 124.081 152.978C123.671 153.146 123.213 153.23 122.709 153.23ZM122.709 151.97C123.017 151.97 123.293 151.919 123.535 151.816C123.787 151.704 123.997 151.522 124.165 151.27C124.333 151.009 124.464 150.663 124.557 150.234C124.651 149.805 124.697 149.268 124.697 148.624V147.812C124.697 147.168 124.651 146.636 124.557 146.216C124.464 145.787 124.329 145.441 124.151 145.18C123.983 144.919 123.773 144.737 123.521 144.634C123.279 144.522 123.008 144.466 122.709 144.466C122.401 144.466 122.121 144.522 121.869 144.634C121.627 144.737 121.421 144.919 121.253 145.18C121.085 145.432 120.955 145.773 120.861 146.202C120.768 146.631 120.721 147.168 120.721 147.812V148.624C120.721 149.268 120.768 149.805 120.861 150.234C120.955 150.654 121.085 150.995 121.253 151.256C121.431 151.517 121.641 151.704 121.883 151.816C122.135 151.919 122.411 151.97 122.709 151.97Z" fill="black" fill-opacity="0.6"/>
<mask id="path-3-inside-1_39_25" fill="white">
<path d="M110.328 129.843C111.981 132.378 115.391 133.109 117.793 131.269C128.594 122.992 136.86 111.798 141.58 98.9555C146.932 84.394 147.437 68.4935 143.021 53.6216C138.605 38.7497 129.503 25.702 117.071 16.4215C104.639 7.14099 89.5426 2.12409 74.0289 2.11786C58.5151 2.11164 43.4143 7.11644 30.9751 16.387C18.5358 25.6575 9.42367 38.6979 4.99543 53.5662C0.567193 68.4346 1.05978 84.3355 6.39984 98.9013C11.1094 111.747 19.3671 122.949 30.1615 131.233C32.562 133.076 35.9723 132.347 37.627 129.814C39.2816 127.28 38.5508 123.903 36.1757 122.028C27.3465 115.058 20.5852 105.757 16.6887 95.1292C12.1614 82.7804 11.7438 69.2996 15.498 56.6942C19.2523 44.0889 26.9776 33.0333 37.5235 25.1737C48.0695 17.3142 60.8719 13.0711 74.0245 13.0764C87.177 13.0816 99.9761 17.335 110.516 25.203C121.055 33.071 128.772 44.1328 132.516 56.7411C136.26 69.3495 135.832 82.83 131.294 95.1752C127.389 105.8 120.621 115.095 111.786 122.058C109.409 123.932 108.676 127.308 110.328 129.843Z"/>
</mask>
<path d="M110.328 129.843C111.981 132.378 115.391 133.109 117.793 131.269C128.594 122.992 136.86 111.798 141.58 98.9555C146.932 84.394 147.437 68.4935 143.021 53.6216C138.605 38.7497 129.503 25.702 117.071 16.4215C104.639 7.14099 89.5426 2.12409 74.0289 2.11786C58.5151 2.11164 43.4143 7.11644 30.9751 16.387C18.5358 25.6575 9.42367 38.6979 4.99543 53.5662C0.567193 68.4346 1.05978 84.3355 6.39984 98.9013C11.1094 111.747 19.3671 122.949 30.1615 131.233C32.562 133.076 35.9723 132.347 37.627 129.814C39.2816 127.28 38.5508 123.903 36.1757 122.028C27.3465 115.058 20.5852 105.757 16.6887 95.1292C12.1614 82.7804 11.7438 69.2996 15.498 56.6942C19.2523 44.0889 26.9776 33.0333 37.5235 25.1737C48.0695 17.3142 60.8719 13.0711 74.0245 13.0764C87.177 13.0816 99.9761 17.335 110.516 25.203C121.055 33.071 128.772 44.1328 132.516 56.7411C136.26 69.3495 135.832 82.83 131.294 95.1752C127.389 105.8 120.621 115.095 111.786 122.058C109.409 123.932 108.676 127.308 110.328 129.843Z" fill="#D9D9D9" stroke="#EFEFEF" stroke-width="28" mask="url(#path-3-inside-1_39_25)"/>
<mask id="path-4-inside-2_39_25" fill="white">
<path d="M110.529 122.854C120.843 115.141 128.452 104.362 132.265 92.061C136.078 79.7596 135.9 66.5669 131.756 54.3729C127.612 42.1789 119.715 31.6093 109.197 24.1783C98.6778 16.7473 86.0769 12.8362 73.1992 13.0053C60.3214 13.1743 47.8276 17.4149 37.5075 25.1195C27.1875 32.8241 19.5707 43.5974 15.7484 55.896C11.9262 68.1946 12.0945 81.3874 16.2293 93.5844C20.3642 105.781 28.2533 116.357 38.7666 123.796L44.9571 115.047C36.291 108.915 29.788 100.197 26.3797 90.1434C22.9713 80.0894 22.8325 69.2146 25.9832 59.0769C29.1339 48.9392 35.4124 40.0588 43.9193 33.7078C52.4261 27.3569 62.7248 23.8614 73.3399 23.722C83.955 23.5827 94.3419 26.8066 103.013 32.932C111.683 39.0574 118.193 47.7699 121.608 57.8214C125.024 67.8729 125.171 78.7476 122.028 88.8876C118.885 99.0277 112.613 107.913 104.11 114.27L110.529 122.854Z"/>
</mask>
<path d="M110.529 122.854C120.843 115.141 128.452 104.362 132.265 92.061C136.078 79.7596 135.9 66.5669 131.756 54.3729C127.612 42.1789 119.715 31.6093 109.197 24.1783C98.6778 16.7473 86.0769 12.8362 73.1992 13.0053C60.3214 13.1743 47.8276 17.4149 37.5075 25.1195C27.1875 32.8241 19.5707 43.5974 15.7484 55.896C11.9262 68.1946 12.0945 81.3874 16.2293 93.5844C20.3642 105.781 28.2533 116.357 38.7666 123.796L44.9571 115.047C36.291 108.915 29.788 100.197 26.3797 90.1434C22.9713 80.0894 22.8325 69.2146 25.9832 59.0769C29.1339 48.9392 35.4124 40.0588 43.9193 33.7078C52.4261 27.3569 62.7248 23.8614 73.3399 23.722C83.955 23.5827 94.3419 26.8066 103.013 32.932C111.683 39.0574 118.193 47.7699 121.608 57.8214C125.024 67.8729 125.171 78.7476 122.028 88.8876C118.885 99.0277 112.613 107.913 104.11 114.27L110.529 122.854Z" stroke="#E0E0E0" stroke-width="18" stroke-dasharray="1 20" mask="url(#path-4-inside-2_39_25)"/>
<mask id="path-5-inside-3_39_25" fill="white">
<path d="M87.4089 8.87242C88.0082 5.95605 86.1306 3.08469 83.1775 2.70512C68.4387 0.810653 53.4244 3.51977 40.2233 10.5322C25.4302 18.3902 13.8399 31.1602 7.44797 46.6434C1.05609 62.1266 0.262693 79.3539 5.20439 95.359C9.61427 109.642 18.345 122.153 30.128 131.208C32.4888 133.022 35.8452 132.311 37.4777 129.822C39.1101 127.332 38.3976 124.008 36.061 122.163C26.3646 114.506 19.176 104.063 15.5063 92.1782C11.3046 78.5698 11.9792 63.9222 17.4139 50.7576C22.8486 37.593 32.7034 26.7353 45.2812 20.0539C56.2664 14.2186 68.7283 11.888 81.002 13.3014C83.9598 13.642 86.8095 11.7888 87.4089 8.87242Z"/>
</mask>
<path d="M87.4089 8.87242C88.0082 5.95605 86.1306 3.08469 83.1775 2.70512C68.4387 0.810653 53.4244 3.51977 40.2233 10.5322C25.4302 18.3902 13.8399 31.1602 7.44797 46.6434C1.05609 62.1266 0.262693 79.3539 5.20439 95.359C9.61427 109.642 18.345 122.153 30.128 131.208C32.4888 133.022 35.8452 132.311 37.4777 129.822C39.1101 127.332 38.3976 124.008 36.061 122.163C26.3646 114.506 19.176 104.063 15.5063 92.1782C11.3046 78.5698 11.9792 63.9222 17.4139 50.7576C22.8486 37.593 32.7034 26.7353 45.2812 20.0539C56.2664 14.2186 68.7283 11.888 81.002 13.3014C83.9598 13.642 86.8095 11.7888 87.4089 8.87242Z" fill="#D9D9D9" stroke="#41A2E2" stroke-width="28" mask="url(#path-5-inside-3_39_25)"/>
<g filter="url(#filter0_di_39_25)">
<circle cx="79.5" cy="8.5" r="8.5" fill="#41A2E2"/>
</g>
<path d="M58.275 79.2679C57.795 79.2679 57.345 79.2079 56.925 79.0879C56.505 78.9579 56.13 78.7729 55.8 78.5329C55.48 78.2929 55.21 77.9979 54.99 77.6479C54.77 77.2979 54.615 76.8979 54.525 76.4479H56.415C56.565 76.8279 56.8 77.1129 57.12 77.3029C57.45 77.4929 57.835 77.5879 58.275 77.5879C58.845 77.5879 59.295 77.4179 59.625 77.0779C59.965 76.7279 60.135 76.2379 60.135 75.6079C60.135 74.9779 59.965 74.4929 59.625 74.1529C59.295 73.8129 58.845 73.6429 58.275 73.6429C57.885 73.6429 57.54 73.7229 57.24 73.8829C56.95 74.0429 56.725 74.2429 56.565 74.4829H54.825L55.275 68.6179H61.35V70.2079H56.895L56.7 72.5329C57.22 72.1529 57.845 71.9629 58.575 71.9629C59.085 71.9629 59.55 72.0479 59.97 72.2179C60.4 72.3879 60.765 72.6329 61.065 72.9529C61.365 73.2729 61.6 73.6579 61.77 74.1079C61.94 74.5579 62.025 75.0579 62.025 75.6079C62.025 76.1679 61.94 76.6729 61.77 77.1229C61.6 77.5729 61.35 77.9579 61.02 78.2779C60.7 78.5879 60.305 78.8329 59.835 79.0129C59.375 79.1829 58.855 79.2679 58.275 79.2679ZM67.0564 79.2679C66.4764 79.2679 65.9514 79.1779 65.4814 78.9979C65.0214 78.8079 64.6314 78.5129 64.3114 78.1129C63.9914 77.7129 63.7414 77.1979 63.5614 76.5679C63.3914 75.9279 63.3064 75.1579 63.3064 74.2579V73.4779C63.3064 72.5879 63.3914 71.8279 63.5614 71.1979C63.7414 70.5579 63.9914 70.0379 64.3114 69.6379C64.6414 69.2279 65.0364 68.9329 65.4964 68.7529C65.9564 68.5629 66.4764 68.4679 67.0564 68.4679C67.6364 68.4679 68.1564 68.5629 68.6164 68.7529C69.0864 68.9329 69.4814 69.2229 69.8014 69.6229C70.1314 70.0229 70.3814 70.5429 70.5514 71.1829C70.7214 71.8129 70.8064 72.5779 70.8064 73.4779V74.2579C70.8064 75.1479 70.7164 75.9129 70.5364 76.5529C70.3664 77.1829 70.1164 77.7029 69.7864 78.1129C69.4664 78.5129 69.0764 78.8079 68.6164 78.9979C68.1564 79.1779 67.6364 79.2679 67.0564 79.2679ZM67.0564 77.5879C67.3464 77.5879 67.6064 77.5379 67.8364 77.4379C68.0664 77.3379 68.2614 77.1629 68.4214 76.9129C68.5814 76.6629 68.7014 76.3229 68.7814 75.8929C68.8714 75.4629 68.9164 74.9179 68.9164 74.2579V73.4779C68.9164 72.8279 68.8714 72.2879 68.7814 71.8579C68.6914 71.4279 68.5664 71.0879 68.4064 70.8379C68.2464 70.5779 68.0514 70.3979 67.8214 70.2979C67.5914 70.1979 67.3364 70.1479 67.0564 70.1479C66.7664 70.1479 66.5064 70.1979 66.2764 70.2979C66.0464 70.3979 65.8514 70.5729 65.6914 70.8229C65.5314 71.0729 65.4064 71.4129 65.3164 71.8429C65.2364 72.2729 65.1964 72.8179 65.1964 73.4779V74.2579C65.1964 74.9079 65.2364 75.4479 65.3164 75.8779C65.4064 76.3079 65.5314 76.6529 65.6914 76.9129C65.8614 77.1629 66.0564 77.3379 66.2764 77.4379C66.5064 77.5379 66.7664 77.5879 67.0564 77.5879ZM73.8867 79.2679C73.5367 79.2679 73.2467 79.1529 73.0167 78.9229C72.7967 78.6929 72.6867 78.4079 72.6867 78.0679C72.6867 77.7279 72.7967 77.4429 73.0167 77.2129C73.2467 76.9829 73.5367 76.8679 73.8867 76.8679C74.2367 76.8679 74.5217 76.9829 74.7417 77.2129C74.9717 77.4429 75.0867 77.7279 75.0867 78.0679C75.0867 78.4079 74.9717 78.6929 74.7417 78.9229C74.5217 79.1529 74.2367 79.2679 73.8867 79.2679ZM80.5588 79.2679C79.9388 79.2679 79.3938 79.1929 78.9238 79.0429C78.4638 78.8929 78.0738 78.6829 77.7538 78.4129C77.4438 78.1429 77.2088 77.8229 77.0488 77.4529C76.8888 77.0729 76.8088 76.6579 76.8088 76.2079C76.8088 75.6079 76.9588 75.0979 77.2588 74.6779C77.5688 74.2579 77.9738 73.9179 78.4738 73.6579C78.0538 73.4179 77.7188 73.1079 77.4688 72.7279C77.2288 72.3479 77.1088 71.8879 77.1088 71.3479C77.1088 70.9379 77.1888 70.5579 77.3488 70.2079C77.5088 69.8579 77.7388 69.5529 78.0388 69.2929C78.3388 69.0329 78.6988 68.8329 79.1188 68.6929C79.5488 68.5429 80.0288 68.4679 80.5588 68.4679C81.0988 68.4679 81.5838 68.5429 82.0138 68.6929C82.4438 68.8329 82.8038 69.0329 83.0938 69.2929C83.3938 69.5429 83.6188 69.8429 83.7688 70.1929C83.9288 70.5429 84.0088 70.9279 84.0088 71.3479C84.0088 71.8779 83.8838 72.3329 83.6338 72.7129C83.3838 73.0929 83.0488 73.4029 82.6288 73.6429C83.1388 73.9029 83.5438 74.2479 83.8438 74.6779C84.1538 75.0979 84.3088 75.6079 84.3088 76.2079C84.3088 76.6379 84.2238 77.0429 84.0538 77.4229C83.8938 77.7929 83.6538 78.1179 83.3338 78.3979C83.0238 78.6679 82.6338 78.8829 82.1638 79.0429C81.7038 79.1929 81.1688 79.2679 80.5588 79.2679ZM80.5588 72.9529C80.7688 72.9229 80.9688 72.8729 81.1588 72.8029C81.3488 72.7329 81.5138 72.6379 81.6538 72.5179C81.7938 72.3979 81.9038 72.2529 81.9838 72.0829C82.0738 71.9029 82.1188 71.6829 82.1188 71.4229C82.1188 71.2629 82.0788 71.1079 81.9988 70.9579C81.9288 70.8079 81.8238 70.6729 81.6838 70.5529C81.5538 70.4329 81.3938 70.3379 81.2038 70.2679C81.0138 70.1879 80.7988 70.1479 80.5588 70.1479C80.3188 70.1479 80.0988 70.1879 79.8988 70.2679C79.7088 70.3379 79.5438 70.4329 79.4038 70.5529C79.2738 70.6729 79.1738 70.8079 79.1038 70.9579C79.0338 71.1079 78.9988 71.2629 78.9988 71.4229C78.9988 71.6629 79.0438 71.8729 79.1338 72.0529C79.2238 72.2329 79.3388 72.3829 79.4788 72.5029C79.6288 72.6229 79.7938 72.7229 79.9738 72.8029C80.1638 72.8729 80.3588 72.9229 80.5588 72.9529ZM80.5588 77.5879C80.8588 77.5879 81.1238 77.5479 81.3538 77.4679C81.5838 77.3879 81.7738 77.2829 81.9238 77.1529C82.0838 77.0129 82.2038 76.8579 82.2838 76.6879C82.3738 76.5179 82.4188 76.3379 82.4188 76.1479C82.4188 75.8879 82.3688 75.6579 82.2688 75.4579C82.1688 75.2479 82.0338 75.0679 81.8638 74.9179C81.6938 74.7679 81.4938 74.6479 81.2638 74.5579C81.0438 74.4679 80.8088 74.4079 80.5588 74.3779C80.0388 74.4379 79.5988 74.6129 79.2388 74.9029C78.8788 75.1929 78.6988 75.6079 78.6988 76.1479C78.6988 76.3379 78.7388 76.5229 78.8188 76.7029C78.9088 76.8729 79.0338 77.0229 79.1938 77.1529C79.3538 77.2829 79.5488 77.3879 79.7788 77.4679C80.0088 77.5479 80.2688 77.5879 80.5588 77.5879ZM85.2064 75.3229L89.5864 68.6179H91.9564V75.3229H93.1564V76.9129H91.9564V79.1179H90.1564V76.9129H85.2064V75.3229ZM90.1564 75.3229V70.6129L87.1414 75.3229H90.1564Z" fill="#41A2E2"/>
<defs>
<filter id="filter0_di_39_25" x="66" y="-1" width="22" height="18" filterUnits="userSpaceOnUse" color-interpolation-filters="sRGB">
<feFlood flood-opacity="0" result="BackgroundImageFix"/>
<feColorMatrix in="SourceAlpha" type="matrix" values="0 0 0 0 0 0 0 0 0 0 0 0 0 0 0 0 0 0 127 0" result="hardAlpha"/>
<feMorphology radius="4" operator="erode" in="SourceAlpha" result="effect1_dropShadow_39_25"/>
<feOffset dx="-5"/>
<feGaussianBlur stdDeviation="2"/>
<feComposite in2="hardAlpha" operator="out"/>
<feColorMatrix type="matrix" values="0 0 0 0 0.11026 0 0 0 0 0.211092 0 0 0 0 0.304167 0 0 0 0.31 0"/>
<feBlend mode="normal" in2="BackgroundImageFix" result="effect1_dropShadow_39_25"/>
<feBlend mode="normal" in="SourceGraphic" in2="effect1_dropShadow_39_25" result="shape"/>
<feColorMatrix in="SourceAlpha" type="matrix" values="0 0 0 0 0 0 0 0 0 0 0 0 0 0 0 0 0 0 127 0" result="hardAlpha"/>
<feOffset dy="-1"/>
<feGaussianBlur stdDeviation="2"/>
<feComposite in2="hardAlpha" operator="arithmetic" k2="-1" k3="1"/>
<feColorMatrix type="matrix" values="0 0 0 0 1 0 0 0 0 1 0 0 0 0 1 0 0 0 0.25 0"/>
<feBlend mode="normal" in2="shape" result="effect2_innerShadow_39_25"/>
</filter>
</defs>
</svg>
