<svg width="148" height="159" viewBox="0 0 148 159" fill="none" xmlns="http://www.w3.org/2000/svg">
<path d="M107.324 143.774L105.28 145.16V143.732L107.324 142.318H108.64V152.118H107.324V143.774ZM114.165 152.23C113.651 152.23 113.185 152.146 112.765 151.978C112.354 151.81 112.004 151.544 111.715 151.18C111.425 150.807 111.201 150.331 111.043 149.752C110.884 149.164 110.805 148.455 110.805 147.624V146.812C110.805 145.991 110.884 145.291 111.043 144.712C111.201 144.124 111.425 143.648 111.715 143.284C112.013 142.911 112.368 142.64 112.779 142.472C113.199 142.295 113.661 142.206 114.165 142.206C114.678 142.206 115.14 142.29 115.551 142.458C115.971 142.626 116.325 142.897 116.615 143.27C116.904 143.634 117.128 144.11 117.287 144.698C117.445 145.277 117.525 145.981 117.525 146.812V147.624C117.525 148.445 117.445 149.15 117.287 149.738C117.128 150.317 116.899 150.793 116.601 151.166C116.311 151.53 115.957 151.801 115.537 151.978C115.126 152.146 114.669 152.23 114.165 152.23ZM114.165 150.97C114.473 150.97 114.748 150.919 114.991 150.816C115.243 150.704 115.453 150.522 115.621 150.27C115.789 150.009 115.919 149.663 116.013 149.234C116.106 148.805 116.153 148.268 116.153 147.624V146.812C116.153 146.168 116.106 145.636 116.013 145.216C115.919 144.787 115.784 144.441 115.607 144.18C115.439 143.919 115.229 143.737 114.977 143.634C114.734 143.522 114.463 143.466 114.165 143.466C113.857 143.466 113.577 143.522 113.325 143.634C113.082 143.737 112.877 143.919 112.709 144.18C112.541 144.432 112.41 144.773 112.317 145.202C112.223 145.631 112.177 146.168 112.177 146.812V147.624C112.177 148.268 112.223 148.805 112.317 149.234C112.41 149.654 112.541 149.995 112.709 150.256C112.886 150.517 113.096 150.704 113.339 150.816C113.591 150.919 113.866 150.97 114.165 150.97ZM122.709 152.23C122.196 152.23 121.729 152.146 121.309 151.978C120.899 151.81 120.549 151.544 120.259 151.18C119.97 150.807 119.746 150.331 119.587 149.752C119.429 149.164 119.349 148.455 119.349 147.624V146.812C119.349 145.991 119.429 145.291 119.587 144.712C119.746 144.124 119.97 143.648 120.259 143.284C120.558 142.911 120.913 142.64 121.323 142.472C121.743 142.295 122.205 142.206 122.709 142.206C123.223 142.206 123.685 142.29 124.095 142.458C124.515 142.626 124.87 142.897 125.159 143.27C125.449 143.634 125.673 144.11 125.831 144.698C125.99 145.277 126.069 145.981 126.069 146.812V147.624C126.069 148.445 125.99 149.15 125.831 149.738C125.673 150.317 125.444 150.793 125.145 151.166C124.856 151.53 124.501 151.801 124.081 151.978C123.671 152.146 123.213 152.23 122.709 152.23ZM122.709 150.97C123.017 150.97 123.293 150.919 123.535 150.816C123.787 150.704 123.997 150.522 124.165 150.27C124.333 150.009 124.464 149.663 124.557 149.234C124.651 148.805 124.697 148.268 124.697 147.624V146.812C124.697 146.168 124.651 145.636 124.557 145.216C124.464 144.787 124.329 144.441 124.151 144.18C123.983 143.919 123.773 143.737 123.521 143.634C123.279 143.522 123.008 143.466 122.709 143.466C122.401 143.466 122.121 143.522 121.869 143.634C121.627 143.737 121.421 143.919 121.253 144.18C121.085 144.432 120.955 144.773 120.861 145.202C120.768 145.631 120.721 146.168 120.721 146.812V147.624C120.721 148.268 120.768 148.805 120.861 149.234C120.955 149.654 121.085 149.995 121.253 150.256C121.431 150.517 121.641 150.704 121.883 150.816C122.135 150.919 122.411 150.97 122.709 150.97Z" fill="black" fill-opacity="0.6"/>
<path d="M32.27 152.23C31.7567 152.23 31.29 152.146 30.87 151.978C30.4593 151.81 30.1093 151.544 29.82 151.18C29.5307 150.807 29.3067 150.331 29.148 149.752C28.9893 149.164 28.91 148.455 28.91 147.624V146.812C28.91 145.991 28.9893 145.291 29.148 144.712C29.3067 144.124 29.5307 143.648 29.82 143.284C30.1187 142.911 30.4733 142.64 30.884 142.472C31.304 142.295 31.766 142.206 32.27 142.206C32.7833 142.206 33.2453 142.29 33.656 142.458C34.076 142.626 34.4307 142.897 34.72 143.27C35.0093 143.634 35.2333 144.11 35.392 144.698C35.5507 145.277 35.63 145.981 35.63 146.812V147.624C35.63 148.445 35.5507 149.15 35.392 149.738C35.2333 150.317 35.0047 150.793 34.706 151.166C34.4167 151.53 34.062 151.801 33.642 151.978C33.2313 152.146 32.774 152.23 32.27 152.23ZM32.27 150.97C32.578 150.97 32.8533 150.919 33.096 150.816C33.348 150.704 33.558 150.522 33.726 150.27C33.894 150.009 34.0247 149.663 34.118 149.234C34.2113 148.805 34.258 148.268 34.258 147.624V146.812C34.258 146.168 34.2113 145.636 34.118 145.216C34.0247 144.787 33.8893 144.441 33.712 144.18C33.544 143.919 33.334 143.737 33.082 143.634C32.8393 143.522 32.5687 143.466 32.27 143.466C31.962 143.466 31.682 143.522 31.43 143.634C31.1873 143.737 30.982 143.919 30.814 144.18C30.646 144.432 30.5153 144.773 30.422 145.202C30.3287 145.631 30.282 146.168 30.282 146.812V147.624C30.282 148.268 30.3287 148.805 30.422 149.234C30.5153 149.654 30.646 149.995 30.814 150.256C30.9913 150.517 31.2013 150.704 31.444 150.816C31.696 150.919 31.9713 150.97 32.27 150.97Z" fill="black" fill-opacity="0.6"/>
<mask id="path-3-inside-1_26_1594" fill="white">
<path d="M110.328 128.843C111.981 131.378 115.391 132.109 117.793 130.269C128.594 121.992 136.86 110.798 141.58 97.9555C146.932 83.3941 147.437 67.4935 143.021 52.6216C138.605 37.7498 129.503 24.7021 117.071 15.4216C104.639 6.14105 89.5426 1.12415 74.0289 1.11793C58.5151 1.11171 43.4143 6.1165 30.9751 15.387C18.5358 24.6576 9.42367 37.698 4.99543 52.5663C0.567193 67.4346 1.05978 83.3356 6.39984 97.9013C11.1094 110.747 19.3671 121.949 30.1615 130.234C32.562 132.076 35.9723 131.347 37.627 128.814C39.2816 126.28 38.5508 122.903 36.1757 121.028C27.3465 114.058 20.5852 104.757 16.6887 94.1293C12.1614 81.7805 11.7438 68.2996 15.498 55.6943C19.2523 43.0889 26.9776 32.0333 37.5235 24.1738C48.0695 16.3142 60.8719 12.0712 74.0245 12.0764C87.177 12.0817 99.9761 16.335 110.516 24.203C121.055 32.071 128.772 43.1328 132.516 55.7412C136.26 68.3496 135.832 81.83 131.294 94.1752C127.389 104.8 120.621 114.095 111.786 121.058C109.409 122.932 108.676 126.308 110.328 128.843Z"/>
</mask>
<path d="M110.328 128.843C111.981 131.378 115.391 132.109 117.793 130.269C128.594 121.992 136.86 110.798 141.58 97.9555C146.932 83.3941 147.437 67.4935 143.021 52.6216C138.605 37.7498 129.503 24.7021 117.071 15.4216C104.639 6.14105 89.5426 1.12415 74.0289 1.11793C58.5151 1.11171 43.4143 6.1165 30.9751 15.387C18.5358 24.6576 9.42367 37.698 4.99543 52.5663C0.567193 67.4346 1.05978 83.3356 6.39984 97.9013C11.1094 110.747 19.3671 121.949 30.1615 130.234C32.562 132.076 35.9723 131.347 37.627 128.814C39.2816 126.28 38.5508 122.903 36.1757 121.028C27.3465 114.058 20.5852 104.757 16.6887 94.1293C12.1614 81.7805 11.7438 68.2996 15.498 55.6943C19.2523 43.0889 26.9776 32.0333 37.5235 24.1738C48.0695 16.3142 60.8719 12.0712 74.0245 12.0764C87.177 12.0817 99.9761 16.335 110.516 24.203C121.055 32.071 128.772 43.1328 132.516 55.7412C136.26 68.3496 135.832 81.83 131.294 94.1752C127.389 104.8 120.621 114.095 111.786 121.058C109.409 122.932 108.676 126.308 110.328 128.843Z" fill="#D9D9D9" stroke="#EFEFEF" stroke-width="28" mask="url(#path-3-inside-1_26_1594)"/>
<mask id="path-4-inside-2_26_1594" fill="white">
<path d="M110.529 121.854C120.843 114.141 128.452 103.362 132.265 91.061C136.078 78.7596 135.9 65.5669 131.756 53.3729C127.612 41.1789 119.715 30.6093 109.197 23.1783C98.6778 15.7473 86.0769 11.8362 73.1992 12.0053C60.3214 12.1743 47.8276 16.4149 37.5075 24.1195C27.1875 31.8241 19.5707 42.5974 15.7484 54.896C11.9262 67.1946 12.0945 80.3874 16.2293 92.5844C20.3642 104.781 28.2533 115.357 38.7666 122.796L44.9571 114.047C36.291 107.915 29.788 99.1975 26.3797 89.1434C22.9713 79.0894 22.8325 68.2146 25.9832 58.0769C29.1339 47.9392 35.4124 39.0588 43.9193 32.7078C52.4261 26.3569 62.7248 22.8614 73.3399 22.722C83.955 22.5827 94.3419 25.8066 103.013 31.932C111.683 38.0574 118.193 46.7699 121.608 56.8214C125.024 66.8729 125.171 77.7476 122.028 87.8876C118.885 98.0277 112.613 106.913 104.11 113.27L110.529 121.854Z"/>
</mask>
<path d="M110.529 121.854C120.843 114.141 128.452 103.362 132.265 91.061C136.078 78.7596 135.9 65.5669 131.756 53.3729C127.612 41.1789 119.715 30.6093 109.197 23.1783C98.6778 15.7473 86.0769 11.8362 73.1992 12.0053C60.3214 12.1743 47.8276 16.4149 37.5075 24.1195C27.1875 31.8241 19.5707 42.5974 15.7484 54.896C11.9262 67.1946 12.0945 80.3874 16.2293 92.5844C20.3642 104.781 28.2533 115.357 38.7666 122.796L44.9571 114.047C36.291 107.915 29.788 99.1975 26.3797 89.1434C22.9713 79.0894 22.8325 68.2146 25.9832 58.0769C29.1339 47.9392 35.4124 39.0588 43.9193 32.7078C52.4261 26.3569 62.7248 22.8614 73.3399 22.722C83.955 22.5827 94.3419 25.8066 103.013 31.932C111.683 38.0574 118.193 46.7699 121.608 56.8214C125.024 66.8729 125.171 77.7476 122.028 87.8876C118.885 98.0277 112.613 106.913 104.11 113.27L110.529 121.854Z" stroke="#E0E0E0" stroke-width="18" stroke-dasharray="1 20" mask="url(#path-4-inside-2_26_1594)"/>
<mask id="path-5-inside-3_26_1594" fill="white">
<path d="M110.381 128.914C112.007 131.408 115.362 132.127 117.727 130.319C128.568 122.032 136.863 110.807 141.59 97.9277C146.939 83.3563 147.435 67.4467 143.006 52.5703C138.576 37.6938 129.457 24.6472 117.009 15.3752C104.561 6.1032 89.4493 1.10228 73.9273 1.11792C58.4054 1.13354 43.3041 6.16489 30.8745 15.462C18.4449 24.759 9.35258 37.824 4.95284 52.7093C0.55311 67.5946 1.08157 83.5032 6.45946 98.0638C11.213 110.934 19.5302 122.141 30.388 130.407C32.757 132.21 36.1101 131.484 37.7312 128.987C39.3524 126.49 38.6247 123.169 36.2797 121.335C27.3603 114.357 20.5213 105.017 16.5734 94.3282C12.0009 81.948 11.5515 68.4217 15.2924 55.7654C19.0333 43.1091 26.7641 32.0006 37.3324 24.0958C47.9007 16.1909 60.7406 11.913 73.9382 11.8997C87.1358 11.8864 99.9843 16.1385 110.568 24.022C121.153 31.9056 128.906 42.9985 132.672 55.6472C136.439 68.2959 136.016 81.8232 131.469 94.2125C127.542 104.909 120.722 114.263 111.817 121.259C109.476 123.098 108.755 126.42 110.381 128.914Z"/>
</mask>
<path d="M110.381 128.914C112.007 131.408 115.362 132.127 117.727 130.319C128.568 122.032 136.863 110.807 141.59 97.9277C146.939 83.3563 147.435 67.4467 143.006 52.5703C138.576 37.6938 129.457 24.6472 117.009 15.3752C104.561 6.1032 89.4493 1.10228 73.9273 1.11792C58.4054 1.13354 43.3041 6.16489 30.8745 15.462C18.4449 24.759 9.35258 37.824 4.95284 52.7093C0.55311 67.5946 1.08157 83.5032 6.45946 98.0638C11.213 110.934 19.5302 122.141 30.388 130.407C32.757 132.21 36.1101 131.484 37.7312 128.987C39.3524 126.49 38.6247 123.169 36.2797 121.335C27.3603 114.357 20.5213 105.017 16.5734 94.3282C12.0009 81.948 11.5515 68.4217 15.2924 55.7654C19.0333 43.1091 26.7641 32.0006 37.3324 24.0958C47.9007 16.1909 60.7406 11.913 73.9382 11.8997C87.1358 11.8864 99.9843 16.1385 110.568 24.022C121.153 31.9056 128.906 42.9985 132.672 55.6472C136.439 68.2959 136.016 81.8232 131.469 94.2125C127.542 104.909 120.722 114.263 111.817 121.259C109.476 123.098 108.755 126.42 110.381 128.914Z" fill="#D9D9D9" stroke="#875BE4" stroke-width="28" mask="url(#path-5-inside-3_26_1594)"/>
<g filter="url(#filter0_di_26_1594)">
<circle cx="115.5" cy="125.5" r="8.5" fill="#9060F3"/>
</g>
<path d="M34.09 75.6H36.274L38.146 80.256H38.17L40.042 75.6H42.13V84H40.69V77.22H40.666L38.83 81.78H37.39L35.554 77.22H35.53V84H34.09V75.6ZM43.7448 78H45.1368V82.2H45.1608L47.3448 78H49.1448V84H47.7528V79.8H47.7288L45.5448 84H43.7448V78ZM50.7058 78H52.0978V80.304H54.7138V78H56.1058V84H54.7138V81.576H52.0978V84H50.7058V78ZM57.6667 78H59.0587V82.2H59.0827L61.2667 78H63.0667V84H61.6747V79.8H61.6507L59.4667 84H57.6667V78ZM64.6277 78H66.6917L67.9637 81.264H67.9877L69.2597 78H71.2277V84H69.8357V79.62H69.8117L68.6237 82.68H67.2317L66.0437 79.62H66.0197V84H64.6277V78ZM74.4639 84.12C73.7519 84.12 73.2239 83.96 72.8799 83.64C72.5359 83.32 72.3639 82.876 72.3639 82.308C72.3639 82.012 72.4119 81.744 72.5079 81.504C72.6039 81.264 72.7599 81.06 72.9759 80.892C73.1919 80.724 73.4719 80.596 73.8159 80.508C74.1599 80.412 74.5759 80.364 75.0639 80.364H76.2519V80.04C76.2519 79.728 76.1599 79.488 75.9759 79.32C75.7919 79.144 75.5079 79.056 75.1239 79.056C74.7399 79.056 74.4639 79.128 74.2959 79.272C74.1279 79.408 74.0279 79.584 73.9959 79.8H72.6039C72.6199 79.528 72.6839 79.276 72.7959 79.044C72.9079 78.804 73.0679 78.6 73.2759 78.432C73.4839 78.256 73.7399 78.12 74.0439 78.024C74.3559 77.928 74.7159 77.88 75.1239 77.88C75.9799 77.88 76.6119 78.076 77.0199 78.468C77.4359 78.86 77.6439 79.424 77.6439 80.16V84H76.5639L76.4319 83.22H76.4079C76.1759 83.508 75.8919 83.732 75.5559 83.892C75.2199 84.044 74.8559 84.12 74.4639 84.12ZM74.7039 82.944C74.9279 82.944 75.1319 82.908 75.3159 82.836C75.5079 82.764 75.6719 82.668 75.8079 82.548C75.9439 82.42 76.0519 82.272 76.1319 82.104C76.2119 81.928 76.2519 81.74 76.2519 81.54V81.396H75.1239C74.6439 81.396 74.3079 81.476 74.1159 81.636C73.9239 81.788 73.8279 81.996 73.8279 82.26C73.8279 82.46 73.8959 82.624 74.0319 82.752C74.1759 82.88 74.3999 82.944 74.7039 82.944ZM78.4872 82.848H78.6072C78.8392 82.848 79.0192 82.78 79.1472 82.644C79.2832 82.5 79.3792 82.304 79.4352 82.056C79.4992 81.8 79.5352 81.504 79.5432 81.168C79.5592 80.824 79.5672 80.448 79.5672 80.04V78H84.1272V84H82.7352V79.272H80.9592V80.04C80.9592 80.504 80.9432 80.98 80.9112 81.468C80.8872 81.948 80.7992 82.384 80.6472 82.776C80.5032 83.168 80.2712 83.492 79.9512 83.748C79.6392 83.996 79.1912 84.12 78.6072 84.12H78.4872V82.848ZM85.6863 78H87.0783V79.8H88.0863C88.9503 79.8 89.5863 79.988 89.9943 80.364C90.4023 80.74 90.6063 81.252 90.6063 81.9C90.6063 82.548 90.3983 83.06 89.9823 83.436C89.5743 83.812 88.9423 84 88.0863 84H85.6863V78ZM87.0783 80.952V82.848H88.0263C88.4263 82.848 88.7103 82.768 88.8783 82.608C89.0543 82.448 89.1423 82.212 89.1423 81.9C89.1423 81.596 89.0543 81.364 88.8783 81.204C88.7023 81.036 88.4183 80.952 88.0263 80.952H87.0783ZM91.5691 78H92.9611V80.304H95.5771V78H96.9691V84H95.5771V81.576H92.9611V84H91.5691V78ZM104.098 78H105.49V84H104.098V78ZM98.53 78H99.922V79.8H100.93C101.794 79.8 102.43 79.988 102.838 80.364C103.246 80.74 103.45 81.252 103.45 81.9C103.45 82.548 103.242 83.06 102.826 83.436C102.418 83.812 101.786 84 100.93 84H98.53V78ZM99.922 80.952V82.848H100.87C101.27 82.848 101.554 82.768 101.722 82.608C101.898 82.448 101.986 82.212 101.986 81.9C101.986 81.596 101.898 81.364 101.722 81.204C101.546 81.036 101.262 80.952 100.87 80.952H99.922ZM109.57 84.12C108.666 84.12 107.958 83.864 107.446 83.352C106.942 82.832 106.69 82.092 106.69 81.132V80.868C106.69 80.396 106.754 79.976 106.882 79.608C107.018 79.232 107.206 78.916 107.446 78.66C107.694 78.404 107.99 78.212 108.334 78.084C108.686 77.948 109.078 77.88 109.51 77.88C110.382 77.88 111.07 78.14 111.574 78.66C112.078 79.18 112.33 79.936 112.33 80.928V81.432H108.094C108.134 81.96 108.266 82.344 108.49 82.584C108.714 82.824 109.054 82.944 109.51 82.944C110.23 82.944 110.67 82.696 110.83 82.2H112.27C112.134 82.824 111.83 83.3 111.358 83.628C110.894 83.956 110.298 84.12 109.57 84.12ZM109.51 79.056C109.086 79.056 108.762 79.164 108.538 79.38C108.314 79.588 108.17 79.928 108.106 80.4H110.914C110.858 79.928 110.718 79.588 110.494 79.38C110.27 79.164 109.942 79.056 109.51 79.056Z" fill="#875BE4"/>
<path d="M63.25 60.36L61.15 61.755V59.91L63.25 58.5H65.05V69H63.25V60.36ZM70.8191 69.15C70.2391 69.15 69.7141 69.06 69.2441 68.88C68.7841 68.69 68.3941 68.395 68.0741 67.995C67.7541 67.595 67.5041 67.08 67.3241 66.45C67.1541 65.81 67.0691 65.04 67.0691 64.14V63.36C67.0691 62.47 67.1541 61.71 67.3241 61.08C67.5041 60.44 67.7541 59.92 68.0741 59.52C68.4041 59.11 68.7991 58.815 69.2591 58.635C69.7191 58.445 70.2391 58.35 70.8191 58.35C71.3991 58.35 71.9191 58.445 72.3791 58.635C72.8491 58.815 73.2441 59.105 73.5641 59.505C73.8941 59.905 74.1441 60.425 74.3141 61.065C74.4841 61.695 74.5691 62.46 74.5691 63.36V64.14C74.5691 65.03 74.4791 65.795 74.2991 66.435C74.1291 67.065 73.8791 67.585 73.5491 67.995C73.2291 68.395 72.8391 68.69 72.3791 68.88C71.9191 69.06 71.3991 69.15 70.8191 69.15ZM70.8191 67.47C71.1091 67.47 71.3691 67.42 71.5991 67.32C71.8291 67.22 72.0241 67.045 72.1841 66.795C72.3441 66.545 72.4641 66.205 72.5441 65.775C72.6341 65.345 72.6791 64.8 72.6791 64.14V63.36C72.6791 62.71 72.6341 62.17 72.5441 61.74C72.4541 61.31 72.3291 60.97 72.1691 60.72C72.0091 60.46 71.8141 60.28 71.5841 60.18C71.3541 60.08 71.0991 60.03 70.8191 60.03C70.5291 60.03 70.2691 60.08 70.0391 60.18C69.8091 60.28 69.6141 60.455 69.4541 60.705C69.2941 60.955 69.1691 61.295 69.0791 61.725C68.9991 62.155 68.9591 62.7 68.9591 63.36V64.14C68.9591 64.79 68.9991 65.33 69.0791 65.76C69.1691 66.19 69.2941 66.535 69.4541 66.795C69.6241 67.045 69.8191 67.22 70.0391 67.32C70.2691 67.42 70.5291 67.47 70.8191 67.47ZM79.9744 69.15C79.3944 69.15 78.8694 69.06 78.3994 68.88C77.9394 68.69 77.5494 68.395 77.2294 67.995C76.9094 67.595 76.6594 67.08 76.4794 66.45C76.3094 65.81 76.2244 65.04 76.2244 64.14V63.36C76.2244 62.47 76.3094 61.71 76.4794 61.08C76.6594 60.44 76.9094 59.92 77.2294 59.52C77.5594 59.11 77.9544 58.815 78.4144 58.635C78.8744 58.445 79.3944 58.35 79.9744 58.35C80.5544 58.35 81.0744 58.445 81.5344 58.635C82.0044 58.815 82.3994 59.105 82.7194 59.505C83.0494 59.905 83.2994 60.425 83.4694 61.065C83.6394 61.695 83.7244 62.46 83.7244 63.36V64.14C83.7244 65.03 83.6344 65.795 83.4544 66.435C83.2844 67.065 83.0344 67.585 82.7044 67.995C82.3844 68.395 81.9944 68.69 81.5344 68.88C81.0744 69.06 80.5544 69.15 79.9744 69.15ZM79.9744 67.47C80.2644 67.47 80.5244 67.42 80.7544 67.32C80.9844 67.22 81.1794 67.045 81.3394 66.795C81.4994 66.545 81.6194 66.205 81.6994 65.775C81.7894 65.345 81.8344 64.8 81.8344 64.14V63.36C81.8344 62.71 81.7894 62.17 81.6994 61.74C81.6094 61.31 81.4844 60.97 81.3244 60.72C81.1644 60.46 80.9694 60.28 80.7394 60.18C80.5094 60.08 80.2544 60.03 79.9744 60.03C79.6844 60.03 79.4244 60.08 79.1944 60.18C78.9644 60.28 78.7694 60.455 78.6094 60.705C78.4494 60.955 78.3244 61.295 78.2344 61.725C78.1544 62.155 78.1144 62.7 78.1144 63.36V64.14C78.1144 64.79 78.1544 65.33 78.2344 65.76C78.3244 66.19 78.4494 66.535 78.6094 66.795C78.7794 67.045 78.9744 67.22 79.1944 67.32C79.4244 67.42 79.6844 67.47 79.9744 67.47Z" fill="#875BE4"/>
<defs>
<filter id="filter0_di_26_1594" x="107" y="114" width="21" height="20" filterUnits="userSpaceOnUse" color-interpolation-filters="sRGB">
<feFlood flood-opacity="0" result="BackgroundImageFix"/>
<feColorMatrix in="SourceAlpha" type="matrix" values="0 0 0 0 0 0 0 0 0 0 0 0 0 0 0 0 0 0 127 0" result="hardAlpha"/>
<feMorphology radius="4" operator="erode" in="SourceAlpha" result="effect1_dropShadow_26_1594"/>
<feOffset dx="4" dy="-3"/>
<feGaussianBlur stdDeviation="2"/>
<feComposite in2="hardAlpha" operator="out"/>
<feColorMatrix type="matrix" values="0 0 0 0 0.172537 0 0 0 0 0.11026 0 0 0 0 0.304167 0 0 0 0.46 0"/>
<feBlend mode="normal" in2="BackgroundImageFix" result="effect1_dropShadow_26_1594"/>
<feBlend mode="normal" in="SourceGraphic" in2="effect1_dropShadow_26_1594" result="shape"/>
<feColorMatrix in="SourceAlpha" type="matrix" values="0 0 0 0 0 0 0 0 0 0 0 0 0 0 0 0 0 0 127 0" result="hardAlpha"/>
<feOffset dy="-1"/>
<feGaussianBlur stdDeviation="2"/>
<feComposite in2="hardAlpha" operator="arithmetic" k2="-1" k3="1"/>
<feColorMatrix type="matrix" values="0 0 0 0 1 0 0 0 0 1 0 0 0 0 1 0 0 0 0.25 0"/>
<feBlend mode="normal" in2="shape" result="effect2_innerShadow_26_1594"/>
</filter>
</defs>
</svg>
