<svg width="148" height="159" viewBox="0 0 148 159" fill="none" xmlns="http://www.w3.org/2000/svg">
<path d="M107.324 143.774L105.28 145.16V143.732L107.324 142.318H108.64V152.118H107.324V143.774ZM114.165 152.23C113.651 152.23 113.185 152.146 112.765 151.978C112.354 151.81 112.004 151.544 111.715 151.18C111.425 150.807 111.201 150.331 111.043 149.752C110.884 149.164 110.805 148.455 110.805 147.624V146.812C110.805 145.991 110.884 145.291 111.043 144.712C111.201 144.124 111.425 143.648 111.715 143.284C112.013 142.911 112.368 142.64 112.779 142.472C113.199 142.295 113.661 142.206 114.165 142.206C114.678 142.206 115.14 142.29 115.551 142.458C115.971 142.626 116.325 142.897 116.615 143.27C116.904 143.634 117.128 144.11 117.287 144.698C117.445 145.277 117.525 145.981 117.525 146.812V147.624C117.525 148.445 117.445 149.15 117.287 149.738C117.128 150.317 116.899 150.793 116.601 151.166C116.311 151.53 115.957 151.801 115.537 151.978C115.126 152.146 114.669 152.23 114.165 152.23ZM114.165 150.97C114.473 150.97 114.748 150.919 114.991 150.816C115.243 150.704 115.453 150.522 115.621 150.27C115.789 150.009 115.919 149.663 116.013 149.234C116.106 148.805 116.153 148.268 116.153 147.624V146.812C116.153 146.168 116.106 145.636 116.013 145.216C115.919 144.787 115.784 144.441 115.607 144.18C115.439 143.919 115.229 143.737 114.977 143.634C114.734 143.522 114.463 143.466 114.165 143.466C113.857 143.466 113.577 143.522 113.325 143.634C113.082 143.737 112.877 143.919 112.709 144.18C112.541 144.432 112.41 144.773 112.317 145.202C112.223 145.631 112.177 146.168 112.177 146.812V147.624C112.177 148.268 112.223 148.805 112.317 149.234C112.41 149.654 112.541 149.995 112.709 150.256C112.886 150.517 113.096 150.704 113.339 150.816C113.591 150.919 113.866 150.97 114.165 150.97ZM122.709 152.23C122.196 152.23 121.729 152.146 121.309 151.978C120.899 151.81 120.549 151.544 120.259 151.18C119.97 150.807 119.746 150.331 119.587 149.752C119.429 149.164 119.349 148.455 119.349 147.624V146.812C119.349 145.991 119.429 145.291 119.587 144.712C119.746 144.124 119.97 143.648 120.259 143.284C120.558 142.911 120.913 142.64 121.323 142.472C121.743 142.295 122.205 142.206 122.709 142.206C123.223 142.206 123.685 142.29 124.095 142.458C124.515 142.626 124.87 142.897 125.159 143.27C125.449 143.634 125.673 144.11 125.831 144.698C125.99 145.277 126.069 145.981 126.069 146.812V147.624C126.069 148.445 125.99 149.15 125.831 149.738C125.673 150.317 125.444 150.793 125.145 151.166C124.856 151.53 124.501 151.801 124.081 151.978C123.671 152.146 123.213 152.23 122.709 152.23ZM122.709 150.97C123.017 150.97 123.293 150.919 123.535 150.816C123.787 150.704 123.997 150.522 124.165 150.27C124.333 150.009 124.464 149.663 124.557 149.234C124.651 148.805 124.697 148.268 124.697 147.624V146.812C124.697 146.168 124.651 145.636 124.557 145.216C124.464 144.787 124.329 144.441 124.151 144.18C123.983 143.919 123.773 143.737 123.521 143.634C123.279 143.522 123.008 143.466 122.709 143.466C122.401 143.466 122.121 143.522 121.869 143.634C121.627 143.737 121.421 143.919 121.253 144.18C121.085 144.432 120.955 144.773 120.861 145.202C120.768 145.631 120.721 146.168 120.721 146.812V147.624C120.721 148.268 120.768 148.805 120.861 149.234C120.955 149.654 121.085 149.995 121.253 150.256C121.431 150.517 121.641 150.704 121.883 150.816C122.135 150.919 122.411 150.97 122.709 150.97Z" fill="black" fill-opacity="0.6"/>
<path d="M32.27 152.23C31.7567 152.23 31.29 152.146 30.87 151.978C30.4593 151.81 30.1093 151.544 29.82 151.18C29.5307 150.807 29.3067 150.331 29.148 149.752C28.9893 149.164 28.91 148.455 28.91 147.624V146.812C28.91 145.991 28.9893 145.291 29.148 144.712C29.3067 144.124 29.5307 143.648 29.82 143.284C30.1187 142.911 30.4733 142.64 30.884 142.472C31.304 142.295 31.766 142.206 32.27 142.206C32.7833 142.206 33.2453 142.29 33.656 142.458C34.076 142.626 34.4307 142.897 34.72 143.27C35.0093 143.634 35.2333 144.11 35.392 144.698C35.5507 145.277 35.63 145.981 35.63 146.812V147.624C35.63 148.445 35.5507 149.15 35.392 149.738C35.2333 150.317 35.0047 150.793 34.706 151.166C34.4167 151.53 34.062 151.801 33.642 151.978C33.2313 152.146 32.774 152.23 32.27 152.23ZM32.27 150.97C32.578 150.97 32.8533 150.919 33.096 150.816C33.348 150.704 33.558 150.522 33.726 150.27C33.894 150.009 34.0247 149.663 34.118 149.234C34.2113 148.805 34.258 148.268 34.258 147.624V146.812C34.258 146.168 34.2113 145.636 34.118 145.216C34.0247 144.787 33.8893 144.441 33.712 144.18C33.544 143.919 33.334 143.737 33.082 143.634C32.8393 143.522 32.5687 143.466 32.27 143.466C31.962 143.466 31.682 143.522 31.43 143.634C31.1873 143.737 30.982 143.919 30.814 144.18C30.646 144.432 30.5153 144.773 30.422 145.202C30.3287 145.631 30.282 146.168 30.282 146.812V147.624C30.282 148.268 30.3287 148.805 30.422 149.234C30.5153 149.654 30.646 149.995 30.814 150.256C30.9913 150.517 31.2013 150.704 31.444 150.816C31.696 150.919 31.9713 150.97 32.27 150.97Z" fill="black" fill-opacity="0.6"/>
<mask id="path-3-inside-1_41_70" fill="white">
<path d="M110.328 128.843C111.981 131.378 115.391 132.109 117.793 130.269C128.594 121.992 136.86 110.798 141.58 97.9555C146.932 83.3941 147.437 67.4935 143.021 52.6216C138.605 37.7498 129.503 24.7021 117.071 15.4216C104.639 6.14105 89.5426 1.12415 74.0289 1.11793C58.5151 1.11171 43.4143 6.1165 30.9751 15.387C18.5358 24.6576 9.42367 37.698 4.99543 52.5663C0.567193 67.4346 1.05978 83.3356 6.39984 97.9013C11.1094 110.747 19.3671 121.949 30.1615 130.234C32.562 132.076 35.9723 131.347 37.627 128.814C39.2816 126.28 38.5508 122.903 36.1757 121.028C27.3465 114.058 20.5852 104.757 16.6887 94.1293C12.1614 81.7805 11.7438 68.2996 15.498 55.6943C19.2523 43.0889 26.9776 32.0333 37.5235 24.1738C48.0695 16.3142 60.8719 12.0712 74.0245 12.0764C87.177 12.0817 99.9761 16.335 110.516 24.203C121.055 32.071 128.772 43.1328 132.516 55.7412C136.26 68.3496 135.832 81.83 131.294 94.1752C127.389 104.8 120.621 114.095 111.786 121.058C109.409 122.932 108.676 126.308 110.328 128.843Z"/>
</mask>
<path d="M110.328 128.843C111.981 131.378 115.391 132.109 117.793 130.269C128.594 121.992 136.86 110.798 141.58 97.9555C146.932 83.3941 147.437 67.4935 143.021 52.6216C138.605 37.7498 129.503 24.7021 117.071 15.4216C104.639 6.14105 89.5426 1.12415 74.0289 1.11793C58.5151 1.11171 43.4143 6.1165 30.9751 15.387C18.5358 24.6576 9.42367 37.698 4.99543 52.5663C0.567193 67.4346 1.05978 83.3356 6.39984 97.9013C11.1094 110.747 19.3671 121.949 30.1615 130.234C32.562 132.076 35.9723 131.347 37.627 128.814C39.2816 126.28 38.5508 122.903 36.1757 121.028C27.3465 114.058 20.5852 104.757 16.6887 94.1293C12.1614 81.7805 11.7438 68.2996 15.498 55.6943C19.2523 43.0889 26.9776 32.0333 37.5235 24.1738C48.0695 16.3142 60.8719 12.0712 74.0245 12.0764C87.177 12.0817 99.9761 16.335 110.516 24.203C121.055 32.071 128.772 43.1328 132.516 55.7412C136.26 68.3496 135.832 81.83 131.294 94.1752C127.389 104.8 120.621 114.095 111.786 121.058C109.409 122.932 108.676 126.308 110.328 128.843Z" fill="#D9D9D9" stroke="#EFEFEF" stroke-width="28" mask="url(#path-3-inside-1_41_70)"/>
<mask id="path-4-inside-2_41_70" fill="white">
<path d="M110.529 121.854C120.843 114.141 128.452 103.362 132.265 91.061C136.078 78.7596 135.9 65.5669 131.756 53.3729C127.612 41.1789 119.715 30.6093 109.197 23.1783C98.6778 15.7473 86.0769 11.8362 73.1992 12.0053C60.3214 12.1743 47.8276 16.4149 37.5075 24.1195C27.1875 31.8241 19.5707 42.5974 15.7484 54.896C11.9262 67.1946 12.0945 80.3874 16.2293 92.5844C20.3642 104.781 28.2533 115.357 38.7666 122.796L44.9571 114.047C36.291 107.915 29.788 99.1975 26.3797 89.1434C22.9713 79.0894 22.8325 68.2146 25.9832 58.0769C29.1339 47.9392 35.4124 39.0588 43.9193 32.7078C52.4261 26.3569 62.7248 22.8614 73.3399 22.722C83.955 22.5827 94.3419 25.8066 103.013 31.932C111.683 38.0574 118.193 46.7699 121.608 56.8214C125.024 66.8729 125.171 77.7476 122.028 87.8876C118.885 98.0277 112.613 106.913 104.11 113.27L110.529 121.854Z"/>
</mask>
<path d="M110.529 121.854C120.843 114.141 128.452 103.362 132.265 91.061C136.078 78.7596 135.9 65.5669 131.756 53.3729C127.612 41.1789 119.715 30.6093 109.197 23.1783C98.6778 15.7473 86.0769 11.8362 73.1992 12.0053C60.3214 12.1743 47.8276 16.4149 37.5075 24.1195C27.1875 31.8241 19.5707 42.5974 15.7484 54.896C11.9262 67.1946 12.0945 80.3874 16.2293 92.5844C20.3642 104.781 28.2533 115.357 38.7666 122.796L44.9571 114.047C36.291 107.915 29.788 99.1975 26.3797 89.1434C22.9713 79.0894 22.8325 68.2146 25.9832 58.0769C29.1339 47.9392 35.4124 39.0588 43.9193 32.7078C52.4261 26.3569 62.7248 22.8614 73.3399 22.722C83.955 22.5827 94.3419 25.8066 103.013 31.932C111.683 38.0574 118.193 46.7699 121.608 56.8214C125.024 66.8729 125.171 77.7476 122.028 87.8876C118.885 98.0277 112.613 106.913 104.11 113.27L110.529 121.854Z" stroke="#E0E0E0" stroke-width="18" stroke-dasharray="1 20" mask="url(#path-4-inside-2_41_70)"/>
<mask id="path-5-inside-3_41_70" fill="white">
<path d="M120.457 120.851C122.534 122.985 125.964 123.044 127.937 120.813C136.561 111.06 142.403 99.1222 144.791 86.2553C147.508 71.6168 145.62 56.4962 139.387 42.9753C133.154 29.4544 122.882 18.1982 109.987 10.7566C97.0917 3.31509 82.2066 0.0541074 67.3813 1.42273C52.5559 2.79135 38.5193 8.72224 27.2043 18.3988C15.8893 28.0753 7.85232 41.0216 4.19995 55.4551C0.547578 69.8886 1.45946 85.0994 6.81004 98.9931C11.513 111.205 19.4421 121.872 29.7064 129.881C32.0537 131.713 35.4151 131.027 37.066 128.549C38.7168 126.072 38.0289 122.743 35.706 120.88C27.2856 114.129 20.773 105.249 16.8715 95.1184C12.3222 83.3052 11.5468 70.3722 14.6523 58.1001C17.7577 45.828 24.5912 34.8203 34.2118 26.5928C43.8324 18.3653 55.7671 13.3225 68.3724 12.1589C80.9777 10.9952 93.6338 13.7679 104.598 20.0951C115.562 26.4223 124.295 35.9929 129.595 47.489C134.895 58.9852 136.5 71.8416 134.19 84.288C132.209 94.962 127.433 104.884 120.39 113.063C118.448 115.319 118.381 118.718 120.457 120.851Z"/>
</mask>
<path d="M120.457 120.851C122.534 122.985 125.964 123.044 127.937 120.813C136.561 111.06 142.403 99.1222 144.791 86.2553C147.508 71.6168 145.62 56.4962 139.387 42.9753C133.154 29.4544 122.882 18.1982 109.987 10.7566C97.0917 3.31509 82.2066 0.0541074 67.3813 1.42273C52.5559 2.79135 38.5193 8.72224 27.2043 18.3988C15.8893 28.0753 7.85232 41.0216 4.19995 55.4551C0.547578 69.8886 1.45946 85.0994 6.81004 98.9931C11.513 111.205 19.4421 121.872 29.7064 129.881C32.0537 131.713 35.4151 131.027 37.066 128.549C38.7168 126.072 38.0289 122.743 35.706 120.88C27.2856 114.129 20.773 105.249 16.8715 95.1184C12.3222 83.3052 11.5468 70.3722 14.6523 58.1001C17.7577 45.828 24.5912 34.8203 34.2118 26.5928C43.8324 18.3653 55.7671 13.3225 68.3724 12.1589C80.9777 10.9952 93.6338 13.7679 104.598 20.0951C115.562 26.4223 124.295 35.9929 129.595 47.489C134.895 58.9852 136.5 71.8416 134.19 84.288C132.209 94.962 127.433 104.884 120.39 113.063C118.448 115.319 118.381 118.718 120.457 120.851Z" fill="#D9D9D9" stroke="#41A2E2" stroke-width="28" mask="url(#path-5-inside-3_41_70)"/>
<g filter="url(#filter0_di_41_70)">
<circle cx="126.5" cy="115.5" r="8.5" fill="#41A2E2"/>
</g>
<path d="M28.8459 75.6H31.7859C32.8739 75.6 33.6739 75.844 34.1859 76.332C34.7059 76.812 34.9659 77.492 34.9659 78.372C34.9659 79.244 34.7019 79.928 34.1739 80.424C33.6459 80.92 32.8499 81.168 31.7859 81.168H30.2859V84H28.8459V75.6ZM30.2859 76.92V79.848H31.7259C32.3419 79.848 32.7819 79.724 33.0459 79.476C33.3179 79.228 33.4539 78.86 33.4539 78.372C33.4539 77.916 33.3139 77.56 33.0339 77.304C32.7539 77.048 32.3179 76.92 31.7259 76.92H30.2859ZM38.384 84.12C37.48 84.12 36.772 83.864 36.26 83.352C35.756 82.832 35.504 82.092 35.504 81.132V80.868C35.504 80.396 35.568 79.976 35.696 79.608C35.832 79.232 36.02 78.916 36.26 78.66C36.508 78.404 36.804 78.212 37.148 78.084C37.5 77.948 37.892 77.88 38.324 77.88C39.196 77.88 39.884 78.14 40.388 78.66C40.892 79.18 41.144 79.936 41.144 80.928V81.432H36.908C36.948 81.96 37.08 82.344 37.304 82.584C37.528 82.824 37.868 82.944 38.324 82.944C39.044 82.944 39.484 82.696 39.644 82.2H41.084C40.948 82.824 40.644 83.3 40.172 83.628C39.708 83.956 39.112 84.12 38.384 84.12ZM38.324 79.056C37.9 79.056 37.576 79.164 37.352 79.38C37.128 79.588 36.984 79.928 36.92 80.4H39.728C39.672 79.928 39.532 79.588 39.308 79.38C39.084 79.164 38.756 79.056 38.324 79.056ZM42.3445 78H43.7365V80.244H44.3365L45.8245 78H47.3845L45.4525 80.808L47.6245 84H45.9685L44.3365 81.516H43.7365V84H42.3445V78ZM50.8059 84.12C49.9019 84.12 49.1939 83.864 48.6819 83.352C48.1779 82.832 47.9259 82.092 47.9259 81.132V80.868C47.9259 80.396 47.9899 79.976 48.1179 79.608C48.2539 79.24 48.4459 78.928 48.6939 78.672C48.9499 78.416 49.2539 78.22 49.6059 78.084C49.9579 77.948 50.3579 77.88 50.8059 77.88C51.7099 77.88 52.4139 78.14 52.9179 78.66C53.4299 79.172 53.6859 79.908 53.6859 80.868V81.132C53.6859 81.604 53.6179 82.024 53.4819 82.392C53.3539 82.76 53.1619 83.072 52.9059 83.328C52.6579 83.584 52.3539 83.78 51.9939 83.916C51.6419 84.052 51.2459 84.12 50.8059 84.12ZM50.8059 82.848C51.2459 82.848 51.5899 82.712 51.8379 82.44C52.0939 82.16 52.2219 81.724 52.2219 81.132V80.868C52.2219 80.292 52.0939 79.864 51.8379 79.584C51.5819 79.296 51.2379 79.152 50.8059 79.152C50.3659 79.152 50.0179 79.292 49.7619 79.572C49.5139 79.844 49.3899 80.276 49.3899 80.868V81.132C49.3899 81.708 49.5179 82.14 49.7739 82.428C50.0299 82.708 50.3739 82.848 50.8059 82.848ZM54.8835 78H56.9475L58.2195 81.264H58.2435L59.5155 78H61.4835V84H60.0915V79.62H60.0675L58.8795 82.68H57.4875L56.2995 79.62H56.2755V84H54.8835V78ZM65.5598 84.12C64.6558 84.12 63.9478 83.864 63.4358 83.352C62.9318 82.832 62.6798 82.092 62.6798 81.132V80.868C62.6798 80.396 62.7438 79.976 62.8718 79.608C63.0078 79.232 63.1958 78.916 63.4358 78.66C63.6838 78.404 63.9798 78.212 64.3238 78.084C64.6758 77.948 65.0678 77.88 65.4998 77.88C66.3718 77.88 67.0598 78.14 67.5638 78.66C68.0678 79.18 68.3198 79.936 68.3198 80.928V81.432H64.0838C64.1238 81.96 64.2558 82.344 64.4798 82.584C64.7038 82.824 65.0438 82.944 65.4998 82.944C66.2198 82.944 66.6598 82.696 66.8198 82.2H68.2598C68.1238 82.824 67.8198 83.3 67.3478 83.628C66.8838 83.956 66.2878 84.12 65.5598 84.12ZM65.4998 79.056C65.0758 79.056 64.7518 79.164 64.5278 79.38C64.3038 79.588 64.1598 79.928 64.0958 80.4H66.9038C66.8478 79.928 66.7078 79.588 66.4838 79.38C66.2598 79.164 65.9318 79.056 65.4998 79.056ZM69.5202 78H70.9122V80.304H73.5282V78H74.9202V84H73.5282V81.576H70.9122V84H69.5202V78ZM75.8212 82.728H76.4212C76.5252 82.568 76.6132 82.392 76.6852 82.2C76.7652 82.008 76.8292 81.796 76.8772 81.564C76.9252 81.332 76.9612 81.072 76.9852 80.784C77.0092 80.488 77.0212 80.16 77.0212 79.8V78H81.5812V82.728H82.2412V85.56H80.9212V84H77.1412V85.56H75.8212V82.728ZM80.1892 82.728V79.272H78.3412V79.8C78.3412 80.48 78.3052 81.048 78.2332 81.504C78.1692 81.96 78.0612 82.36 77.9092 82.704V82.728H80.1892ZM84.7948 84L82.3588 78H83.8708L85.5148 82.272H85.5388L87.0628 78H88.4788L85.2988 86.4H83.8828L84.7948 84ZM91.6574 84.12C90.7534 84.12 90.0454 83.864 89.5334 83.352C89.0294 82.832 88.7774 82.092 88.7774 81.132V80.868C88.7774 80.396 88.8414 79.976 88.9694 79.608C89.1054 79.232 89.2934 78.916 89.5334 78.66C89.7814 78.404 90.0774 78.212 90.4214 78.084C90.7734 77.948 91.1654 77.88 91.5974 77.88C92.4694 77.88 93.1574 78.14 93.6614 78.66C94.1654 79.18 94.4174 79.936 94.4174 80.928V81.432H90.1814C90.2214 81.96 90.3534 82.344 90.5774 82.584C90.8014 82.824 91.1414 82.944 91.5974 82.944C92.3174 82.944 92.7574 82.696 92.9174 82.2H94.3574C94.2214 82.824 93.9174 83.3 93.4454 83.628C92.9814 83.956 92.3854 84.12 91.6574 84.12ZM91.5974 79.056C91.1734 79.056 90.8494 79.164 90.6254 79.38C90.4014 79.588 90.2574 79.928 90.1934 80.4H93.0014C92.9454 79.928 92.8054 79.588 92.5814 79.38C92.3574 79.164 92.0294 79.056 91.5974 79.056ZM95.6179 78H97.6819L98.9539 81.264H98.9779L100.25 78H102.218V84H100.826V79.62H100.802L99.6139 82.68H98.2219L97.0339 79.62H97.0099V84H95.6179V78ZM109.342 78H110.734V84H109.342V78ZM103.774 78H105.166V79.8H106.174C107.038 79.8 107.674 79.988 108.082 80.364C108.49 80.74 108.694 81.252 108.694 81.9C108.694 82.548 108.486 83.06 108.07 83.436C107.662 83.812 107.03 84 106.174 84H103.774V78ZM105.166 80.952V82.848H106.114C106.514 82.848 106.798 82.768 106.966 82.608C107.142 82.448 107.23 82.212 107.23 81.9C107.23 81.596 107.142 81.364 106.966 81.204C106.79 81.036 106.506 80.952 106.114 80.952H105.166ZM114.814 84.12C113.91 84.12 113.202 83.864 112.69 83.352C112.186 82.832 111.934 82.092 111.934 81.132V80.868C111.934 80.396 111.998 79.976 112.126 79.608C112.262 79.232 112.45 78.916 112.69 78.66C112.938 78.404 113.234 78.212 113.578 78.084C113.93 77.948 114.322 77.88 114.754 77.88C115.626 77.88 116.314 78.14 116.818 78.66C117.322 79.18 117.574 79.936 117.574 80.928V81.432H113.338C113.378 81.96 113.51 82.344 113.734 82.584C113.958 82.824 114.298 82.944 114.754 82.944C115.474 82.944 115.914 82.696 116.074 82.2H117.514C117.378 82.824 117.074 83.3 116.602 83.628C116.138 83.956 115.542 84.12 114.814 84.12ZM114.754 79.056C114.33 79.056 114.006 79.164 113.782 79.38C113.558 79.588 113.414 79.928 113.35 80.4H116.158C116.102 79.928 115.962 79.588 115.738 79.38C115.514 79.164 115.186 79.056 114.754 79.056Z" fill="#41A2E2"/>
<path d="M68.275 69.15C67.825 69.15 67.415 69.085 67.045 68.955C66.685 68.825 66.37 68.645 66.1 68.415C65.83 68.175 65.605 67.895 65.425 67.575C65.245 67.255 65.12 66.905 65.05 66.525H66.895C67.005 66.785 67.175 67.01 67.405 67.2C67.635 67.38 67.95 67.47 68.35 67.47C68.64 67.47 68.905 67.42 69.145 67.32C69.385 67.22 69.59 67.06 69.76 66.84C69.94 66.62 70.08 66.33 70.18 65.97C70.28 65.61 70.34 65.165 70.36 64.635C69.79 65.235 69.07 65.535 68.2 65.535C67.12 65.535 66.275 65.23 65.665 64.62C65.055 64 64.75 63.14 64.75 62.04V61.86C64.75 61.34 64.835 60.865 65.005 60.435C65.175 60.005 65.415 59.635 65.725 59.325C66.045 59.015 66.425 58.775 66.865 58.605C67.315 58.435 67.81 58.35 68.35 58.35C68.92 58.35 69.435 58.445 69.895 58.635C70.355 58.815 70.75 59.095 71.08 59.475C71.41 59.845 71.66 60.32 71.83 60.9C72.01 61.47 72.1 62.14 72.1 62.91V63.69C72.1 64.68 72.01 65.525 71.83 66.225C71.65 66.915 71.39 67.48 71.05 67.92C70.72 68.35 70.32 68.665 69.85 68.865C69.38 69.055 68.855 69.15 68.275 69.15ZM66.64 62.04C66.64 62.61 66.795 63.055 67.105 63.375C67.425 63.695 67.84 63.855 68.35 63.855C68.94 63.855 69.395 63.695 69.715 63.375C70.045 63.055 70.21 62.61 70.21 62.04V61.86C70.21 61.29 70.045 60.845 69.715 60.525C69.395 60.195 68.94 60.03 68.35 60.03C67.84 60.03 67.425 60.195 67.105 60.525C66.795 60.845 66.64 61.29 66.64 61.86V62.04ZM77.4959 69.15C76.9259 69.15 76.4109 69.06 75.9509 68.88C75.4909 68.69 75.0959 68.41 74.7659 68.04C74.4359 67.66 74.1809 67.185 74.0009 66.615C73.8309 66.035 73.7459 65.36 73.7459 64.59V63.81C73.7459 62.84 73.8409 62.01 74.0309 61.32C74.2209 60.63 74.4859 60.065 74.8259 59.625C75.1759 59.185 75.5859 58.865 76.0559 58.665C76.5359 58.455 77.0659 58.35 77.6459 58.35C78.0959 58.35 78.5009 58.415 78.8609 58.545C79.2309 58.675 79.5509 58.86 79.8209 59.1C80.0909 59.33 80.3109 59.605 80.4809 59.925C80.6609 60.245 80.7909 60.595 80.8709 60.975H79.0259C78.9159 60.715 78.7459 60.495 78.5159 60.315C78.2859 60.125 77.9709 60.03 77.5709 60.03C77.2809 60.03 77.0109 60.085 76.7609 60.195C76.5109 60.295 76.2959 60.46 76.1159 60.69C75.9359 60.91 75.7909 61.2 75.6809 61.56C75.5709 61.92 75.5059 62.355 75.4859 62.865C76.0559 62.265 76.7759 61.965 77.6459 61.965C78.7259 61.965 79.5709 62.275 80.1809 62.895C80.7909 63.505 81.0959 64.36 81.0959 65.46V65.64C81.0959 66.15 81.0059 66.62 80.8259 67.05C80.6559 67.48 80.4109 67.85 80.0909 68.16C79.7809 68.47 79.4009 68.715 78.9509 68.895C78.5109 69.065 78.0259 69.15 77.4959 69.15ZM75.6359 65.64C75.6359 66.21 75.7959 66.66 76.1159 66.99C76.4459 67.31 76.9059 67.47 77.4959 67.47C78.0059 67.47 78.4159 67.31 78.7259 66.99C79.0459 66.66 79.2059 66.21 79.2059 65.64V65.46C79.2059 64.89 79.0459 64.445 78.7259 64.125C78.4159 63.805 78.0059 63.645 77.4959 63.645C76.9059 63.645 76.4459 63.805 76.1159 64.125C75.7959 64.445 75.6359 64.89 75.6359 65.46V65.64Z" fill="#41A2E2"/>
<defs>
<filter id="filter0_di_41_70" x="118" y="104" width="21" height="20" filterUnits="userSpaceOnUse" color-interpolation-filters="sRGB">
<feFlood flood-opacity="0" result="BackgroundImageFix"/>
<feColorMatrix in="SourceAlpha" type="matrix" values="0 0 0 0 0 0 0 0 0 0 0 0 0 0 0 0 0 0 127 0" result="hardAlpha"/>
<feMorphology radius="4" operator="erode" in="SourceAlpha" result="effect1_dropShadow_41_70"/>
<feOffset dx="4" dy="-3"/>
<feGaussianBlur stdDeviation="2"/>
<feComposite in2="hardAlpha" operator="out"/>
<feColorMatrix type="matrix" values="0 0 0 0 0.172537 0 0 0 0 0.11026 0 0 0 0 0.304167 0 0 0 0.46 0"/>
<feBlend mode="normal" in2="BackgroundImageFix" result="effect1_dropShadow_41_70"/>
<feBlend mode="normal" in="SourceGraphic" in2="effect1_dropShadow_41_70" result="shape"/>
<feColorMatrix in="SourceAlpha" type="matrix" values="0 0 0 0 0 0 0 0 0 0 0 0 0 0 0 0 0 0 127 0" result="hardAlpha"/>
<feOffset dy="-1"/>
<feGaussianBlur stdDeviation="2"/>
<feComposite in2="hardAlpha" operator="arithmetic" k2="-1" k3="1"/>
<feColorMatrix type="matrix" values="0 0 0 0 1 0 0 0 0 1 0 0 0 0 1 0 0 0 0.25 0"/>
<feBlend mode="normal" in2="shape" result="effect2_innerShadow_41_70"/>
</filter>
</defs>
</svg>
