<svg width="148" height="159" viewBox="0 0 148 159" fill="none" xmlns="http://www.w3.org/2000/svg">
<path d="M107.324 143.774L105.28 145.16V143.732L107.324 142.318H108.64V152.118H107.324V143.774ZM114.165 152.23C113.651 152.23 113.185 152.146 112.765 151.978C112.354 151.81 112.004 151.544 111.715 151.18C111.425 150.807 111.201 150.331 111.043 149.752C110.884 149.164 110.805 148.455 110.805 147.624V146.812C110.805 145.991 110.884 145.291 111.043 144.712C111.201 144.124 111.425 143.648 111.715 143.284C112.013 142.911 112.368 142.64 112.779 142.472C113.199 142.295 113.661 142.206 114.165 142.206C114.678 142.206 115.14 142.29 115.551 142.458C115.971 142.626 116.325 142.897 116.615 143.27C116.904 143.634 117.128 144.11 117.287 144.698C117.445 145.277 117.525 145.981 117.525 146.812V147.624C117.525 148.445 117.445 149.15 117.287 149.738C117.128 150.317 116.899 150.793 116.601 151.166C116.311 151.53 115.957 151.801 115.537 151.978C115.126 152.146 114.669 152.23 114.165 152.23ZM114.165 150.97C114.473 150.97 114.748 150.919 114.991 150.816C115.243 150.704 115.453 150.522 115.621 150.27C115.789 150.009 115.919 149.663 116.013 149.234C116.106 148.805 116.153 148.268 116.153 147.624V146.812C116.153 146.168 116.106 145.636 116.013 145.216C115.919 144.787 115.784 144.441 115.607 144.18C115.439 143.919 115.229 143.737 114.977 143.634C114.734 143.522 114.463 143.466 114.165 143.466C113.857 143.466 113.577 143.522 113.325 143.634C113.082 143.737 112.877 143.919 112.709 144.18C112.541 144.432 112.41 144.773 112.317 145.202C112.223 145.631 112.177 146.168 112.177 146.812V147.624C112.177 148.268 112.223 148.805 112.317 149.234C112.41 149.654 112.541 149.995 112.709 150.256C112.886 150.517 113.096 150.704 113.339 150.816C113.591 150.919 113.866 150.97 114.165 150.97ZM122.709 152.23C122.196 152.23 121.729 152.146 121.309 151.978C120.899 151.81 120.549 151.544 120.259 151.18C119.97 150.807 119.746 150.331 119.587 149.752C119.429 149.164 119.349 148.455 119.349 147.624V146.812C119.349 145.991 119.429 145.291 119.587 144.712C119.746 144.124 119.97 143.648 120.259 143.284C120.558 142.911 120.913 142.64 121.323 142.472C121.743 142.295 122.205 142.206 122.709 142.206C123.223 142.206 123.685 142.29 124.095 142.458C124.515 142.626 124.87 142.897 125.159 143.27C125.449 143.634 125.673 144.11 125.831 144.698C125.99 145.277 126.069 145.981 126.069 146.812V147.624C126.069 148.445 125.99 149.15 125.831 149.738C125.673 150.317 125.444 150.793 125.145 151.166C124.856 151.53 124.501 151.801 124.081 151.978C123.671 152.146 123.213 152.23 122.709 152.23ZM122.709 150.97C123.017 150.97 123.293 150.919 123.535 150.816C123.787 150.704 123.997 150.522 124.165 150.27C124.333 150.009 124.464 149.663 124.557 149.234C124.651 148.805 124.697 148.268 124.697 147.624V146.812C124.697 146.168 124.651 145.636 124.557 145.216C124.464 144.787 124.329 144.441 124.151 144.18C123.983 143.919 123.773 143.737 123.521 143.634C123.279 143.522 123.008 143.466 122.709 143.466C122.401 143.466 122.121 143.522 121.869 143.634C121.627 143.737 121.421 143.919 121.253 144.18C121.085 144.432 120.955 144.773 120.861 145.202C120.768 145.631 120.721 146.168 120.721 146.812V147.624C120.721 148.268 120.768 148.805 120.861 149.234C120.955 149.654 121.085 149.995 121.253 150.256C121.431 150.517 121.641 150.704 121.883 150.816C122.135 150.919 122.411 150.97 122.709 150.97Z" fill="black" fill-opacity="0.6"/>
<path d="M32.27 152.23C31.7567 152.23 31.29 152.146 30.87 151.978C30.4593 151.81 30.1093 151.544 29.82 151.18C29.5307 150.807 29.3067 150.331 29.148 149.752C28.9893 149.164 28.91 148.455 28.91 147.624V146.812C28.91 145.991 28.9893 145.291 29.148 144.712C29.3067 144.124 29.5307 143.648 29.82 143.284C30.1187 142.911 30.4733 142.64 30.884 142.472C31.304 142.295 31.766 142.206 32.27 142.206C32.7833 142.206 33.2453 142.29 33.656 142.458C34.076 142.626 34.4307 142.897 34.72 143.27C35.0093 143.634 35.2333 144.11 35.392 144.698C35.5507 145.277 35.63 145.981 35.63 146.812V147.624C35.63 148.445 35.5507 149.15 35.392 149.738C35.2333 150.317 35.0047 150.793 34.706 151.166C34.4167 151.53 34.062 151.801 33.642 151.978C33.2313 152.146 32.774 152.23 32.27 152.23ZM32.27 150.97C32.578 150.97 32.8533 150.919 33.096 150.816C33.348 150.704 33.558 150.522 33.726 150.27C33.894 150.009 34.0247 149.663 34.118 149.234C34.2113 148.805 34.258 148.268 34.258 147.624V146.812C34.258 146.168 34.2113 145.636 34.118 145.216C34.0247 144.787 33.8893 144.441 33.712 144.18C33.544 143.919 33.334 143.737 33.082 143.634C32.8393 143.522 32.5687 143.466 32.27 143.466C31.962 143.466 31.682 143.522 31.43 143.634C31.1873 143.737 30.982 143.919 30.814 144.18C30.646 144.432 30.5153 144.773 30.422 145.202C30.3287 145.631 30.282 146.168 30.282 146.812V147.624C30.282 148.268 30.3287 148.805 30.422 149.234C30.5153 149.654 30.646 149.995 30.814 150.256C30.9913 150.517 31.2013 150.704 31.444 150.816C31.696 150.919 31.9713 150.97 32.27 150.97Z" fill="black" fill-opacity="0.6"/>
<mask id="path-3-inside-1_41_134" fill="white">
<path d="M110.328 128.843C111.981 131.378 115.391 132.109 117.793 130.268C128.594 121.992 136.86 110.797 141.58 97.9553C146.932 83.3939 147.437 67.4933 143.021 52.6214C138.605 37.7495 129.503 24.7018 117.071 15.4213C104.639 6.14081 89.5426 1.1239 74.0289 1.11768C58.5151 1.11146 43.4143 6.11626 30.9751 15.3868C18.5358 24.6573 9.42367 37.6977 4.99543 52.5661C0.567193 67.4344 1.05978 83.3354 6.39984 97.9011C11.1094 110.747 19.3671 121.948 30.1615 130.233C32.562 132.076 35.9723 131.347 37.627 128.813C39.2816 126.28 38.5508 122.903 36.1757 121.028C27.3465 114.058 20.5852 104.757 16.6887 94.129C12.1614 81.7802 11.7438 68.2994 15.498 55.694C19.2523 43.0887 26.9776 32.0331 37.5235 24.1735C48.0695 16.314 60.8719 12.0709 74.0245 12.0762C87.177 12.0815 99.9761 16.3348 110.516 24.2028C121.055 32.0708 128.772 43.1326 132.516 55.741C136.26 68.3493 135.832 81.8298 131.294 94.175C127.389 104.8 120.621 114.095 111.786 121.058C109.409 122.931 108.676 126.308 110.328 128.843Z"/>
</mask>
<path d="M110.328 128.843C111.981 131.378 115.391 132.109 117.793 130.268C128.594 121.992 136.86 110.797 141.58 97.9553C146.932 83.3939 147.437 67.4933 143.021 52.6214C138.605 37.7495 129.503 24.7018 117.071 15.4213C104.639 6.14081 89.5426 1.1239 74.0289 1.11768C58.5151 1.11146 43.4143 6.11626 30.9751 15.3868C18.5358 24.6573 9.42367 37.6977 4.99543 52.5661C0.567193 67.4344 1.05978 83.3354 6.39984 97.9011C11.1094 110.747 19.3671 121.948 30.1615 130.233C32.562 132.076 35.9723 131.347 37.627 128.813C39.2816 126.28 38.5508 122.903 36.1757 121.028C27.3465 114.058 20.5852 104.757 16.6887 94.129C12.1614 81.7802 11.7438 68.2994 15.498 55.694C19.2523 43.0887 26.9776 32.0331 37.5235 24.1735C48.0695 16.314 60.8719 12.0709 74.0245 12.0762C87.177 12.0815 99.9761 16.3348 110.516 24.2028C121.055 32.0708 128.772 43.1326 132.516 55.741C136.26 68.3493 135.832 81.8298 131.294 94.175C127.389 104.8 120.621 114.095 111.786 121.058C109.409 122.931 108.676 126.308 110.328 128.843Z" fill="#D9D9D9" stroke="#EFEFEF" stroke-width="28" mask="url(#path-3-inside-1_41_134)"/>
<mask id="path-4-inside-2_41_134" fill="white">
<path d="M110.529 121.854C120.843 114.141 128.452 103.362 132.265 91.061C136.078 78.7596 135.9 65.5669 131.756 53.3729C127.612 41.1789 119.715 30.6093 109.197 23.1783C98.6778 15.7473 86.0769 11.8362 73.1992 12.0053C60.3214 12.1743 47.8276 16.4149 37.5075 24.1195C27.1875 31.8241 19.5707 42.5974 15.7484 54.896C11.9262 67.1946 12.0945 80.3874 16.2293 92.5844C20.3642 104.781 28.2533 115.357 38.7666 122.796L44.9571 114.047C36.291 107.915 29.788 99.1975 26.3797 89.1434C22.9713 79.0894 22.8325 68.2146 25.9832 58.0769C29.1339 47.9392 35.4124 39.0588 43.9193 32.7078C52.4261 26.3569 62.7248 22.8614 73.3399 22.722C83.955 22.5827 94.3419 25.8066 103.013 31.932C111.683 38.0574 118.193 46.7699 121.608 56.8214C125.024 66.8729 125.171 77.7476 122.028 87.8876C118.885 98.0277 112.613 106.913 104.11 113.27L110.529 121.854Z"/>
</mask>
<path d="M110.529 121.854C120.843 114.141 128.452 103.362 132.265 91.061C136.078 78.7596 135.9 65.5669 131.756 53.3729C127.612 41.1789 119.715 30.6093 109.197 23.1783C98.6778 15.7473 86.0769 11.8362 73.1992 12.0053C60.3214 12.1743 47.8276 16.4149 37.5075 24.1195C27.1875 31.8241 19.5707 42.5974 15.7484 54.896C11.9262 67.1946 12.0945 80.3874 16.2293 92.5844C20.3642 104.781 28.2533 115.357 38.7666 122.796L44.9571 114.047C36.291 107.915 29.788 99.1975 26.3797 89.1434C22.9713 79.0894 22.8325 68.2146 25.9832 58.0769C29.1339 47.9392 35.4124 39.0588 43.9193 32.7078C52.4261 26.3569 62.7248 22.8614 73.3399 22.722C83.955 22.5827 94.3419 25.8066 103.013 31.932C111.683 38.0574 118.193 46.7699 121.608 56.8214C125.024 66.8729 125.171 77.7476 122.028 87.8876C118.885 98.0277 112.613 106.913 104.11 113.27L110.529 121.854Z" stroke="#E0E0E0" stroke-width="18" stroke-dasharray="1 20" mask="url(#path-4-inside-2_41_134)"/>
<mask id="path-5-inside-3_41_134" fill="white">
<path d="M117.478 123.58C119.422 125.835 122.842 126.102 124.946 123.995C134.294 114.635 140.909 102.851 144.012 89.9196C147.536 75.236 146.354 59.8162 140.633 45.8413C134.912 31.8664 124.943 20.0438 112.134 12.046C99.3256 4.04812 84.3266 0.279827 69.2589 1.27413C54.1912 2.26844 39.8175 7.97501 28.171 17.5866C16.5245 27.1983 8.19479 40.2284 4.36011 54.8338C0.525423 69.4393 1.37988 84.8807 6.80264 98.9739C11.5783 111.385 19.6841 122.198 30.1812 130.249C32.5437 132.061 35.8993 131.347 37.5295 128.856C39.1596 126.364 38.444 123.041 36.1056 121.198C27.4894 114.407 20.8286 105.402 16.8652 95.1021C12.2545 83.1193 11.528 69.9902 14.7885 57.5718C18.0489 45.1535 25.1313 34.0746 35.0338 25.9023C44.9362 17.73 57.1575 12.8779 69.9689 12.0325C82.7802 11.1871 95.5331 14.3911 106.424 21.1913C117.314 27.9915 125.791 38.0437 130.655 49.9259C135.519 61.8081 136.524 74.9188 133.528 87.4036C130.952 98.1353 125.533 107.938 117.884 115.802C115.808 117.936 115.535 121.324 117.478 123.58Z"/>
</mask>
<path d="M117.478 123.58C119.422 125.835 122.842 126.102 124.946 123.995C134.294 114.635 140.909 102.851 144.012 89.9196C147.536 75.236 146.354 59.8162 140.633 45.8413C134.912 31.8664 124.943 20.0438 112.134 12.046C99.3256 4.04812 84.3266 0.279827 69.2589 1.27413C54.1912 2.26844 39.8175 7.97501 28.171 17.5866C16.5245 27.1983 8.19479 40.2284 4.36011 54.8338C0.525423 69.4393 1.37988 84.8807 6.80264 98.9739C11.5783 111.385 19.6841 122.198 30.1812 130.249C32.5437 132.061 35.8993 131.347 37.5295 128.856C39.1596 126.364 38.444 123.041 36.1056 121.198C27.4894 114.407 20.8286 105.402 16.8652 95.1021C12.2545 83.1193 11.528 69.9902 14.7885 57.5718C18.0489 45.1535 25.1313 34.0746 35.0338 25.9023C44.9362 17.73 57.1575 12.8779 69.9689 12.0325C82.7802 11.1871 95.5331 14.3911 106.424 21.1913C117.314 27.9915 125.791 38.0437 130.655 49.9259C135.519 61.8081 136.524 74.9188 133.528 87.4036C130.952 98.1353 125.533 107.938 117.884 115.802C115.808 117.936 115.535 121.324 117.478 123.58Z" fill="#D9D9D9" stroke="#875BE4" stroke-width="28" mask="url(#path-5-inside-3_41_134)"/>
<g filter="url(#filter0_di_41_134)">
<circle cx="123.5" cy="118.5" r="8.5" fill="#9060F3"/>
</g>
<path d="M69.275 69.15C68.825 69.15 68.415 69.085 68.045 68.955C67.685 68.825 67.37 68.645 67.1 68.415C66.83 68.175 66.605 67.895 66.425 67.575C66.245 67.255 66.12 66.905 66.05 66.525H67.895C68.005 66.785 68.175 67.01 68.405 67.2C68.635 67.38 68.95 67.47 69.35 67.47C69.64 67.47 69.905 67.42 70.145 67.32C70.385 67.22 70.59 67.06 70.76 66.84C70.94 66.62 71.08 66.33 71.18 65.97C71.28 65.61 71.34 65.165 71.36 64.635C70.79 65.235 70.07 65.535 69.2 65.535C68.12 65.535 67.275 65.23 66.665 64.62C66.055 64 65.75 63.14 65.75 62.04V61.86C65.75 61.34 65.835 60.865 66.005 60.435C66.175 60.005 66.415 59.635 66.725 59.325C67.045 59.015 67.425 58.775 67.865 58.605C68.315 58.435 68.81 58.35 69.35 58.35C69.92 58.35 70.435 58.445 70.895 58.635C71.355 58.815 71.75 59.095 72.08 59.475C72.41 59.845 72.66 60.32 72.83 60.9C73.01 61.47 73.1 62.14 73.1 62.91V63.69C73.1 64.68 73.01 65.525 72.83 66.225C72.65 66.915 72.39 67.48 72.05 67.92C71.72 68.35 71.32 68.665 70.85 68.865C70.38 69.055 69.855 69.15 69.275 69.15ZM67.64 62.04C67.64 62.61 67.795 63.055 68.105 63.375C68.425 63.695 68.84 63.855 69.35 63.855C69.94 63.855 70.395 63.695 70.715 63.375C71.045 63.055 71.21 62.61 71.21 62.04V61.86C71.21 61.29 71.045 60.845 70.715 60.525C70.395 60.195 69.94 60.03 69.35 60.03C68.84 60.03 68.425 60.195 68.105 60.525C67.795 60.845 67.64 61.29 67.64 61.86V62.04ZM79.0059 60.09H74.0709V58.5H80.9709V60.09L77.3559 69H75.3459L79.0059 60.09Z" fill="#875BE4"/>
<path d="M34.09 75.6H36.274L38.146 80.256H38.17L40.042 75.6H42.13V84H40.69V77.22H40.666L38.83 81.78H37.39L35.554 77.22H35.53V84H34.09V75.6ZM43.7448 78H45.1368V82.2H45.1608L47.3448 78H49.1448V84H47.7528V79.8H47.7288L45.5448 84H43.7448V78ZM50.7058 78H52.0978V80.304H54.7138V78H56.1058V84H54.7138V81.576H52.0978V84H50.7058V78ZM57.6667 78H59.0587V82.2H59.0827L61.2667 78H63.0667V84H61.6747V79.8H61.6507L59.4667 84H57.6667V78ZM64.6277 78H66.6917L67.9637 81.264H67.9877L69.2597 78H71.2277V84H69.8357V79.62H69.8117L68.6237 82.68H67.2317L66.0437 79.62H66.0197V84H64.6277V78ZM74.4639 84.12C73.7519 84.12 73.2239 83.96 72.8799 83.64C72.5359 83.32 72.3639 82.876 72.3639 82.308C72.3639 82.012 72.4119 81.744 72.5079 81.504C72.6039 81.264 72.7599 81.06 72.9759 80.892C73.1919 80.724 73.4719 80.596 73.8159 80.508C74.1599 80.412 74.5759 80.364 75.0639 80.364H76.2519V80.04C76.2519 79.728 76.1599 79.488 75.9759 79.32C75.7919 79.144 75.5079 79.056 75.1239 79.056C74.7399 79.056 74.4639 79.128 74.2959 79.272C74.1279 79.408 74.0279 79.584 73.9959 79.8H72.6039C72.6199 79.528 72.6839 79.276 72.7959 79.044C72.9079 78.804 73.0679 78.6 73.2759 78.432C73.4839 78.256 73.7399 78.12 74.0439 78.024C74.3559 77.928 74.7159 77.88 75.1239 77.88C75.9799 77.88 76.6119 78.076 77.0199 78.468C77.4359 78.86 77.6439 79.424 77.6439 80.16V84H76.5639L76.4319 83.22H76.4079C76.1759 83.508 75.8919 83.732 75.5559 83.892C75.2199 84.044 74.8559 84.12 74.4639 84.12ZM74.7039 82.944C74.9279 82.944 75.1319 82.908 75.3159 82.836C75.5079 82.764 75.6719 82.668 75.8079 82.548C75.9439 82.42 76.0519 82.272 76.1319 82.104C76.2119 81.928 76.2519 81.74 76.2519 81.54V81.396H75.1239C74.6439 81.396 74.3079 81.476 74.1159 81.636C73.9239 81.788 73.8279 81.996 73.8279 82.26C73.8279 82.46 73.8959 82.624 74.0319 82.752C74.1759 82.88 74.3999 82.944 74.7039 82.944ZM78.4872 82.848H78.6072C78.8392 82.848 79.0192 82.78 79.1472 82.644C79.2832 82.5 79.3792 82.304 79.4352 82.056C79.4992 81.8 79.5352 81.504 79.5432 81.168C79.5592 80.824 79.5672 80.448 79.5672 80.04V78H84.1272V84H82.7352V79.272H80.9592V80.04C80.9592 80.504 80.9432 80.98 80.9112 81.468C80.8872 81.948 80.7992 82.384 80.6472 82.776C80.5032 83.168 80.2712 83.492 79.9512 83.748C79.6392 83.996 79.1912 84.12 78.6072 84.12H78.4872V82.848ZM85.6863 78H87.0783V79.8H88.0863C88.9503 79.8 89.5863 79.988 89.9943 80.364C90.4023 80.74 90.6063 81.252 90.6063 81.9C90.6063 82.548 90.3983 83.06 89.9823 83.436C89.5743 83.812 88.9423 84 88.0863 84H85.6863V78ZM87.0783 80.952V82.848H88.0263C88.4263 82.848 88.7103 82.768 88.8783 82.608C89.0543 82.448 89.1423 82.212 89.1423 81.9C89.1423 81.596 89.0543 81.364 88.8783 81.204C88.7023 81.036 88.4183 80.952 88.0263 80.952H87.0783ZM91.5691 78H92.9611V80.304H95.5771V78H96.9691V84H95.5771V81.576H92.9611V84H91.5691V78ZM104.098 78H105.49V84H104.098V78ZM98.53 78H99.922V79.8H100.93C101.794 79.8 102.43 79.988 102.838 80.364C103.246 80.74 103.45 81.252 103.45 81.9C103.45 82.548 103.242 83.06 102.826 83.436C102.418 83.812 101.786 84 100.93 84H98.53V78ZM99.922 80.952V82.848H100.87C101.27 82.848 101.554 82.768 101.722 82.608C101.898 82.448 101.986 82.212 101.986 81.9C101.986 81.596 101.898 81.364 101.722 81.204C101.546 81.036 101.262 80.952 100.87 80.952H99.922ZM109.57 84.12C108.666 84.12 107.958 83.864 107.446 83.352C106.942 82.832 106.69 82.092 106.69 81.132V80.868C106.69 80.396 106.754 79.976 106.882 79.608C107.018 79.232 107.206 78.916 107.446 78.66C107.694 78.404 107.99 78.212 108.334 78.084C108.686 77.948 109.078 77.88 109.51 77.88C110.382 77.88 111.07 78.14 111.574 78.66C112.078 79.18 112.33 79.936 112.33 80.928V81.432H108.094C108.134 81.96 108.266 82.344 108.49 82.584C108.714 82.824 109.054 82.944 109.51 82.944C110.23 82.944 110.67 82.696 110.83 82.2H112.27C112.134 82.824 111.83 83.3 111.358 83.628C110.894 83.956 110.298 84.12 109.57 84.12ZM109.51 79.056C109.086 79.056 108.762 79.164 108.538 79.38C108.314 79.588 108.17 79.928 108.106 80.4H110.914C110.858 79.928 110.718 79.588 110.494 79.38C110.27 79.164 109.942 79.056 109.51 79.056Z" fill="#875BE4"/>
<defs>
<filter id="filter0_di_41_134" x="115" y="107" width="21" height="20" filterUnits="userSpaceOnUse" color-interpolation-filters="sRGB">
<feFlood flood-opacity="0" result="BackgroundImageFix"/>
<feColorMatrix in="SourceAlpha" type="matrix" values="0 0 0 0 0 0 0 0 0 0 0 0 0 0 0 0 0 0 127 0" result="hardAlpha"/>
<feMorphology radius="4" operator="erode" in="SourceAlpha" result="effect1_dropShadow_41_134"/>
<feOffset dx="4" dy="-3"/>
<feGaussianBlur stdDeviation="2"/>
<feComposite in2="hardAlpha" operator="out"/>
<feColorMatrix type="matrix" values="0 0 0 0 0.172537 0 0 0 0 0.11026 0 0 0 0 0.304167 0 0 0 0.46 0"/>
<feBlend mode="normal" in2="BackgroundImageFix" result="effect1_dropShadow_41_134"/>
<feBlend mode="normal" in="SourceGraphic" in2="effect1_dropShadow_41_134" result="shape"/>
<feColorMatrix in="SourceAlpha" type="matrix" values="0 0 0 0 0 0 0 0 0 0 0 0 0 0 0 0 0 0 127 0" result="hardAlpha"/>
<feOffset dy="-1"/>
<feGaussianBlur stdDeviation="2"/>
<feComposite in2="hardAlpha" operator="arithmetic" k2="-1" k3="1"/>
<feColorMatrix type="matrix" values="0 0 0 0 1 0 0 0 0 1 0 0 0 0 1 0 0 0 0.25 0"/>
<feBlend mode="normal" in2="shape" result="effect2_innerShadow_41_134"/>
</filter>
</defs>
</svg>
