<svg width="148" height="159" viewBox="0 0 148 159" fill="none" xmlns="http://www.w3.org/2000/svg">
<path d="M107.324 143.774L105.28 145.16V143.732L107.324 142.318H108.64V152.118H107.324V143.774ZM114.165 152.23C113.651 152.23 113.185 152.146 112.765 151.978C112.354 151.81 112.004 151.544 111.715 151.18C111.425 150.807 111.201 150.331 111.043 149.752C110.884 149.164 110.805 148.455 110.805 147.624V146.812C110.805 145.991 110.884 145.291 111.043 144.712C111.201 144.124 111.425 143.648 111.715 143.284C112.013 142.911 112.368 142.64 112.779 142.472C113.199 142.295 113.661 142.206 114.165 142.206C114.678 142.206 115.14 142.29 115.551 142.458C115.971 142.626 116.325 142.897 116.615 143.27C116.904 143.634 117.128 144.11 117.287 144.698C117.445 145.277 117.525 145.981 117.525 146.812V147.624C117.525 148.445 117.445 149.15 117.287 149.738C117.128 150.317 116.899 150.793 116.601 151.166C116.311 151.53 115.957 151.801 115.537 151.978C115.126 152.146 114.669 152.23 114.165 152.23ZM114.165 150.97C114.473 150.97 114.748 150.919 114.991 150.816C115.243 150.704 115.453 150.522 115.621 150.27C115.789 150.009 115.919 149.663 116.013 149.234C116.106 148.805 116.153 148.268 116.153 147.624V146.812C116.153 146.168 116.106 145.636 116.013 145.216C115.919 144.787 115.784 144.441 115.607 144.18C115.439 143.919 115.229 143.737 114.977 143.634C114.734 143.522 114.463 143.466 114.165 143.466C113.857 143.466 113.577 143.522 113.325 143.634C113.082 143.737 112.877 143.919 112.709 144.18C112.541 144.432 112.41 144.773 112.317 145.202C112.223 145.631 112.177 146.168 112.177 146.812V147.624C112.177 148.268 112.223 148.805 112.317 149.234C112.41 149.654 112.541 149.995 112.709 150.256C112.886 150.517 113.096 150.704 113.339 150.816C113.591 150.919 113.866 150.97 114.165 150.97ZM122.709 152.23C122.196 152.23 121.729 152.146 121.309 151.978C120.899 151.81 120.549 151.544 120.259 151.18C119.97 150.807 119.746 150.331 119.587 149.752C119.429 149.164 119.349 148.455 119.349 147.624V146.812C119.349 145.991 119.429 145.291 119.587 144.712C119.746 144.124 119.97 143.648 120.259 143.284C120.558 142.911 120.913 142.64 121.323 142.472C121.743 142.295 122.205 142.206 122.709 142.206C123.223 142.206 123.685 142.29 124.095 142.458C124.515 142.626 124.87 142.897 125.159 143.27C125.449 143.634 125.673 144.11 125.831 144.698C125.99 145.277 126.069 145.981 126.069 146.812V147.624C126.069 148.445 125.99 149.15 125.831 149.738C125.673 150.317 125.444 150.793 125.145 151.166C124.856 151.53 124.501 151.801 124.081 151.978C123.671 152.146 123.213 152.23 122.709 152.23ZM122.709 150.97C123.017 150.97 123.293 150.919 123.535 150.816C123.787 150.704 123.997 150.522 124.165 150.27C124.333 150.009 124.464 149.663 124.557 149.234C124.651 148.805 124.697 148.268 124.697 147.624V146.812C124.697 146.168 124.651 145.636 124.557 145.216C124.464 144.787 124.329 144.441 124.151 144.18C123.983 143.919 123.773 143.737 123.521 143.634C123.279 143.522 123.008 143.466 122.709 143.466C122.401 143.466 122.121 143.522 121.869 143.634C121.627 143.737 121.421 143.919 121.253 144.18C121.085 144.432 120.955 144.773 120.861 145.202C120.768 145.631 120.721 146.168 120.721 146.812V147.624C120.721 148.268 120.768 148.805 120.861 149.234C120.955 149.654 121.085 149.995 121.253 150.256C121.431 150.517 121.641 150.704 121.883 150.816C122.135 150.919 122.411 150.97 122.709 150.97Z" fill="black" fill-opacity="0.6"/>
<path d="M32.27 152.23C31.7567 152.23 31.29 152.146 30.87 151.978C30.4593 151.81 30.1093 151.544 29.82 151.18C29.5307 150.807 29.3067 150.331 29.148 149.752C28.9893 149.164 28.91 148.455 28.91 147.624V146.812C28.91 145.991 28.9893 145.291 29.148 144.712C29.3067 144.124 29.5307 143.648 29.82 143.284C30.1187 142.911 30.4733 142.64 30.884 142.472C31.304 142.295 31.766 142.206 32.27 142.206C32.7833 142.206 33.2453 142.29 33.656 142.458C34.076 142.626 34.4307 142.897 34.72 143.27C35.0093 143.634 35.2333 144.11 35.392 144.698C35.5507 145.277 35.63 145.981 35.63 146.812V147.624C35.63 148.445 35.5507 149.15 35.392 149.738C35.2333 150.317 35.0047 150.793 34.706 151.166C34.4167 151.53 34.062 151.801 33.642 151.978C33.2313 152.146 32.774 152.23 32.27 152.23ZM32.27 150.97C32.578 150.97 32.8533 150.919 33.096 150.816C33.348 150.704 33.558 150.522 33.726 150.27C33.894 150.009 34.0247 149.663 34.118 149.234C34.2113 148.805 34.258 148.268 34.258 147.624V146.812C34.258 146.168 34.2113 145.636 34.118 145.216C34.0247 144.787 33.8893 144.441 33.712 144.18C33.544 143.919 33.334 143.737 33.082 143.634C32.8393 143.522 32.5687 143.466 32.27 143.466C31.962 143.466 31.682 143.522 31.43 143.634C31.1873 143.737 30.982 143.919 30.814 144.18C30.646 144.432 30.5153 144.773 30.422 145.202C30.3287 145.631 30.282 146.168 30.282 146.812V147.624C30.282 148.268 30.3287 148.805 30.422 149.234C30.5153 149.654 30.646 149.995 30.814 150.256C30.9913 150.517 31.2013 150.704 31.444 150.816C31.696 150.919 31.9713 150.97 32.27 150.97Z" fill="black" fill-opacity="0.6"/>
<mask id="path-3-inside-1_41_145" fill="white">
<path d="M110.328 128.843C111.981 131.378 115.391 132.109 117.793 130.268C128.594 121.992 136.86 110.797 141.58 97.9553C146.932 83.3939 147.437 67.4933 143.021 52.6214C138.605 37.7495 129.503 24.7018 117.071 15.4213C104.639 6.14081 89.5426 1.1239 74.0289 1.11768C58.5151 1.11146 43.4143 6.11626 30.9751 15.3868C18.5358 24.6573 9.42367 37.6977 4.99543 52.5661C0.567193 67.4344 1.05978 83.3354 6.39984 97.9011C11.1094 110.747 19.3671 121.948 30.1615 130.233C32.562 132.076 35.9723 131.347 37.627 128.813C39.2816 126.28 38.5508 122.903 36.1757 121.028C27.3465 114.058 20.5852 104.757 16.6887 94.129C12.1614 81.7802 11.7438 68.2994 15.498 55.694C19.2523 43.0887 26.9776 32.0331 37.5235 24.1735C48.0695 16.314 60.8719 12.0709 74.0245 12.0762C87.177 12.0815 99.9761 16.3348 110.516 24.2028C121.055 32.0708 128.772 43.1326 132.516 55.741C136.26 68.3493 135.832 81.8298 131.294 94.175C127.389 104.8 120.621 114.095 111.786 121.058C109.409 122.931 108.676 126.308 110.328 128.843Z"/>
</mask>
<path d="M110.328 128.843C111.981 131.378 115.391 132.109 117.793 130.268C128.594 121.992 136.86 110.797 141.58 97.9553C146.932 83.3939 147.437 67.4933 143.021 52.6214C138.605 37.7495 129.503 24.7018 117.071 15.4213C104.639 6.14081 89.5426 1.1239 74.0289 1.11768C58.5151 1.11146 43.4143 6.11626 30.9751 15.3868C18.5358 24.6573 9.42367 37.6977 4.99543 52.5661C0.567193 67.4344 1.05978 83.3354 6.39984 97.9011C11.1094 110.747 19.3671 121.948 30.1615 130.233C32.562 132.076 35.9723 131.347 37.627 128.813C39.2816 126.28 38.5508 122.903 36.1757 121.028C27.3465 114.058 20.5852 104.757 16.6887 94.129C12.1614 81.7802 11.7438 68.2994 15.498 55.694C19.2523 43.0887 26.9776 32.0331 37.5235 24.1735C48.0695 16.314 60.8719 12.0709 74.0245 12.0762C87.177 12.0815 99.9761 16.3348 110.516 24.2028C121.055 32.0708 128.772 43.1326 132.516 55.741C136.26 68.3493 135.832 81.8298 131.294 94.175C127.389 104.8 120.621 114.095 111.786 121.058C109.409 122.931 108.676 126.308 110.328 128.843Z" fill="#D9D9D9" stroke="#EFEFEF" stroke-width="28" mask="url(#path-3-inside-1_41_145)"/>
<mask id="path-4-inside-2_41_145" fill="white">
<path d="M110.529 121.854C120.843 114.141 128.452 103.362 132.265 91.061C136.078 78.7596 135.9 65.5669 131.756 53.3729C127.612 41.1789 119.715 30.6093 109.197 23.1783C98.6778 15.7473 86.0769 11.8362 73.1992 12.0053C60.3214 12.1743 47.8276 16.4149 37.5075 24.1195C27.1875 31.8241 19.5707 42.5974 15.7484 54.896C11.9262 67.1946 12.0945 80.3874 16.2293 92.5844C20.3642 104.781 28.2533 115.357 38.7666 122.796L44.9571 114.047C36.291 107.915 29.788 99.1975 26.3797 89.1434C22.9713 79.0894 22.8325 68.2146 25.9832 58.0769C29.1339 47.9392 35.4124 39.0588 43.9193 32.7078C52.4261 26.3569 62.7248 22.8614 73.3399 22.722C83.955 22.5827 94.3419 25.8066 103.013 31.932C111.683 38.0574 118.193 46.7699 121.608 56.8214C125.024 66.8729 125.171 77.7476 122.028 87.8876C118.885 98.0277 112.613 106.913 104.11 113.27L110.529 121.854Z"/>
</mask>
<path d="M110.529 121.854C120.843 114.141 128.452 103.362 132.265 91.061C136.078 78.7596 135.9 65.5669 131.756 53.3729C127.612 41.1789 119.715 30.6093 109.197 23.1783C98.6778 15.7473 86.0769 11.8362 73.1992 12.0053C60.3214 12.1743 47.8276 16.4149 37.5075 24.1195C27.1875 31.8241 19.5707 42.5974 15.7484 54.896C11.9262 67.1946 12.0945 80.3874 16.2293 92.5844C20.3642 104.781 28.2533 115.357 38.7666 122.796L44.9571 114.047C36.291 107.915 29.788 99.1975 26.3797 89.1434C22.9713 79.0894 22.8325 68.2146 25.9832 58.0769C29.1339 47.9392 35.4124 39.0588 43.9193 32.7078C52.4261 26.3569 62.7248 22.8614 73.3399 22.722C83.955 22.5827 94.3419 25.8066 103.013 31.932C111.683 38.0574 118.193 46.7699 121.608 56.8214C125.024 66.8729 125.171 77.7476 122.028 87.8876C118.885 98.0277 112.613 106.913 104.11 113.27L110.529 121.854Z" stroke="#E0E0E0" stroke-width="18" stroke-dasharray="1 20" mask="url(#path-4-inside-2_41_145)"/>
<mask id="path-5-inside-3_41_145" fill="white">
<path d="M134.008 102.028C136.69 103.32 139.933 102.199 141.021 99.4279C145.398 88.2763 146.935 76.1793 145.45 64.2345C143.742 50.5019 138.114 37.5522 129.238 26.9356C120.361 16.319 108.614 8.48523 95.4008 4.37198C82.1879 0.25874 68.0696 0.0403032 54.7358 3.74282C41.402 7.44536 29.4177 14.912 20.2173 25.2489C11.0169 35.5858 4.99038 48.3551 2.85899 62.0283C0.727595 75.7015 2.58167 89.6993 8.1993 102.346C13.0856 113.346 20.6393 122.919 30.1401 130.217C32.5012 132.031 35.8573 131.319 37.4893 128.829C39.1212 126.339 38.408 123.015 36.071 121.171C28.292 115.031 22.0976 107.075 18.0528 97.9692C13.2763 87.2163 11.6999 75.3146 13.5121 63.689C15.3244 52.0633 20.4485 41.2062 28.2711 32.4171C36.0937 23.6281 46.2835 17.2796 57.6206 14.1315C68.9577 10.9835 80.9618 11.1692 92.1961 14.6665C103.43 18.1638 113.419 24.8245 120.966 33.8513C128.513 42.8781 133.299 53.8885 134.75 65.5647C135.98 75.4525 134.774 85.4629 131.275 94.7347C130.223 97.5202 131.326 100.736 134.008 102.028Z"/>
</mask>
<path d="M134.008 102.028C136.69 103.32 139.933 102.199 141.021 99.4279C145.398 88.2763 146.935 76.1793 145.45 64.2345C143.742 50.5019 138.114 37.5522 129.238 26.9356C120.361 16.319 108.614 8.48523 95.4008 4.37198C82.1879 0.25874 68.0696 0.0403032 54.7358 3.74282C41.402 7.44536 29.4177 14.912 20.2173 25.2489C11.0169 35.5858 4.99038 48.3551 2.85899 62.0283C0.727595 75.7015 2.58167 89.6993 8.1993 102.346C13.0856 113.346 20.6393 122.919 30.1401 130.217C32.5012 132.031 35.8573 131.319 37.4893 128.829C39.1212 126.339 38.408 123.015 36.071 121.171C28.292 115.031 22.0976 107.075 18.0528 97.9692C13.2763 87.2163 11.6999 75.3146 13.5121 63.689C15.3244 52.0633 20.4485 41.2062 28.2711 32.4171C36.0937 23.6281 46.2835 17.2796 57.6206 14.1315C68.9577 10.9835 80.9618 11.1692 92.1961 14.6665C103.43 18.1638 113.419 24.8245 120.966 33.8513C128.513 42.8781 133.299 53.8885 134.75 65.5647C135.98 75.4525 134.774 85.4629 131.275 94.7347C130.223 97.5202 131.326 100.736 134.008 102.028Z" fill="#D9D9D9" stroke="#41A2E2" stroke-width="28" mask="url(#path-5-inside-3_41_145)"/>
<g filter="url(#filter0_di_41_145)">
<circle cx="137.5" cy="94.5" r="8.5" fill="#41A2E2"/>
</g>
<path d="M28.8459 75.6H31.7859C32.8739 75.6 33.6739 75.844 34.1859 76.332C34.7059 76.812 34.9659 77.492 34.9659 78.372C34.9659 79.244 34.7019 79.928 34.1739 80.424C33.6459 80.92 32.8499 81.168 31.7859 81.168H30.2859V84H28.8459V75.6ZM30.2859 76.92V79.848H31.7259C32.3419 79.848 32.7819 79.724 33.0459 79.476C33.3179 79.228 33.4539 78.86 33.4539 78.372C33.4539 77.916 33.3139 77.56 33.0339 77.304C32.7539 77.048 32.3179 76.92 31.7259 76.92H30.2859ZM38.384 84.12C37.48 84.12 36.772 83.864 36.26 83.352C35.756 82.832 35.504 82.092 35.504 81.132V80.868C35.504 80.396 35.568 79.976 35.696 79.608C35.832 79.232 36.02 78.916 36.26 78.66C36.508 78.404 36.804 78.212 37.148 78.084C37.5 77.948 37.892 77.88 38.324 77.88C39.196 77.88 39.884 78.14 40.388 78.66C40.892 79.18 41.144 79.936 41.144 80.928V81.432H36.908C36.948 81.96 37.08 82.344 37.304 82.584C37.528 82.824 37.868 82.944 38.324 82.944C39.044 82.944 39.484 82.696 39.644 82.2H41.084C40.948 82.824 40.644 83.3 40.172 83.628C39.708 83.956 39.112 84.12 38.384 84.12ZM38.324 79.056C37.9 79.056 37.576 79.164 37.352 79.38C37.128 79.588 36.984 79.928 36.92 80.4H39.728C39.672 79.928 39.532 79.588 39.308 79.38C39.084 79.164 38.756 79.056 38.324 79.056ZM42.3445 78H43.7365V80.244H44.3365L45.8245 78H47.3845L45.4525 80.808L47.6245 84H45.9685L44.3365 81.516H43.7365V84H42.3445V78ZM50.8059 84.12C49.9019 84.12 49.1939 83.864 48.6819 83.352C48.1779 82.832 47.9259 82.092 47.9259 81.132V80.868C47.9259 80.396 47.9899 79.976 48.1179 79.608C48.2539 79.24 48.4459 78.928 48.6939 78.672C48.9499 78.416 49.2539 78.22 49.6059 78.084C49.9579 77.948 50.3579 77.88 50.8059 77.88C51.7099 77.88 52.4139 78.14 52.9179 78.66C53.4299 79.172 53.6859 79.908 53.6859 80.868V81.132C53.6859 81.604 53.6179 82.024 53.4819 82.392C53.3539 82.76 53.1619 83.072 52.9059 83.328C52.6579 83.584 52.3539 83.78 51.9939 83.916C51.6419 84.052 51.2459 84.12 50.8059 84.12ZM50.8059 82.848C51.2459 82.848 51.5899 82.712 51.8379 82.44C52.0939 82.16 52.2219 81.724 52.2219 81.132V80.868C52.2219 80.292 52.0939 79.864 51.8379 79.584C51.5819 79.296 51.2379 79.152 50.8059 79.152C50.3659 79.152 50.0179 79.292 49.7619 79.572C49.5139 79.844 49.3899 80.276 49.3899 80.868V81.132C49.3899 81.708 49.5179 82.14 49.7739 82.428C50.0299 82.708 50.3739 82.848 50.8059 82.848ZM54.8835 78H56.9475L58.2195 81.264H58.2435L59.5155 78H61.4835V84H60.0915V79.62H60.0675L58.8795 82.68H57.4875L56.2995 79.62H56.2755V84H54.8835V78ZM65.5598 84.12C64.6558 84.12 63.9478 83.864 63.4358 83.352C62.9318 82.832 62.6798 82.092 62.6798 81.132V80.868C62.6798 80.396 62.7438 79.976 62.8718 79.608C63.0078 79.232 63.1958 78.916 63.4358 78.66C63.6838 78.404 63.9798 78.212 64.3238 78.084C64.6758 77.948 65.0678 77.88 65.4998 77.88C66.3718 77.88 67.0598 78.14 67.5638 78.66C68.0678 79.18 68.3198 79.936 68.3198 80.928V81.432H64.0838C64.1238 81.96 64.2558 82.344 64.4798 82.584C64.7038 82.824 65.0438 82.944 65.4998 82.944C66.2198 82.944 66.6598 82.696 66.8198 82.2H68.2598C68.1238 82.824 67.8198 83.3 67.3478 83.628C66.8838 83.956 66.2878 84.12 65.5598 84.12ZM65.4998 79.056C65.0758 79.056 64.7518 79.164 64.5278 79.38C64.3038 79.588 64.1598 79.928 64.0958 80.4H66.9038C66.8478 79.928 66.7078 79.588 66.4838 79.38C66.2598 79.164 65.9318 79.056 65.4998 79.056ZM69.5202 78H70.9122V80.304H73.5282V78H74.9202V84H73.5282V81.576H70.9122V84H69.5202V78ZM75.8212 82.728H76.4212C76.5252 82.568 76.6132 82.392 76.6852 82.2C76.7652 82.008 76.8292 81.796 76.8772 81.564C76.9252 81.332 76.9612 81.072 76.9852 80.784C77.0092 80.488 77.0212 80.16 77.0212 79.8V78H81.5812V82.728H82.2412V85.56H80.9212V84H77.1412V85.56H75.8212V82.728ZM80.1892 82.728V79.272H78.3412V79.8C78.3412 80.48 78.3052 81.048 78.2332 81.504C78.1692 81.96 78.0612 82.36 77.9092 82.704V82.728H80.1892ZM84.7948 84L82.3588 78H83.8708L85.5148 82.272H85.5388L87.0628 78H88.4788L85.2988 86.4H83.8828L84.7948 84ZM91.6574 84.12C90.7534 84.12 90.0454 83.864 89.5334 83.352C89.0294 82.832 88.7774 82.092 88.7774 81.132V80.868C88.7774 80.396 88.8414 79.976 88.9694 79.608C89.1054 79.232 89.2934 78.916 89.5334 78.66C89.7814 78.404 90.0774 78.212 90.4214 78.084C90.7734 77.948 91.1654 77.88 91.5974 77.88C92.4694 77.88 93.1574 78.14 93.6614 78.66C94.1654 79.18 94.4174 79.936 94.4174 80.928V81.432H90.1814C90.2214 81.96 90.3534 82.344 90.5774 82.584C90.8014 82.824 91.1414 82.944 91.5974 82.944C92.3174 82.944 92.7574 82.696 92.9174 82.2H94.3574C94.2214 82.824 93.9174 83.3 93.4454 83.628C92.9814 83.956 92.3854 84.12 91.6574 84.12ZM91.5974 79.056C91.1734 79.056 90.8494 79.164 90.6254 79.38C90.4014 79.588 90.2574 79.928 90.1934 80.4H93.0014C92.9454 79.928 92.8054 79.588 92.5814 79.38C92.3574 79.164 92.0294 79.056 91.5974 79.056ZM95.6179 78H97.6819L98.9539 81.264H98.9779L100.25 78H102.218V84H100.826V79.62H100.802L99.6139 82.68H98.2219L97.0339 79.62H97.0099V84H95.6179V78ZM109.342 78H110.734V84H109.342V78ZM103.774 78H105.166V79.8H106.174C107.038 79.8 107.674 79.988 108.082 80.364C108.49 80.74 108.694 81.252 108.694 81.9C108.694 82.548 108.486 83.06 108.07 83.436C107.662 83.812 107.03 84 106.174 84H103.774V78ZM105.166 80.952V82.848H106.114C106.514 82.848 106.798 82.768 106.966 82.608C107.142 82.448 107.23 82.212 107.23 81.9C107.23 81.596 107.142 81.364 106.966 81.204C106.79 81.036 106.506 80.952 106.114 80.952H105.166ZM114.814 84.12C113.91 84.12 113.202 83.864 112.69 83.352C112.186 82.832 111.934 82.092 111.934 81.132V80.868C111.934 80.396 111.998 79.976 112.126 79.608C112.262 79.232 112.45 78.916 112.69 78.66C112.938 78.404 113.234 78.212 113.578 78.084C113.93 77.948 114.322 77.88 114.754 77.88C115.626 77.88 116.314 78.14 116.818 78.66C117.322 79.18 117.574 79.936 117.574 80.928V81.432H113.338C113.378 81.96 113.51 82.344 113.734 82.584C113.958 82.824 114.298 82.944 114.754 82.944C115.474 82.944 115.914 82.696 116.074 82.2H117.514C117.378 82.824 117.074 83.3 116.602 83.628C116.138 83.956 115.542 84.12 114.814 84.12ZM114.754 79.056C114.33 79.056 114.006 79.164 113.782 79.38C113.558 79.588 113.414 79.928 113.35 80.4H116.158C116.102 79.928 115.962 79.588 115.738 79.38C115.514 79.164 115.186 79.056 114.754 79.056Z" fill="#41A2E2"/>
<path d="M69.425 69.15C68.805 69.15 68.26 69.075 67.79 68.925C67.33 68.775 66.94 68.565 66.62 68.295C66.31 68.025 66.075 67.705 65.915 67.335C65.755 66.955 65.675 66.54 65.675 66.09C65.675 65.49 65.825 64.98 66.125 64.56C66.435 64.14 66.84 63.8 67.34 63.54C66.92 63.3 66.585 62.99 66.335 62.61C66.095 62.23 65.975 61.77 65.975 61.23C65.975 60.82 66.055 60.44 66.215 60.09C66.375 59.74 66.605 59.435 66.905 59.175C67.205 58.915 67.565 58.715 67.985 58.575C68.415 58.425 68.895 58.35 69.425 58.35C69.965 58.35 70.45 58.425 70.88 58.575C71.31 58.715 71.67 58.915 71.96 59.175C72.26 59.425 72.485 59.725 72.635 60.075C72.795 60.425 72.875 60.81 72.875 61.23C72.875 61.76 72.75 62.215 72.5 62.595C72.25 62.975 71.915 63.285 71.495 63.525C72.005 63.785 72.41 64.13 72.71 64.56C73.02 64.98 73.175 65.49 73.175 66.09C73.175 66.52 73.09 66.925 72.92 67.305C72.76 67.675 72.52 68 72.2 68.28C71.89 68.55 71.5 68.765 71.03 68.925C70.57 69.075 70.035 69.15 69.425 69.15ZM69.425 62.835C69.635 62.805 69.835 62.755 70.025 62.685C70.215 62.615 70.38 62.52 70.52 62.4C70.66 62.28 70.77 62.135 70.85 61.965C70.94 61.785 70.985 61.565 70.985 61.305C70.985 61.145 70.945 60.99 70.865 60.84C70.795 60.69 70.69 60.555 70.55 60.435C70.42 60.315 70.26 60.22 70.07 60.15C69.88 60.07 69.665 60.03 69.425 60.03C69.185 60.03 68.965 60.07 68.765 60.15C68.575 60.22 68.41 60.315 68.27 60.435C68.14 60.555 68.04 60.69 67.97 60.84C67.9 60.99 67.865 61.145 67.865 61.305C67.865 61.545 67.91 61.755 68 61.935C68.09 62.115 68.205 62.265 68.345 62.385C68.495 62.505 68.66 62.605 68.84 62.685C69.03 62.755 69.225 62.805 69.425 62.835ZM69.425 67.47C69.725 67.47 69.99 67.43 70.22 67.35C70.45 67.27 70.64 67.165 70.79 67.035C70.95 66.895 71.07 66.74 71.15 66.57C71.24 66.4 71.285 66.22 71.285 66.03C71.285 65.77 71.235 65.54 71.135 65.34C71.035 65.13 70.9 64.95 70.73 64.8C70.56 64.65 70.36 64.53 70.13 64.44C69.91 64.35 69.675 64.29 69.425 64.26C68.905 64.32 68.465 64.495 68.105 64.785C67.745 65.075 67.565 65.49 67.565 66.03C67.565 66.22 67.605 66.405 67.685 66.585C67.775 66.755 67.9 66.905 68.06 67.035C68.22 67.165 68.415 67.27 68.645 67.35C68.875 67.43 69.135 67.47 69.425 67.47ZM78.4227 69.15C77.8527 69.15 77.3377 69.06 76.8777 68.88C76.4177 68.69 76.0227 68.41 75.6927 68.04C75.3627 67.66 75.1077 67.185 74.9277 66.615C74.7577 66.035 74.6727 65.36 74.6727 64.59V63.81C74.6727 62.84 74.7677 62.01 74.9577 61.32C75.1477 60.63 75.4127 60.065 75.7527 59.625C76.1027 59.185 76.5127 58.865 76.9827 58.665C77.4627 58.455 77.9927 58.35 78.5727 58.35C79.0227 58.35 79.4277 58.415 79.7877 58.545C80.1577 58.675 80.4777 58.86 80.7477 59.1C81.0177 59.33 81.2377 59.605 81.4077 59.925C81.5877 60.245 81.7177 60.595 81.7977 60.975H79.9527C79.8427 60.715 79.6727 60.495 79.4427 60.315C79.2127 60.125 78.8977 60.03 78.4977 60.03C78.2077 60.03 77.9377 60.085 77.6877 60.195C77.4377 60.295 77.2227 60.46 77.0427 60.69C76.8627 60.91 76.7177 61.2 76.6077 61.56C76.4977 61.92 76.4327 62.355 76.4127 62.865C76.9827 62.265 77.7027 61.965 78.5727 61.965C79.6527 61.965 80.4977 62.275 81.1077 62.895C81.7177 63.505 82.0227 64.36 82.0227 65.46V65.64C82.0227 66.15 81.9327 66.62 81.7527 67.05C81.5827 67.48 81.3377 67.85 81.0177 68.16C80.7077 68.47 80.3277 68.715 79.8777 68.895C79.4377 69.065 78.9527 69.15 78.4227 69.15ZM76.5627 65.64C76.5627 66.21 76.7227 66.66 77.0427 66.99C77.3727 67.31 77.8327 67.47 78.4227 67.47C78.9327 67.47 79.3427 67.31 79.6527 66.99C79.9727 66.66 80.1327 66.21 80.1327 65.64V65.46C80.1327 64.89 79.9727 64.445 79.6527 64.125C79.3427 63.805 78.9327 63.645 78.4227 63.645C77.8327 63.645 77.3727 63.805 77.0427 64.125C76.7227 64.445 76.5627 64.89 76.5627 65.46V65.64Z" fill="#41A2E2"/>
<defs>
<filter id="filter0_di_41_145" x="129" y="82" width="19" height="21" filterUnits="userSpaceOnUse" color-interpolation-filters="sRGB">
<feFlood flood-opacity="0" result="BackgroundImageFix"/>
<feColorMatrix in="SourceAlpha" type="matrix" values="0 0 0 0 0 0 0 0 0 0 0 0 0 0 0 0 0 0 127 0" result="hardAlpha"/>
<feMorphology radius="4" operator="erode" in="SourceAlpha" result="effect1_dropShadow_41_145"/>
<feOffset dx="2" dy="-4"/>
<feGaussianBlur stdDeviation="2"/>
<feComposite in2="hardAlpha" operator="out"/>
<feColorMatrix type="matrix" values="0 0 0 0 0.172537 0 0 0 0 0.11026 0 0 0 0 0.304167 0 0 0 0.46 0"/>
<feBlend mode="normal" in2="BackgroundImageFix" result="effect1_dropShadow_41_145"/>
<feBlend mode="normal" in="SourceGraphic" in2="effect1_dropShadow_41_145" result="shape"/>
<feColorMatrix in="SourceAlpha" type="matrix" values="0 0 0 0 0 0 0 0 0 0 0 0 0 0 0 0 0 0 127 0" result="hardAlpha"/>
<feOffset dy="-1"/>
<feGaussianBlur stdDeviation="2"/>
<feComposite in2="hardAlpha" operator="arithmetic" k2="-1" k3="1"/>
<feColorMatrix type="matrix" values="0 0 0 0 1 0 0 0 0 1 0 0 0 0 1 0 0 0 0.25 0"/>
<feBlend mode="normal" in2="shape" result="effect2_innerShadow_41_145"/>
</filter>
</defs>
</svg>
