<svg width="22" height="22" viewBox="0 0 22 22" fill="none" xmlns="http://www.w3.org/2000/svg">
<path fill-rule="evenodd" clip-rule="evenodd" d="M6.08548 0.0959292C5.97511 0.150563 5.847 0.263908 5.78756 0.359425C5.68682 0.521537 5.68283 0.569204 5.66812 1.79492L5.65295 3.06272L5.41603 3.1394C4.90119 3.306 4.46233 3.58155 4.02903 4.01042C3.54301 4.49139 3.29134 4.88725 3.108 5.45907L2.97917 5.86089L1.71055 5.87524C0.512829 5.88876 0.434867 5.89485 0.315471 5.98409C0.0749833 6.16376 0 6.3102 0 6.6C0 6.8898 0.0749833 7.03624 0.315471 7.21591C0.434683 7.30501 0.512508 7.3112 1.67617 7.32398L2.91042 7.33755V8.8V10.2625L1.67617 10.276C0.512508 10.2888 0.434683 10.295 0.315471 10.3841C0.0749833 10.5638 0 10.7102 0 11C0 11.2898 0.0749833 11.4362 0.315471 11.6159C0.434683 11.705 0.512508 11.7112 1.67617 11.724L2.91042 11.7376V13.2V14.6624L1.67617 14.676C0.512508 14.6888 0.434683 14.695 0.315471 14.7841C0.0749833 14.9638 0 15.1102 0 15.4C0 15.6898 0.0749833 15.8362 0.315471 16.0159C0.434867 16.1051 0.512829 16.1112 1.71055 16.1248L2.97917 16.1391L3.108 16.5409C3.29134 17.1127 3.54301 17.5086 4.02903 17.9896C4.46233 18.4184 4.90119 18.694 5.41603 18.8606L5.65295 18.9373L5.66812 20.2051C5.68288 21.433 5.68663 21.4782 5.7882 21.6415C5.90379 21.8274 6.20629 22 6.41667 22C6.59707 22 6.90172 21.8415 7.0125 21.6899C7.09798 21.5731 7.10508 21.4803 7.11769 20.3156L7.13121 19.0667H8.68537H10.2395L10.2531 20.3009C10.2659 21.4646 10.2721 21.5424 10.3612 21.6616C10.5408 21.9021 10.6873 21.9771 10.9771 21.9771C11.2669 21.9771 11.4133 21.9021 11.593 21.6616C11.6821 21.5424 11.6883 21.4646 11.7011 20.3009L11.7146 19.0667H13.0836H14.4525L14.4679 20.2698C14.4828 21.43 14.4871 21.4789 14.5882 21.6415C14.7038 21.8274 15.0063 22 15.2167 22C15.3971 22 15.7017 21.8415 15.8125 21.6899C15.8981 21.5729 15.9051 21.4803 15.9177 20.2931L15.9312 19.0216L16.0552 18.9944C16.815 18.8281 17.3902 18.519 17.9251 17.9896C18.4112 17.5086 18.6628 17.1127 18.8462 16.5409L18.975 16.1391L20.2436 16.1248C21.4413 16.1112 21.5193 16.1051 21.6387 16.0159C21.8792 15.8362 21.9542 15.6898 21.9542 15.4C21.9542 15.1102 21.8792 14.9638 21.6387 14.7841C21.5195 14.695 21.4417 14.6888 20.278 14.676L19.0438 14.6624V13.2V11.7376L20.278 11.724C21.4417 11.7112 21.5195 11.705 21.6387 11.6159C21.8792 11.4362 21.9542 11.2898 21.9542 11C21.9542 10.7102 21.8792 10.5638 21.6387 10.3841C21.5195 10.295 21.4417 10.2888 20.278 10.276L19.0438 10.2625V8.8V7.33755L20.278 7.32398C21.4417 7.3112 21.5195 7.30501 21.6387 7.21591C21.8792 7.03624 21.9542 6.8898 21.9542 6.6C21.9542 6.3102 21.8792 6.16376 21.6387 5.98409C21.5193 5.89485 21.4413 5.88876 20.2436 5.87524L18.975 5.86089L18.8462 5.45907C18.6632 4.88854 18.4111 4.49158 17.9251 4.00904C17.3942 3.48178 16.8178 3.17254 16.0552 3.00557L15.9312 2.97843L15.9177 1.70693C15.9051 0.519658 15.8981 0.427121 15.8125 0.310062C15.7017 0.158537 15.3971 0 15.2167 0C15.0063 0 14.7038 0.172562 14.5882 0.358462C14.4871 0.521079 14.4828 0.569983 14.4679 1.73021L14.4525 2.93333H13.0836H11.7146L11.7011 1.69909C11.6883 0.535425 11.6821 0.4576 11.593 0.338387C11.4133 0.0979 11.2669 0.0229167 10.9771 0.0229167C10.6873 0.0229167 10.5408 0.0979 10.3612 0.338387C10.2721 0.4576 10.2659 0.535425 10.2531 1.69909L10.2395 2.93333H8.68537H7.13121L7.11769 1.68438C7.10243 0.274038 7.10256 0.274725 6.73448 0.0923541C6.4972 -0.0252542 6.32839 -0.0242916 6.08548 0.0959292ZM15.8953 4.46838C16.6901 4.67541 17.301 5.28431 17.5069 6.07484C17.6126 6.48056 17.6126 15.5194 17.5069 15.9252C17.301 16.7157 16.6901 17.3246 15.8953 17.5316C15.5017 17.6341 6.45246 17.6341 6.05885 17.5316C5.26405 17.3246 4.65318 16.7157 4.44725 15.9252C4.34307 15.5252 4.34142 6.48115 4.44547 6.08176C4.64984 5.2971 5.2575 4.68078 6.03222 4.47246C6.40777 4.37145 15.5088 4.36769 15.8953 4.46838ZM7.49888 5.93913C6.72416 6.14744 6.1165 6.76376 5.91213 7.54843C5.81034 7.93916 5.81034 14.0608 5.91213 14.4516C6.11916 15.2464 6.72806 15.8572 7.51859 16.0632C7.92138 16.1681 14.0328 16.1681 14.4356 16.0632C15.2261 15.8572 15.835 15.2464 16.042 14.4516C16.1438 14.0608 16.1438 7.93916 16.042 7.54843C15.835 6.75363 15.2261 6.14277 14.4356 5.93684C14.0456 5.83527 7.87751 5.83729 7.49888 5.93913ZM14.3053 7.45076C14.3749 7.50273 14.4743 7.60219 14.5263 7.67181C14.6197 7.79685 14.6208 7.83787 14.6208 11C14.6208 14.1621 14.6197 14.2032 14.5263 14.3282C14.4743 14.3978 14.3749 14.4973 14.3053 14.5492C14.1802 14.6426 14.1392 14.6438 10.9771 14.6438C7.81495 14.6438 7.77393 14.6426 7.6489 14.5492C7.57928 14.4973 7.47982 14.3978 7.42784 14.3282C7.33489 14.2037 7.3331 14.1504 7.31995 11.1227C7.31257 9.42929 7.31853 7.97734 7.33324 7.89612C7.36643 7.71242 7.55897 7.47835 7.74354 7.39732C7.85666 7.34763 8.48416 7.33787 11.031 7.34608C14.1307 7.35611 14.1807 7.35767 14.3053 7.45076Z" fill="#53566A"/>
</svg>
