<svg width="22" height="22" viewBox="0 0 22 22" fill="none" xmlns="http://www.w3.org/2000/svg">
<path d="M11 0C17.0751 0 22 4.92487 22 11C22 17.0751 17.0751 22 11 22C4.92487 22 0 17.0751 0 11C0 4.92487 4.92487 0 11 0ZM11 1.8C5.91898 1.8 1.8 5.91898 1.8 11C1.8 16.081 5.91898 20.2 11 20.2C16.081 20.2 20.2 16.081 20.2 11C20.2 5.91898 16.081 1.8 11 1.8ZM14.5 6.5C15.0523 6.5 15.5 6.94772 15.5 7.5V13.5C15.5 14.0523 15.0523 14.5 14.5 14.5C13.9477 14.5 13.5 14.0523 13.5 13.5V9.914L8.20711 15.2071C7.84662 15.5676 7.27939 15.5953 6.8871 15.2903L6.79289 15.2071C6.40237 14.8166 6.40237 14.1834 6.79289 13.7929L12.084 8.5H8.5C7.98716 8.5 7.56449 8.11396 7.50673 7.61662L7.5 7.5C7.5 6.94772 7.94772 6.5 8.5 6.5H14.5Z" fill="white"/>
</svg>
