<svg width="354" height="318" viewBox="0 0 354 318" fill="none" xmlns="http://www.w3.org/2000/svg">
<circle cx="185.5" cy="161.5" r="156.5" fill="url(#paint0_radial_22_647)" fill-opacity="0.23"/>
<circle cx="185.5" cy="161.5" r="33.5" fill="#1D1E27" fill-opacity="0.24"/>
<path fill-rule="evenodd" clip-rule="evenodd" d="M186.216 159.545L186.216 31H184.216L184.216 159.819L61.6164 120.104L61 122.006L183.915 161.824L108.531 265.801L110.15 266.975L185.344 163.261L260.537 266.975L262.156 265.801L186.563 161.535L309.071 121.849L308.454 119.947L186.216 159.545ZM185.242 161.616L184.949 161.404L185.061 161.057L185.242 161.616Z" fill="#1D1E27"/>
<path d="M1.13578 114.6H3.95578C4.99578 114.6 5.76378 114.836 6.25978 115.308C6.76378 115.78 7.01578 116.44 7.01578 117.288C7.01578 118.136 6.76378 118.796 6.25978 119.268C5.75578 119.74 4.98778 119.976 3.95578 119.976H2.26378V123H1.13578V114.6ZM2.26378 115.632V118.944H3.89578C4.59178 118.944 5.08778 118.808 5.38378 118.536C5.68778 118.256 5.83978 117.84 5.83978 117.288C5.83978 116.744 5.68778 116.332 5.38378 116.052C5.07978 115.772 4.58378 115.632 3.89578 115.632H2.26378ZM10.5539 123.096C10.1299 123.096 9.74591 123.032 9.40191 122.904C9.06591 122.768 8.77791 122.576 8.53791 122.328C8.29791 122.072 8.11391 121.764 7.98591 121.404C7.85791 121.044 7.79391 120.632 7.79391 120.168V119.832C7.79391 119.368 7.85791 118.956 7.98591 118.596C8.11391 118.228 8.29391 117.92 8.52591 117.672C8.76591 117.424 9.04991 117.236 9.37791 117.108C9.71391 116.972 10.0859 116.904 10.4939 116.904C10.9019 116.904 11.2699 116.972 11.5979 117.108C11.9339 117.236 12.2179 117.428 12.4499 117.684C12.6899 117.94 12.8739 118.252 13.0019 118.62C13.1299 118.988 13.1939 119.412 13.1939 119.892V120.324H8.92191C8.93791 120.892 9.08191 121.332 9.35391 121.644C9.63391 121.956 10.0139 122.112 10.4939 122.112C10.8779 122.112 11.1939 122.04 11.4419 121.896C11.6899 121.752 11.8779 121.52 12.0059 121.2H13.1339C12.9899 121.824 12.6939 122.296 12.2459 122.616C11.8059 122.936 11.2419 123.096 10.5539 123.096ZM10.4939 117.888C10.0379 117.888 9.67791 118.02 9.41391 118.284C9.14991 118.548 8.98991 118.932 8.93391 119.436H12.0659C11.9699 118.404 11.4459 117.888 10.4939 117.888ZM14.6344 117H15.7144V121.68H15.7384L18.3544 117H19.7944V123H18.7144V118.32H18.6904L16.0744 123H14.6344V117ZM17.2144 116.256C16.6864 116.256 16.2744 116.112 15.9784 115.824C15.6824 115.528 15.5344 115.12 15.5344 114.6H16.4704C16.4704 114.912 16.5344 115.144 16.6624 115.296C16.7984 115.44 16.9824 115.512 17.2144 115.512C17.4464 115.512 17.6264 115.44 17.7544 115.296C17.8904 115.144 17.9584 114.912 17.9584 114.6H18.8944C18.8944 115.12 18.7464 115.528 18.4504 115.824C18.1544 116.112 17.7424 116.256 17.2144 116.256ZM22.7953 117.984H20.8753V117H25.7953V117.984H23.8753V123H22.7953V117.984ZM26.8805 117H27.9605V121.68H27.9845L30.6005 117H32.0405V123H30.9605V118.32H30.9365L28.3205 123H26.8805V117ZM33.8414 117H34.9214V119.448H37.9214V117H39.0014V123H37.9214V120.432H34.9214V123H33.8414V117ZM40.8023 117H44.8223V117.984H41.8823V123H40.8023V117Z" fill="white" fill-opacity="0.6"/>
<path d="M71.96 276.6H73.088V283.968H77.312V276.6H78.44V283.968H79.4V286.8H78.32V285H71.96V276.6ZM82.9953 285.096C82.5713 285.096 82.1873 285.032 81.8433 284.904C81.5073 284.768 81.2193 284.576 80.9793 284.328C80.7393 284.072 80.5553 283.764 80.4273 283.404C80.2993 283.044 80.2353 282.632 80.2353 282.168V281.832C80.2353 281.368 80.2993 280.956 80.4273 280.596C80.5553 280.228 80.7353 279.92 80.9673 279.672C81.2073 279.424 81.4913 279.236 81.8193 279.108C82.1553 278.972 82.5273 278.904 82.9353 278.904C83.3433 278.904 83.7113 278.972 84.0393 279.108C84.3753 279.236 84.6593 279.428 84.8913 279.684C85.1313 279.94 85.3153 280.252 85.4433 280.62C85.5713 280.988 85.6353 281.412 85.6353 281.892V282.324H81.3633C81.3793 282.892 81.5233 283.332 81.7953 283.644C82.0753 283.956 82.4553 284.112 82.9353 284.112C83.3193 284.112 83.6353 284.04 83.8833 283.896C84.1313 283.752 84.3193 283.52 84.4473 283.2H85.5753C85.4313 283.824 85.1353 284.296 84.6873 284.616C84.2473 284.936 83.6833 285.096 82.9953 285.096ZM82.9353 279.888C82.4793 279.888 82.1193 280.02 81.8553 280.284C81.5913 280.548 81.4313 280.932 81.3753 281.436H84.5073C84.4113 280.404 83.8873 279.888 82.9353 279.888ZM87.0758 279H88.1558V281.448H91.1558V279H92.2358V285H91.1558V282.432H88.1558V285H87.0758V279ZM95.6567 285.096C94.9767 285.096 94.4647 284.936 94.1207 284.616C93.7847 284.296 93.6167 283.86 93.6167 283.308C93.6167 282.708 93.8167 282.236 94.2167 281.892C94.6247 281.54 95.2847 281.364 96.1967 281.364H97.5767V281.04C97.5767 280.648 97.4727 280.36 97.2647 280.176C97.0647 279.984 96.7287 279.888 96.2567 279.888C95.8247 279.888 95.5087 279.964 95.3087 280.116C95.1087 280.26 94.9927 280.448 94.9607 280.68H93.8567C93.8727 280.432 93.9327 280.2 94.0367 279.984C94.1487 279.768 94.3047 279.58 94.5047 279.42C94.7047 279.26 94.9487 279.136 95.2367 279.048C95.5327 278.952 95.8727 278.904 96.2567 278.904C97.0807 278.904 97.6847 279.088 98.0687 279.456C98.4607 279.824 98.6567 280.372 98.6567 281.1V285H97.8167L97.6847 284.1H97.6607C97.1727 284.764 96.5047 285.096 95.6567 285.096ZM95.7767 284.112C96.0247 284.112 96.2567 284.072 96.4727 283.992C96.6967 283.904 96.8887 283.788 97.0487 283.644C97.2167 283.492 97.3447 283.32 97.4327 283.128C97.5287 282.928 97.5767 282.716 97.5767 282.492V282.276H96.2567C95.6967 282.276 95.3047 282.372 95.0807 282.564C94.8567 282.748 94.7447 282.992 94.7447 283.296C94.7447 283.536 94.8287 283.732 94.9967 283.884C95.1727 284.036 95.4327 284.112 95.7767 284.112ZM103.712 276.6H104.72L100.688 287.4H99.68L103.712 276.6ZM105.862 276.6H106.99V280.164H108.07L110.662 276.6H111.982L108.982 280.632L112.222 285H110.83L108.07 281.196H106.99V285H105.862V276.6ZM114.922 285.096C114.242 285.096 113.73 284.936 113.386 284.616C113.05 284.296 112.882 283.86 112.882 283.308C112.882 282.708 113.082 282.236 113.482 281.892C113.89 281.54 114.55 281.364 115.462 281.364H116.842V281.04C116.842 280.648 116.738 280.36 116.53 280.176C116.33 279.984 115.994 279.888 115.522 279.888C115.09 279.888 114.774 279.964 114.574 280.116C114.374 280.26 114.258 280.448 114.226 280.68H113.122C113.138 280.432 113.198 280.2 113.302 279.984C113.414 279.768 113.57 279.58 113.77 279.42C113.97 279.26 114.214 279.136 114.502 279.048C114.798 278.952 115.138 278.904 115.522 278.904C116.346 278.904 116.95 279.088 117.334 279.456C117.726 279.824 117.922 280.372 117.922 281.1V285H117.082L116.95 284.1H116.926C116.438 284.764 115.77 285.096 114.922 285.096ZM115.042 284.112C115.29 284.112 115.522 284.072 115.738 283.992C115.962 283.904 116.154 283.788 116.314 283.644C116.482 283.492 116.61 283.32 116.698 283.128C116.794 282.928 116.842 282.716 116.842 282.492V282.276H115.522C114.962 282.276 114.57 282.372 114.346 282.564C114.122 282.748 114.01 282.992 114.01 283.296C114.01 283.536 114.094 283.732 114.262 283.884C114.438 284.036 114.698 284.112 115.042 284.112ZM121.588 283.092C120.74 283.092 120.128 282.912 119.752 282.552C119.376 282.184 119.188 281.624 119.188 280.872V279H120.268V280.8C120.268 281.048 120.288 281.256 120.328 281.424C120.376 281.592 120.452 281.728 120.556 281.832C120.66 281.928 120.796 282 120.964 282.048C121.132 282.088 121.34 282.108 121.588 282.108C121.844 282.108 122.084 282.092 122.308 282.06C122.54 282.028 122.74 281.992 122.908 281.952V279H123.988V285H122.908V282.936C122.74 282.976 122.54 283.012 122.308 283.044C122.084 283.076 121.844 283.092 121.588 283.092ZM128.183 285.096C127.759 285.096 127.375 285.032 127.031 284.904C126.695 284.768 126.407 284.576 126.167 284.328C125.927 284.072 125.743 283.764 125.615 283.404C125.487 283.044 125.423 282.632 125.423 282.168V281.832C125.423 281.368 125.487 280.956 125.615 280.596C125.743 280.228 125.923 279.92 126.155 279.672C126.395 279.424 126.679 279.236 127.007 279.108C127.343 278.972 127.715 278.904 128.123 278.904C128.531 278.904 128.899 278.972 129.227 279.108C129.563 279.236 129.847 279.428 130.079 279.684C130.319 279.94 130.503 280.252 130.631 280.62C130.759 280.988 130.823 281.412 130.823 281.892V282.324H126.551C126.567 282.892 126.711 283.332 126.983 283.644C127.263 283.956 127.643 284.112 128.123 284.112C128.507 284.112 128.823 284.04 129.071 283.896C129.319 283.752 129.507 283.52 129.635 283.2H130.763C130.619 283.824 130.323 284.296 129.875 284.616C129.435 284.936 128.871 285.096 128.183 285.096ZM128.123 279.888C127.667 279.888 127.307 280.02 127.043 280.284C126.779 280.548 126.619 280.932 126.563 281.436H129.695C129.599 280.404 129.075 279.888 128.123 279.888ZM134.543 285.096C133.735 285.096 133.091 284.844 132.611 284.34C132.139 283.836 131.903 283.092 131.903 282.108V281.772C131.903 281.316 131.967 280.912 132.095 280.56C132.223 280.208 132.399 279.908 132.623 279.66C132.855 279.412 133.131 279.224 133.451 279.096C133.779 278.968 134.143 278.904 134.543 278.904C134.919 278.904 135.251 278.956 135.539 279.06C135.835 279.156 136.087 279.288 136.295 279.456C136.503 279.624 136.671 279.824 136.799 280.056C136.927 280.288 137.015 280.536 137.063 280.8H135.935C135.847 280.544 135.695 280.328 135.479 280.152C135.271 279.976 134.979 279.888 134.603 279.888C134.123 279.888 133.739 280.044 133.451 280.356C133.171 280.66 133.031 281.132 133.031 281.772V282.108C133.031 282.804 133.171 283.312 133.451 283.632C133.739 283.952 134.123 284.112 134.603 284.112C134.979 284.112 135.271 284.02 135.479 283.836C135.695 283.644 135.847 283.392 135.935 283.08H137.063C137.015 283.376 136.927 283.648 136.799 283.896C136.671 284.136 136.503 284.348 136.295 284.532C136.087 284.708 135.835 284.848 135.539 284.952C135.251 285.048 134.919 285.096 134.543 285.096ZM139.522 279.984H137.602V279H142.522V279.984H140.602V285H139.522V279.984ZM143.607 279H145.947C146.731 279 147.295 279.152 147.639 279.456C147.991 279.76 148.167 280.164 148.167 280.668C148.167 280.924 148.103 281.156 147.975 281.364C147.847 281.564 147.663 281.732 147.423 281.868V281.892C147.735 282.02 147.975 282.204 148.143 282.444C148.319 282.676 148.407 282.948 148.407 283.26C148.407 283.804 148.231 284.232 147.879 284.544C147.535 284.848 146.971 285 146.187 285H143.607V279ZM147.039 280.728C147.039 280.496 146.955 280.316 146.787 280.188C146.627 280.052 146.327 279.984 145.887 279.984H144.687V281.484H145.887C146.327 281.484 146.627 281.42 146.787 281.292C146.955 281.156 147.039 280.968 147.039 280.728ZM147.279 283.2C147.279 282.944 147.195 282.748 147.027 282.612C146.859 282.468 146.559 282.396 146.127 282.396H144.687V284.016H146.127C146.559 284.016 146.859 283.948 147.027 283.812C147.195 283.668 147.279 283.464 147.279 283.2ZM152.241 285.096C151.385 285.096 150.709 284.844 150.213 284.34C149.725 283.836 149.481 283.112 149.481 282.168V281.832C149.481 280.896 149.729 280.176 150.225 279.672C150.721 279.16 151.393 278.904 152.241 278.904C153.097 278.904 153.769 279.156 154.257 279.66C154.753 280.164 155.001 280.888 155.001 281.832V282.168C155.001 283.104 154.753 283.828 154.257 284.34C153.761 284.844 153.089 285.096 152.241 285.096ZM152.241 284.112C152.745 284.112 153.141 283.956 153.429 283.644C153.725 283.324 153.873 282.832 153.873 282.168V281.832C153.873 281.176 153.725 280.688 153.429 280.368C153.141 280.048 152.745 279.888 152.241 279.888C151.737 279.888 151.337 280.048 151.041 280.368C150.753 280.68 150.609 281.168 150.609 281.832V282.168C150.609 282.824 150.753 283.312 151.041 283.632C151.337 283.952 151.737 284.112 152.241 284.112Z" fill="white" fill-opacity="0.6"/>
<path d="M247.96 276.6H254.44V285H253.312V277.632H249.088V285H247.96V276.6ZM257.922 285.096C257.242 285.096 256.73 284.936 256.386 284.616C256.05 284.296 255.882 283.86 255.882 283.308C255.882 282.708 256.082 282.236 256.482 281.892C256.89 281.54 257.55 281.364 258.462 281.364H259.842V281.04C259.842 280.648 259.738 280.36 259.53 280.176C259.33 279.984 258.994 279.888 258.522 279.888C258.09 279.888 257.774 279.964 257.574 280.116C257.374 280.26 257.258 280.448 257.226 280.68H256.122C256.138 280.432 256.198 280.2 256.302 279.984C256.414 279.768 256.57 279.58 256.77 279.42C256.97 279.26 257.214 279.136 257.502 279.048C257.798 278.952 258.138 278.904 258.522 278.904C259.346 278.904 259.95 279.088 260.334 279.456C260.726 279.824 260.922 280.372 260.922 281.1V285H260.082L259.95 284.1H259.926C259.438 284.764 258.77 285.096 257.922 285.096ZM258.042 284.112C258.29 284.112 258.522 284.072 258.738 283.992C258.962 283.904 259.154 283.788 259.314 283.644C259.482 283.492 259.61 283.32 259.698 283.128C259.794 282.928 259.842 282.716 259.842 282.492V282.276H258.522C257.962 282.276 257.57 282.372 257.346 282.564C257.122 282.748 257.01 282.992 257.01 283.296C257.01 283.536 257.094 283.732 257.262 283.884C257.438 284.036 257.698 284.112 258.042 284.112ZM262.666 279H264.274L265.87 282.42H265.894L267.49 279H269.026V285H267.946V280.32H267.922L266.386 283.62H265.306L263.77 280.32H263.746V285H262.666V279ZM271.626 282.696C271.242 282.544 270.962 282.324 270.786 282.036C270.61 281.748 270.522 281.392 270.522 280.968C270.522 280.344 270.718 279.86 271.11 279.516C271.502 279.172 272.146 279 273.042 279H275.082V285H274.002V282.912H273.042C272.978 282.912 272.914 282.912 272.85 282.912C272.786 282.912 272.722 282.908 272.658 282.9L271.482 285H270.282L271.626 282.696ZM271.65 280.968C271.65 281.28 271.754 281.52 271.962 281.688C272.17 281.848 272.55 281.928 273.102 281.928H274.002V279.984H273.102C272.542 279.984 272.158 280.068 271.95 280.236C271.75 280.396 271.65 280.64 271.65 280.968ZM278.08 279.984H276.16V279H281.08V279.984H279.16V285H278.08V279.984ZM282.166 279H283.246V280.92H284.446C285.27 280.92 285.874 281.1 286.258 281.46C286.65 281.82 286.846 282.32 286.846 282.96C286.846 283.592 286.65 284.092 286.258 284.46C285.866 284.82 285.262 285 284.446 285H282.166V279ZM283.246 281.904V284.016H284.386C284.874 284.016 285.218 283.928 285.418 283.752C285.618 283.576 285.718 283.312 285.718 282.96C285.718 282.616 285.614 282.356 285.406 282.18C285.206 281.996 284.866 281.904 284.386 281.904H283.246Z" fill="white" fill-opacity="0.6"/>
<path d="M325.96 114.6H327.088V121.68H327.112L330.976 114.6H332.56V123H331.432V115.92H331.408L327.544 123H325.96V114.6ZM334.42 117H338.44V117.984H335.5V123H334.42V117ZM339.517 117H340.357L340.477 117.84H340.501C340.781 117.504 341.073 117.264 341.377 117.12C341.689 116.976 342.061 116.904 342.493 116.904C342.853 116.904 343.181 116.968 343.477 117.096C343.773 117.216 344.029 117.4 344.245 117.648C344.461 117.888 344.625 118.192 344.737 118.56C344.857 118.92 344.917 119.344 344.917 119.832V120.168C344.917 120.648 344.857 121.072 344.737 121.44C344.617 121.8 344.449 122.104 344.233 122.352C344.017 122.6 343.761 122.788 343.465 122.916C343.169 123.036 342.845 123.096 342.493 123.096C342.085 123.096 341.733 123.032 341.437 122.904C341.149 122.776 340.877 122.568 340.621 122.28H340.597V125.4H339.517V117ZM342.193 122.112C342.681 122.112 343.069 121.956 343.357 121.644C343.645 121.324 343.789 120.832 343.789 120.168V119.832C343.789 119.184 343.641 118.7 343.345 118.38C343.057 118.052 342.673 117.888 342.193 117.888C341.705 117.888 341.317 118.048 341.029 118.368C340.741 118.68 340.597 119.168 340.597 119.832V120.168C340.597 120.816 340.741 121.304 341.029 121.632C341.325 121.952 341.713 122.112 342.193 122.112ZM352.001 117H353.081V123H352.001V117ZM346.361 117H347.441V118.92H348.641C349.465 118.92 350.069 119.1 350.453 119.46C350.845 119.82 351.041 120.32 351.041 120.96C351.041 121.592 350.845 122.092 350.453 122.46C350.061 122.82 349.457 123 348.641 123H346.361V117ZM347.441 119.904V122.016H348.581C349.069 122.016 349.413 121.928 349.613 121.752C349.813 121.576 349.913 121.312 349.913 120.96C349.913 120.616 349.809 120.356 349.601 120.18C349.401 119.996 349.061 119.904 348.581 119.904H347.441Z" fill="white" fill-opacity="0.6"/>
<path d="M150.96 6.6H152.088V13.968H156.312V6.6H157.44V13.968H158.4V16.8H157.32V15H150.96V6.6ZM161.995 15.096C161.571 15.096 161.187 15.032 160.843 14.904C160.507 14.768 160.219 14.576 159.979 14.328C159.739 14.072 159.555 13.764 159.427 13.404C159.299 13.044 159.235 12.632 159.235 12.168V11.832C159.235 11.368 159.299 10.956 159.427 10.596C159.555 10.228 159.735 9.92 159.967 9.672C160.207 9.424 160.491 9.236 160.819 9.108C161.155 8.972 161.527 8.904 161.935 8.904C162.343 8.904 162.711 8.972 163.039 9.108C163.375 9.236 163.659 9.428 163.891 9.684C164.131 9.94 164.315 10.252 164.443 10.62C164.571 10.988 164.635 11.412 164.635 11.892V12.324H160.363C160.379 12.892 160.523 13.332 160.795 13.644C161.075 13.956 161.455 14.112 161.935 14.112C162.319 14.112 162.635 14.04 162.883 13.896C163.131 13.752 163.319 13.52 163.447 13.2H164.575C164.431 13.824 164.135 14.296 163.687 14.616C163.247 14.936 162.683 15.096 161.995 15.096ZM161.935 9.888C161.479 9.888 161.119 10.02 160.855 10.284C160.591 10.548 160.431 10.932 160.375 11.436H163.507C163.411 10.404 162.887 9.888 161.935 9.888ZM166.076 9H167.156V11.448H170.156V9H171.236V15H170.156V12.432H167.156V15H166.076V9ZM174.657 15.096C173.977 15.096 173.465 14.936 173.121 14.616C172.785 14.296 172.617 13.86 172.617 13.308C172.617 12.708 172.817 12.236 173.217 11.892C173.625 11.54 174.285 11.364 175.197 11.364H176.577V11.04C176.577 10.648 176.473 10.36 176.265 10.176C176.065 9.984 175.729 9.888 175.257 9.888C174.825 9.888 174.509 9.964 174.309 10.116C174.109 10.26 173.993 10.448 173.961 10.68H172.857C172.873 10.432 172.933 10.2 173.037 9.984C173.149 9.768 173.305 9.58 173.505 9.42C173.705 9.26 173.949 9.136 174.237 9.048C174.533 8.952 174.873 8.904 175.257 8.904C176.081 8.904 176.685 9.088 177.069 9.456C177.461 9.824 177.657 10.372 177.657 11.1V15H176.817L176.685 14.1H176.661C176.173 14.764 175.505 15.096 174.657 15.096ZM174.777 14.112C175.025 14.112 175.257 14.072 175.473 13.992C175.697 13.904 175.889 13.788 176.049 13.644C176.217 13.492 176.345 13.32 176.433 13.128C176.529 12.928 176.577 12.716 176.577 12.492V12.276H175.257C174.697 12.276 174.305 12.372 174.081 12.564C173.857 12.748 173.745 12.992 173.745 13.296C173.745 13.536 173.829 13.732 173.997 13.884C174.173 14.036 174.433 14.112 174.777 14.112ZM184.68 15.096C183.872 15.096 183.228 14.844 182.748 14.34C182.276 13.836 182.04 13.092 182.04 12.108V11.772C182.04 11.316 182.104 10.912 182.232 10.56C182.36 10.208 182.536 9.908 182.76 9.66C182.992 9.412 183.268 9.224 183.588 9.096C183.916 8.968 184.28 8.904 184.68 8.904C185.056 8.904 185.388 8.956 185.676 9.06C185.972 9.156 186.224 9.288 186.432 9.456C186.64 9.624 186.808 9.824 186.936 10.056C187.064 10.288 187.152 10.536 187.2 10.8H186.072C185.984 10.544 185.832 10.328 185.616 10.152C185.408 9.976 185.116 9.888 184.74 9.888C184.26 9.888 183.876 10.044 183.588 10.356C183.308 10.66 183.168 11.132 183.168 11.772V12.108C183.168 12.804 183.308 13.312 183.588 13.632C183.876 13.952 184.26 14.112 184.74 14.112C185.116 14.112 185.408 14.02 185.616 13.836C185.832 13.644 185.984 13.392 186.072 13.08H187.2C187.152 13.376 187.064 13.648 186.936 13.896C186.808 14.136 186.64 14.348 186.432 14.532C186.224 14.708 185.972 14.848 185.676 14.952C185.388 15.048 185.056 15.096 184.68 15.096ZM190.859 15.096C190.435 15.096 190.051 15.032 189.707 14.904C189.371 14.768 189.083 14.576 188.843 14.328C188.603 14.072 188.419 13.764 188.291 13.404C188.163 13.044 188.099 12.632 188.099 12.168V11.832C188.099 11.368 188.163 10.956 188.291 10.596C188.419 10.228 188.599 9.92 188.831 9.672C189.071 9.424 189.355 9.236 189.683 9.108C190.019 8.972 190.391 8.904 190.799 8.904C191.207 8.904 191.575 8.972 191.903 9.108C192.239 9.236 192.523 9.428 192.755 9.684C192.995 9.94 193.179 10.252 193.307 10.62C193.435 10.988 193.499 11.412 193.499 11.892V12.324H189.227C189.243 12.892 189.387 13.332 189.659 13.644C189.939 13.956 190.319 14.112 190.799 14.112C191.183 14.112 191.499 14.04 191.747 13.896C191.995 13.752 192.183 13.52 192.311 13.2H193.439C193.295 13.824 192.999 14.296 192.551 14.616C192.111 14.936 191.547 15.096 190.859 15.096ZM190.799 9.888C190.343 9.888 189.983 10.02 189.719 10.284C189.455 10.548 189.295 10.932 189.239 11.436H192.371C192.275 10.404 191.751 9.888 190.799 9.888ZM194.939 9H196.019V13.68H196.043L198.659 9H200.099V15H199.019V10.32H198.995L196.379 15H194.939V9ZM197.519 8.256C196.991 8.256 196.579 8.112 196.283 7.824C195.987 7.528 195.839 7.12 195.839 6.6H196.775C196.775 6.912 196.839 7.144 196.967 7.296C197.103 7.44 197.287 7.512 197.519 7.512C197.751 7.512 197.931 7.44 198.059 7.296C198.195 7.144 198.263 6.912 198.263 6.6H199.199C199.199 7.12 199.051 7.528 198.755 7.824C198.459 8.112 198.047 8.256 197.519 8.256ZM203.94 13.092C203.092 13.092 202.48 12.912 202.104 12.552C201.728 12.184 201.54 11.624 201.54 10.872V9H202.62V10.8C202.62 11.048 202.64 11.256 202.68 11.424C202.728 11.592 202.804 11.728 202.908 11.832C203.012 11.928 203.148 12 203.316 12.048C203.484 12.088 203.692 12.108 203.94 12.108C204.196 12.108 204.436 12.092 204.66 12.06C204.892 12.028 205.092 11.992 205.26 11.952V9H206.34V15H205.26V12.936C205.092 12.976 204.892 13.012 204.66 13.044C204.436 13.076 204.196 13.092 203.94 13.092ZM209.754 15.096C209.074 15.096 208.562 14.936 208.218 14.616C207.882 14.296 207.714 13.86 207.714 13.308C207.714 12.708 207.914 12.236 208.314 11.892C208.722 11.54 209.382 11.364 210.294 11.364H211.674V11.04C211.674 10.648 211.57 10.36 211.362 10.176C211.162 9.984 210.826 9.888 210.354 9.888C209.922 9.888 209.606 9.964 209.406 10.116C209.206 10.26 209.09 10.448 209.058 10.68H207.954C207.97 10.432 208.03 10.2 208.134 9.984C208.246 9.768 208.402 9.58 208.602 9.42C208.802 9.26 209.046 9.136 209.334 9.048C209.63 8.952 209.97 8.904 210.354 8.904C211.178 8.904 211.782 9.088 212.166 9.456C212.558 9.824 212.754 10.372 212.754 11.1V15H211.914L211.782 14.1H211.758C211.27 14.764 210.602 15.096 209.754 15.096ZM209.874 14.112C210.122 14.112 210.354 14.072 210.57 13.992C210.794 13.904 210.986 13.788 211.146 13.644C211.314 13.492 211.442 13.32 211.53 13.128C211.626 12.928 211.674 12.716 211.674 12.492V12.276H210.354C209.794 12.276 209.402 12.372 209.178 12.564C208.954 12.748 208.842 12.992 208.842 13.296C208.842 13.536 208.926 13.732 209.094 13.884C209.27 14.036 209.53 14.112 209.874 14.112ZM216.778 15.096C215.97 15.096 215.326 14.844 214.846 14.34C214.374 13.836 214.138 13.092 214.138 12.108V11.772C214.138 11.316 214.202 10.912 214.33 10.56C214.458 10.208 214.634 9.908 214.858 9.66C215.09 9.412 215.366 9.224 215.686 9.096C216.014 8.968 216.378 8.904 216.778 8.904C217.154 8.904 217.486 8.956 217.774 9.06C218.07 9.156 218.322 9.288 218.53 9.456C218.738 9.624 218.906 9.824 219.034 10.056C219.162 10.288 219.25 10.536 219.298 10.8H218.17C218.082 10.544 217.93 10.328 217.714 10.152C217.506 9.976 217.214 9.888 216.838 9.888C216.358 9.888 215.974 10.044 215.686 10.356C215.406 10.66 215.266 11.132 215.266 11.772V12.108C215.266 12.804 215.406 13.312 215.686 13.632C215.974 13.952 216.358 14.112 216.838 14.112C217.214 14.112 217.506 14.02 217.714 13.836C217.93 13.644 218.082 13.392 218.17 13.08H219.298C219.25 13.376 219.162 13.648 219.034 13.896C218.906 14.136 218.738 14.348 218.53 14.532C218.322 14.708 218.07 14.848 217.774 14.952C217.486 15.048 217.154 15.096 216.778 15.096Z" fill="white" fill-opacity="0.6"/>
<path d="M142.555 146.829L185.325 32.0468L304.472 122.389L227.223 219.277L167.868 185.671L142.555 146.829Z" stroke="#875BE4" stroke-width="2"/>
<g filter="url(#filter0_d_22_647)">
<circle cx="185.5" cy="32.5" r="3.5" fill="#875BE4"/>
</g>
<g filter="url(#filter1_d_22_647)">
<circle cx="302.5" cy="122.5" r="3.5" fill="#875BE4"/>
</g>
<g filter="url(#filter2_d_22_647)">
<circle cx="142.5" cy="146.5" r="3.5" fill="#875BE4"/>
</g>
<g filter="url(#filter3_d_22_647)">
<circle cx="167.5" cy="185.5" r="3.5" fill="#875BE4"/>
</g>
<g filter="url(#filter4_d_22_647)">
<circle cx="227.5" cy="219.5" r="3.5" fill="#875BE4"/>
</g>
<path d="M185.761 102.749L290.942 127.189L222.858 213.167L146.482 214.913L153.029 150.757L185.761 102.749Z" stroke="#41A2E2" stroke-width="2"/>
<g filter="url(#filter5_d_22_647)">
<circle cx="153.5" cy="151.5" r="3.5" fill="#41A2E2"/>
</g>
<g filter="url(#filter6_d_22_647)">
<circle cx="146.5" cy="214.5" r="3.5" fill="#41A2E2"/>
</g>
<g filter="url(#filter7_d_22_647)">
<circle cx="289.5" cy="127.5" r="3.5" fill="#41A2E2"/>
</g>
<g filter="url(#filter8_d_22_647)">
<circle cx="185.5" cy="103.5" r="3.5" fill="#41A2E2"/>
</g>
<g filter="url(#filter9_d_22_647)">
<circle cx="222.5" cy="212.5" r="3.5" fill="#41A2E2"/>
</g>
<defs>
<filter id="filter0_d_22_647" x="171" y="18" width="29" height="29" filterUnits="userSpaceOnUse" color-interpolation-filters="sRGB">
<feFlood flood-opacity="0" result="BackgroundImageFix"/>
<feColorMatrix in="SourceAlpha" type="matrix" values="0 0 0 0 0 0 0 0 0 0 0 0 0 0 0 0 0 0 127 0" result="hardAlpha"/>
<feOffset/>
<feGaussianBlur stdDeviation="5.5"/>
<feComposite in2="hardAlpha" operator="out"/>
<feColorMatrix type="matrix" values="0 0 0 0 0.529412 0 0 0 0 0.356863 0 0 0 0 0.894118 0 0 0 1 0"/>
<feBlend mode="normal" in2="BackgroundImageFix" result="effect1_dropShadow_22_647"/>
<feBlend mode="normal" in="SourceGraphic" in2="effect1_dropShadow_22_647" result="shape"/>
</filter>
<filter id="filter1_d_22_647" x="288" y="108" width="29" height="29" filterUnits="userSpaceOnUse" color-interpolation-filters="sRGB">
<feFlood flood-opacity="0" result="BackgroundImageFix"/>
<feColorMatrix in="SourceAlpha" type="matrix" values="0 0 0 0 0 0 0 0 0 0 0 0 0 0 0 0 0 0 127 0" result="hardAlpha"/>
<feOffset/>
<feGaussianBlur stdDeviation="5.5"/>
<feComposite in2="hardAlpha" operator="out"/>
<feColorMatrix type="matrix" values="0 0 0 0 0.529412 0 0 0 0 0.356863 0 0 0 0 0.894118 0 0 0 1 0"/>
<feBlend mode="normal" in2="BackgroundImageFix" result="effect1_dropShadow_22_647"/>
<feBlend mode="normal" in="SourceGraphic" in2="effect1_dropShadow_22_647" result="shape"/>
</filter>
<filter id="filter2_d_22_647" x="128" y="132" width="29" height="29" filterUnits="userSpaceOnUse" color-interpolation-filters="sRGB">
<feFlood flood-opacity="0" result="BackgroundImageFix"/>
<feColorMatrix in="SourceAlpha" type="matrix" values="0 0 0 0 0 0 0 0 0 0 0 0 0 0 0 0 0 0 127 0" result="hardAlpha"/>
<feOffset/>
<feGaussianBlur stdDeviation="5.5"/>
<feComposite in2="hardAlpha" operator="out"/>
<feColorMatrix type="matrix" values="0 0 0 0 0.529412 0 0 0 0 0.356863 0 0 0 0 0.894118 0 0 0 1 0"/>
<feBlend mode="normal" in2="BackgroundImageFix" result="effect1_dropShadow_22_647"/>
<feBlend mode="normal" in="SourceGraphic" in2="effect1_dropShadow_22_647" result="shape"/>
</filter>
<filter id="filter3_d_22_647" x="153" y="171" width="29" height="29" filterUnits="userSpaceOnUse" color-interpolation-filters="sRGB">
<feFlood flood-opacity="0" result="BackgroundImageFix"/>
<feColorMatrix in="SourceAlpha" type="matrix" values="0 0 0 0 0 0 0 0 0 0 0 0 0 0 0 0 0 0 127 0" result="hardAlpha"/>
<feOffset/>
<feGaussianBlur stdDeviation="5.5"/>
<feComposite in2="hardAlpha" operator="out"/>
<feColorMatrix type="matrix" values="0 0 0 0 0.529412 0 0 0 0 0.356863 0 0 0 0 0.894118 0 0 0 1 0"/>
<feBlend mode="normal" in2="BackgroundImageFix" result="effect1_dropShadow_22_647"/>
<feBlend mode="normal" in="SourceGraphic" in2="effect1_dropShadow_22_647" result="shape"/>
</filter>
<filter id="filter4_d_22_647" x="213" y="205" width="29" height="29" filterUnits="userSpaceOnUse" color-interpolation-filters="sRGB">
<feFlood flood-opacity="0" result="BackgroundImageFix"/>
<feColorMatrix in="SourceAlpha" type="matrix" values="0 0 0 0 0 0 0 0 0 0 0 0 0 0 0 0 0 0 127 0" result="hardAlpha"/>
<feOffset/>
<feGaussianBlur stdDeviation="5.5"/>
<feComposite in2="hardAlpha" operator="out"/>
<feColorMatrix type="matrix" values="0 0 0 0 0.529412 0 0 0 0 0.356863 0 0 0 0 0.894118 0 0 0 1 0"/>
<feBlend mode="normal" in2="BackgroundImageFix" result="effect1_dropShadow_22_647"/>
<feBlend mode="normal" in="SourceGraphic" in2="effect1_dropShadow_22_647" result="shape"/>
</filter>
<filter id="filter5_d_22_647" x="139" y="137" width="29" height="29" filterUnits="userSpaceOnUse" color-interpolation-filters="sRGB">
<feFlood flood-opacity="0" result="BackgroundImageFix"/>
<feColorMatrix in="SourceAlpha" type="matrix" values="0 0 0 0 0 0 0 0 0 0 0 0 0 0 0 0 0 0 127 0" result="hardAlpha"/>
<feOffset/>
<feGaussianBlur stdDeviation="5.5"/>
<feComposite in2="hardAlpha" operator="out"/>
<feColorMatrix type="matrix" values="0 0 0 0 0.254902 0 0 0 0 0.635294 0 0 0 0 0.886275 0 0 0 1 0"/>
<feBlend mode="normal" in2="BackgroundImageFix" result="effect1_dropShadow_22_647"/>
<feBlend mode="normal" in="SourceGraphic" in2="effect1_dropShadow_22_647" result="shape"/>
</filter>
<filter id="filter6_d_22_647" x="132" y="200" width="29" height="29" filterUnits="userSpaceOnUse" color-interpolation-filters="sRGB">
<feFlood flood-opacity="0" result="BackgroundImageFix"/>
<feColorMatrix in="SourceAlpha" type="matrix" values="0 0 0 0 0 0 0 0 0 0 0 0 0 0 0 0 0 0 127 0" result="hardAlpha"/>
<feOffset/>
<feGaussianBlur stdDeviation="5.5"/>
<feComposite in2="hardAlpha" operator="out"/>
<feColorMatrix type="matrix" values="0 0 0 0 0.254902 0 0 0 0 0.635294 0 0 0 0 0.886275 0 0 0 1 0"/>
<feBlend mode="normal" in2="BackgroundImageFix" result="effect1_dropShadow_22_647"/>
<feBlend mode="normal" in="SourceGraphic" in2="effect1_dropShadow_22_647" result="shape"/>
</filter>
<filter id="filter7_d_22_647" x="275" y="113" width="29" height="29" filterUnits="userSpaceOnUse" color-interpolation-filters="sRGB">
<feFlood flood-opacity="0" result="BackgroundImageFix"/>
<feColorMatrix in="SourceAlpha" type="matrix" values="0 0 0 0 0 0 0 0 0 0 0 0 0 0 0 0 0 0 127 0" result="hardAlpha"/>
<feOffset/>
<feGaussianBlur stdDeviation="5.5"/>
<feComposite in2="hardAlpha" operator="out"/>
<feColorMatrix type="matrix" values="0 0 0 0 0.254902 0 0 0 0 0.635294 0 0 0 0 0.886275 0 0 0 1 0"/>
<feBlend mode="normal" in2="BackgroundImageFix" result="effect1_dropShadow_22_647"/>
<feBlend mode="normal" in="SourceGraphic" in2="effect1_dropShadow_22_647" result="shape"/>
</filter>
<filter id="filter8_d_22_647" x="171" y="89" width="29" height="29" filterUnits="userSpaceOnUse" color-interpolation-filters="sRGB">
<feFlood flood-opacity="0" result="BackgroundImageFix"/>
<feColorMatrix in="SourceAlpha" type="matrix" values="0 0 0 0 0 0 0 0 0 0 0 0 0 0 0 0 0 0 127 0" result="hardAlpha"/>
<feOffset/>
<feGaussianBlur stdDeviation="5.5"/>
<feComposite in2="hardAlpha" operator="out"/>
<feColorMatrix type="matrix" values="0 0 0 0 0.254902 0 0 0 0 0.635294 0 0 0 0 0.886275 0 0 0 1 0"/>
<feBlend mode="normal" in2="BackgroundImageFix" result="effect1_dropShadow_22_647"/>
<feBlend mode="normal" in="SourceGraphic" in2="effect1_dropShadow_22_647" result="shape"/>
</filter>
<filter id="filter9_d_22_647" x="208" y="198" width="29" height="29" filterUnits="userSpaceOnUse" color-interpolation-filters="sRGB">
<feFlood flood-opacity="0" result="BackgroundImageFix"/>
<feColorMatrix in="SourceAlpha" type="matrix" values="0 0 0 0 0 0 0 0 0 0 0 0 0 0 0 0 0 0 127 0" result="hardAlpha"/>
<feOffset/>
<feGaussianBlur stdDeviation="5.5"/>
<feComposite in2="hardAlpha" operator="out"/>
<feColorMatrix type="matrix" values="0 0 0 0 0.254902 0 0 0 0 0.635294 0 0 0 0 0.886275 0 0 0 1 0"/>
<feBlend mode="normal" in2="BackgroundImageFix" result="effect1_dropShadow_22_647"/>
<feBlend mode="normal" in="SourceGraphic" in2="effect1_dropShadow_22_647" result="shape"/>
</filter>
<radialGradient id="paint0_radial_22_647" cx="0" cy="0" r="1" gradientUnits="userSpaceOnUse" gradientTransform="translate(185.5 161.5) rotate(90) scale(188.5)">
<stop stop-color="#1D1E27"/>
<stop offset="1" stop-color="#1D1E27" stop-opacity="0.26"/>
</radialGradient>
</defs>
</svg>
