<svg width="33" height="23" viewBox="0 0 33 23" fill="none" xmlns="http://www.w3.org/2000/svg">
<path d="M32.9935 0.614012C32.9935 7.87143 32.9935 15.1289 32.9935 22.3927C32.9613 22.3992 32.9291 22.4056 32.8969 22.4056C26.1293 22.4056 19.3617 22.4056 12.5941 22.4121C12.3814 22.4121 12.317 22.3412 12.3234 22.1349C12.3299 21.3744 12.317 20.6138 12.3105 19.8533C13.4707 19.9822 14.6244 19.9306 15.7781 19.7953C18.6527 19.4537 21.45 18.7511 24.1699 17.765C26.226 17.0238 28.2111 16.1408 29.99 14.8517C30.5572 14.4392 30.5636 14.4199 29.9707 14.0718C28.9781 13.4789 27.9597 12.9181 26.9672 12.3251C26.7802 12.2156 26.6836 12.2349 26.5289 12.3638C25.9037 12.8859 25.2785 13.4144 24.634 13.9107C22.7068 15.406 20.6701 16.7015 18.3304 17.4685C16.3711 18.1066 14.3666 18.3966 12.3041 18.1388L12.3105 18.1517C12.3105 17.5458 12.3041 16.9464 12.3041 16.3406C12.7166 16.3857 13.1355 16.4501 13.548 16.463C15.198 16.5146 16.7256 16.0634 18.1886 15.3416C20.8957 14.0009 23.1129 12.048 25.1174 9.82436C25.2527 9.66968 25.2205 9.58589 25.1045 9.45053C24.3633 8.58686 23.5447 7.79409 22.6617 7.07866C20.5412 5.37065 18.1822 4.15249 15.4752 3.67554C14.4246 3.48862 13.3611 3.49507 12.3041 3.5144L12.3105 3.52085C12.3105 2.68296 12.3041 1.84507 12.3041 1.01362C12.3041 0.607567 12.3041 0.607566 12.723 0.607566C19.3617 0.607566 26.0004 0.607566 32.6326 0.607566C32.7615 0.594676 32.8775 0.607566 32.9935 0.614012Z" fill="#75B800"/>
<path d="M0.00646973 9.56641C0.141821 9.59863 0.186938 9.47617 0.257837 9.41172C2.70706 7.25254 5.4012 5.48652 8.49495 4.37793C9.63577 3.96543 10.8153 3.67539 12.027 3.56582C12.1237 3.55937 12.2139 3.53359 12.3106 3.51426L12.3041 3.50781C12.3106 4.04922 12.3106 4.58418 12.317 5.12559C12.0076 5.16426 11.6983 5.20293 11.3889 5.24805C8.20491 5.75078 5.61389 7.27832 3.55784 9.74043C3.40315 9.9209 3.3967 10.082 3.48049 10.2947C4.24749 12.2605 5.32385 14.0266 6.85139 15.4896C8.38538 16.9592 10.1836 17.8873 12.3106 18.1387L12.3041 18.1258C12.3041 18.6994 12.3106 19.273 12.3106 19.8531C10.5832 19.6727 8.94612 19.2086 7.41213 18.39C4.85334 17.0172 2.93909 14.9869 1.43733 12.5377C0.953931 11.7514 0.534985 10.9328 0.174048 10.082C0.141821 10.0111 0.167603 9.86289 0.00646973 9.88867C0.00646973 9.7791 0.00646973 9.67598 0.00646973 9.56641Z" fill="#75B700"/>
<path d="M12.317 7.12382C12.3105 6.45351 12.3105 5.78319 12.3041 5.11288C13.49 5.07421 14.6631 5.13866 15.8039 5.4996C18.1822 6.2537 20.0771 7.69101 21.6691 9.56659C21.7658 9.67616 21.798 9.7664 21.6885 9.90175C20.1674 11.7902 18.4851 13.4918 16.2293 14.5037C15.0627 15.0258 13.851 15.2062 12.5941 14.8582C12.491 14.8324 12.3814 14.8195 12.3041 14.7357L12.3105 14.7486C12.3105 12.7828 12.3105 10.817 12.3105 8.85116L12.3041 8.85761C12.3621 8.81249 12.4265 8.83183 12.491 8.83827C13.5158 8.95429 14.3472 9.40546 14.9467 10.2562C15.3205 10.7848 15.6427 11.3391 15.9715 11.8934C16.0552 12.0351 16.1133 12.0738 16.2551 11.9514C17.0801 11.2488 17.9115 10.5527 18.7429 9.85663C18.859 9.75995 18.8654 9.68905 18.7623 9.57304C17.022 7.69745 14.9015 6.79511 12.3105 7.11737L12.317 7.12382Z" fill="#75B700"/>
<path d="M12.3171 14.755L12.3106 14.7421C12.3106 15.2706 12.3171 15.8056 12.3171 16.3341C9.8614 15.8894 8.11472 14.4649 6.85144 12.3702C6.48406 11.7644 6.18757 11.1198 5.95554 10.4495C5.90398 10.2948 5.89753 10.1788 6.03288 10.0499C7.74734 8.43857 9.76472 7.45244 12.0915 7.12373C12.1624 7.11084 12.2397 7.12373 12.3171 7.12373L12.3042 7.11084C12.3042 7.69092 12.3042 8.27744 12.3042 8.85752L12.3106 8.85107C12.1946 8.77373 12.0657 8.78018 11.9368 8.78018C10.5833 8.79307 9.55847 9.47627 8.64324 10.3851C8.52722 10.5011 8.56589 10.6106 8.61101 10.7396C8.97195 11.7515 9.50046 12.6667 10.2481 13.4466C10.8346 14.046 11.4921 14.5423 12.3171 14.755Z" fill="#74B700"/>
</svg>
