<svg width="34" height="34" viewBox="0 0 34 34" fill="none" xmlns="http://www.w3.org/2000/svg">
<rect x="0.75" y="0.75" width="32.5" height="32.5" rx="3.25" fill="white" stroke="#EEEEEE" stroke-width="1.5"/>
<path d="M27.9956 10.5721C27.9956 15.1904 27.9956 19.8088 27.9956 24.4312C27.9751 24.4353 27.9546 24.4394 27.9341 24.4394C23.6274 24.4394 19.3208 24.4394 15.0142 24.4435C14.8788 24.4435 14.8378 24.3984 14.8419 24.2672C14.846 23.7832 14.8378 23.2992 14.8337 22.8152C15.572 22.8973 16.3062 22.8644 17.0403 22.7783C18.8696 22.5609 20.6497 22.1139 22.3806 21.4863C23.689 21.0146 24.9522 20.4527 26.0843 19.6324C26.4452 19.3699 26.4493 19.3576 26.072 19.1361C25.4403 18.7588 24.7923 18.4019 24.1606 18.0246C24.0417 17.9549 23.9802 17.9672 23.8817 18.0492C23.4839 18.3814 23.086 18.7178 22.6759 19.0336C21.4495 19.9852 20.1534 20.8096 18.6646 21.2977C17.4177 21.7037 16.1421 21.8883 14.8296 21.7242L14.8337 21.7324C14.8337 21.3469 14.8296 20.9654 14.8296 20.5799C15.0921 20.6086 15.3587 20.6496 15.6212 20.6578C16.6712 20.6906 17.6433 20.4035 18.5743 19.9441C20.297 19.091 21.7079 17.8482 22.9835 16.4332C23.0696 16.3348 23.0491 16.2814 22.9753 16.1953C22.5036 15.6457 21.9827 15.1412 21.4208 14.6859C20.0714 13.599 18.5702 12.8238 16.8476 12.5203C16.179 12.4014 15.5022 12.4055 14.8296 12.4178L14.8337 12.4219C14.8337 11.8887 14.8296 11.3555 14.8296 10.8264C14.8296 10.568 14.8296 10.568 15.0962 10.568C19.3208 10.568 23.5454 10.568 27.7659 10.568C27.8479 10.5598 27.9218 10.568 27.9956 10.5721Z" fill="#75B800"/>
<path d="M7.00391 16.2695C7.09004 16.29 7.11875 16.2121 7.16387 16.1711C8.72246 14.7971 10.4369 13.6732 12.4057 12.9678C13.1316 12.7053 13.8822 12.5207 14.6533 12.451C14.7148 12.4469 14.7723 12.4305 14.8338 12.4182L14.8297 12.4141C14.8338 12.7586 14.8338 13.099 14.8379 13.4436C14.641 13.4682 14.4441 13.4928 14.2473 13.5215C12.2211 13.8414 10.5723 14.8135 9.26387 16.3803C9.16543 16.4951 9.16133 16.5977 9.21465 16.733C9.70273 17.984 10.3877 19.1078 11.3598 20.0389C12.3359 20.974 13.4803 21.5646 14.8338 21.7246L14.8297 21.7164C14.8297 22.0814 14.8338 22.4465 14.8338 22.8156C13.7346 22.7008 12.6928 22.4055 11.7166 21.8846C10.0883 21.0109 8.87012 19.7189 7.91445 18.1604C7.60684 17.66 7.34023 17.1391 7.11055 16.5977C7.09004 16.5525 7.10645 16.4582 7.00391 16.4746C7.00391 16.4049 7.00391 16.3393 7.00391 16.2695Z" fill="#75B700"/>
<path d="M14.8378 14.7147C14.8337 14.2881 14.8337 13.8615 14.8296 13.435C15.5843 13.4104 16.3308 13.4514 17.0567 13.6811C18.5702 14.161 19.7761 15.0756 20.7892 16.2692C20.8507 16.3389 20.8712 16.3963 20.8015 16.4824C19.8335 17.6842 18.763 18.767 17.3274 19.411C16.5851 19.7432 15.814 19.858 15.0142 19.6365C14.9485 19.6201 14.8788 19.6119 14.8296 19.5586L14.8337 19.5668C14.8337 18.3158 14.8337 17.0649 14.8337 15.8139L14.8296 15.818C14.8665 15.7893 14.9075 15.8016 14.9485 15.8057C15.6007 15.8795 16.1298 16.1666 16.5112 16.708C16.7491 17.0444 16.9542 17.3971 17.1634 17.7498C17.2167 17.8401 17.2536 17.8647 17.3438 17.7867C17.8688 17.3397 18.3979 16.8967 18.9271 16.4537C19.0009 16.3922 19.005 16.3471 18.9394 16.2733C17.8319 15.0797 16.4825 14.5055 14.8337 14.7106L14.8378 14.7147Z" fill="#75B700"/>
<path d="M14.838 19.5705L14.8339 19.5623C14.8339 19.8986 14.838 20.2391 14.838 20.5754C13.2753 20.2924 12.1637 19.3859 11.3598 18.0529C11.1261 17.6674 10.9374 17.2572 10.7897 16.8307C10.7569 16.7322 10.7528 16.6584 10.8389 16.5764C11.93 15.551 13.2137 14.9234 14.6944 14.7143C14.7395 14.7061 14.7887 14.7143 14.838 14.7143L14.8298 14.7061C14.8298 15.0752 14.8298 15.4484 14.8298 15.8176L14.8339 15.8135C14.76 15.7643 14.678 15.7684 14.596 15.7684C13.7346 15.7766 13.0825 16.2113 12.5001 16.7896C12.4262 16.8635 12.4509 16.9332 12.4796 17.0152C12.7093 17.6592 13.0456 18.2416 13.5214 18.7379C13.8946 19.1193 14.313 19.4352 14.838 19.5705Z" fill="#74B700"/>
</svg>
