<svg width="25" height="16" viewBox="0 0 25 16" fill="none" xmlns="http://www.w3.org/2000/svg">
<path fill-rule="evenodd" clip-rule="evenodd" d="M0 7.21444V14.4289H0.756836H1.51367V15.2145V16L2.23389 15.9856L2.9541 15.9711L2.96763 15.2L2.9811 14.4289H3.71226H4.44336V15.2131V15.9972H5.17578H5.9082V15.2131V14.4289H6.64062H7.37305V15.2131V15.9972H8.10547H8.83789V15.2131V14.4289H9.57031H10.3027V15.2131V15.9972H11.0352H11.7676V15.2131V14.4289H12.5H13.2324V15.2131V15.9972H13.9648H14.6973V15.2131V14.4289H15.4297H16.1621V15.2131V15.9972H16.8945H17.627V15.2131V14.4289H18.3594H19.0918V15.2131V15.9972H19.8242H20.5566V15.2131V14.4289H21.2891H22.0215V15.2131V15.9972H22.7539H23.4863V15.2131V14.4289H24.2432H25V7.21444V0H12.5H0V7.21444ZM23.5352 7.21444V12.8605H12.5H1.46484V7.21444V1.56836H12.5H23.5352V7.21444ZM2.9416 7.20095L2.9541 11.266H5.63965H8.3252V7.21444V3.16285L5.62715 3.14936L2.9291 3.13582L2.9416 7.20095ZM9.81445 7.21444V11.2922H12.5H15.1855V7.21444V3.13671H12.5H9.81445V7.21444ZM16.6729 3.20206C16.6601 3.23803 16.6552 5.0671 16.6622 7.26672L16.6748 11.266H19.3604H22.0459L22.0584 7.20137L22.0709 3.13671H19.3835C17.2786 3.13671 16.6911 3.15088 16.6729 3.20206ZM6.87305 7.20137L6.88574 9.67153H5.64014H4.39453V7.18741V4.70329L5.62744 4.71725L6.86035 4.73121L6.87305 7.20137ZM13.7207 7.1883V9.67153H12.5H11.2793V7.1883V4.70507H12.5H13.7207V7.1883ZM20.6055 7.1883V9.67153H19.3604H18.1152V7.22317C18.1152 5.87652 18.1299 4.75907 18.1478 4.73994C18.1657 4.72075 18.726 4.70507 19.3929 4.70507H20.6055V7.1883Z" fill="#53566A"/>
</svg>
