<svg width="147" height="164" viewBox="0 0 147 164" fill="none" xmlns="http://www.w3.org/2000/svg">
<path d="M41.11 148.522H36.21V147.318H42.51V148.522L38.968 157.118H37.54L41.11 148.522ZM42.446 153.716L46.786 147.318H48.494V153.716H49.726V154.92H48.494V157.118H47.178V154.92H42.446V153.716ZM47.178 153.716V148.788L43.888 153.716H47.178ZM52.406 148.774L50.362 150.16V148.732L52.406 147.318H53.722V157.118H52.406V148.774ZM57.3006 148.774L55.2566 150.16V148.732L57.3006 147.318H58.6166V157.118H57.3006V148.774ZM67.2211 157.23C66.2224 157.23 65.4338 156.936 64.8551 156.348C64.2858 155.76 64.0011 154.915 64.0011 153.814V153.422C64.0011 152.33 64.2904 151.49 64.8691 150.902C65.4478 150.305 66.2318 150.006 67.2211 150.006C68.2198 150.006 69.0038 150.3 69.5731 150.888C70.1518 151.476 70.4411 152.321 70.4411 153.422V153.814C70.4411 154.906 70.1518 155.751 69.5731 156.348C68.9944 156.936 68.2104 157.23 67.2211 157.23ZM67.2211 156.082C67.8091 156.082 68.2711 155.9 68.6071 155.536C68.9524 155.163 69.1251 154.589 69.1251 153.814V153.422C69.1251 152.657 68.9524 152.087 68.6071 151.714C68.2711 151.341 67.8091 151.154 67.2211 151.154C66.6331 151.154 66.1664 151.341 65.8211 151.714C65.4851 152.078 65.3171 152.647 65.3171 153.422V153.814C65.3171 154.579 65.4851 155.149 65.8211 155.522C66.1664 155.895 66.6331 156.082 67.2211 156.082ZM77.5084 157.118H72.1184V150.118H73.3784V155.97H76.5284V150.118H77.7884V155.97H78.7684V158.938H77.5084V157.118ZM82.9027 157.23C82.4081 157.23 81.9601 157.155 81.5587 157.006C81.1667 156.847 80.8307 156.623 80.5507 156.334C80.2707 156.035 80.0561 155.676 79.9067 155.256C79.7574 154.836 79.6827 154.355 79.6827 153.814V153.422C79.6827 152.881 79.7574 152.4 79.9067 151.98C80.0561 151.551 80.2661 151.191 80.5367 150.902C80.8167 150.613 81.1481 150.393 81.5307 150.244C81.9227 150.085 82.3567 150.006 82.8327 150.006C83.3087 150.006 83.7381 150.085 84.1207 150.244C84.5127 150.393 84.8441 150.617 85.1147 150.916C85.3947 151.215 85.6094 151.579 85.7587 152.008C85.9081 152.437 85.9827 152.932 85.9827 153.492V153.996H80.9987C81.0174 154.659 81.1854 155.172 81.5027 155.536C81.8294 155.9 82.2727 156.082 82.8327 156.082C83.2807 156.082 83.6494 155.998 83.9387 155.83C84.2281 155.662 84.4474 155.391 84.5967 155.018H85.9127C85.7447 155.746 85.3994 156.297 84.8767 156.67C84.3634 157.043 83.7054 157.23 82.9027 157.23ZM82.8327 151.154C82.3007 151.154 81.8807 151.308 81.5727 151.616C81.2647 151.924 81.0781 152.372 81.0127 152.96H84.6667C84.5547 151.756 83.9434 151.154 82.8327 151.154ZM87.6633 150.118H88.9233V152.974H92.4233V150.118H93.6833V157.118H92.4233V154.122H88.9233V157.118H87.6633V150.118ZM98.5844 157.23C97.5857 157.23 96.797 156.936 96.2184 156.348C95.649 155.76 95.3644 154.915 95.3644 153.814V153.422C95.3644 152.33 95.6537 151.49 96.2324 150.902C96.811 150.305 97.595 150.006 98.5844 150.006C99.583 150.006 100.367 150.3 100.936 150.888C101.515 151.476 101.804 152.321 101.804 153.422V153.814C101.804 154.906 101.515 155.751 100.936 156.348C100.358 156.936 99.5737 157.23 98.5844 157.23ZM98.5844 156.082C99.1724 156.082 99.6344 155.9 99.9704 155.536C100.316 155.163 100.488 154.589 100.488 153.814V153.422C100.488 152.657 100.316 152.087 99.9704 151.714C99.6344 151.341 99.1724 151.154 98.5844 151.154C97.9964 151.154 97.5297 151.341 97.1844 151.714C96.8484 152.078 96.6804 152.647 96.6804 153.422V153.814C96.6804 154.579 96.8484 155.149 97.1844 155.522C97.5297 155.895 97.9964 156.082 98.5844 156.082ZM103.482 150.118H104.742V152.904H105.722L107.626 150.118H109.082L106.716 153.436L109.362 157.118H107.85L105.722 154.052H104.742V157.118H103.482V150.118Z" fill="black" fill-opacity="0.6"/>
<mask id="path-2-inside-1_55_1024" fill="white">
<path d="M109.447 128.843C111.099 131.378 114.509 132.109 116.911 130.269C127.712 121.993 135.979 110.798 140.698 97.9558C146.05 83.3943 146.556 67.4938 142.139 52.6219C137.723 37.75 128.621 24.7023 116.189 15.4218C103.758 6.1413 88.6608 1.12439 73.147 1.11817C57.6333 1.11195 42.5324 6.11675 30.0932 15.3873C17.654 24.6578 8.54183 37.6982 4.11359 52.5665C-0.314643 67.4349 0.177944 83.3358 5.518 97.9016C10.2275 110.747 18.4852 121.949 29.2796 130.234C31.6802 132.076 35.0905 131.348 36.7451 128.814C38.3998 126.28 37.669 122.903 35.2938 121.028C26.4646 114.058 19.7033 104.758 15.8068 94.1295C11.2796 81.7807 10.8619 68.2999 14.6162 55.6945C18.3704 43.0892 26.0957 32.0336 36.6417 24.174C47.1876 16.3145 59.9901 12.0714 73.1426 12.0767C86.2952 12.082 99.0942 16.3353 109.634 24.2033C120.174 32.0713 127.89 43.1331 131.634 55.7415C135.378 68.3498 134.95 81.8303 130.413 94.1755C126.508 104.801 119.739 114.095 110.904 121.059C108.527 122.932 107.794 126.308 109.447 128.843Z"/>
</mask>
<path d="M109.447 128.843C111.099 131.378 114.509 132.109 116.911 130.269C127.712 121.993 135.979 110.798 140.698 97.9558C146.05 83.3943 146.556 67.4938 142.139 52.6219C137.723 37.75 128.621 24.7023 116.189 15.4218C103.758 6.1413 88.6608 1.12439 73.147 1.11817C57.6333 1.11195 42.5324 6.11675 30.0932 15.3873C17.654 24.6578 8.54183 37.6982 4.11359 52.5665C-0.314643 67.4349 0.177944 83.3358 5.518 97.9016C10.2275 110.747 18.4852 121.949 29.2796 130.234C31.6802 132.076 35.0905 131.348 36.7451 128.814C38.3998 126.28 37.669 122.903 35.2938 121.028C26.4646 114.058 19.7033 104.758 15.8068 94.1295C11.2796 81.7807 10.8619 68.2999 14.6162 55.6945C18.3704 43.0892 26.0957 32.0336 36.6417 24.174C47.1876 16.3145 59.9901 12.0714 73.1426 12.0767C86.2952 12.082 99.0942 16.3353 109.634 24.2033C120.174 32.0713 127.89 43.1331 131.634 55.7415C135.378 68.3498 134.95 81.8303 130.413 94.1755C126.508 104.801 119.739 114.095 110.904 121.059C108.527 122.932 107.794 126.308 109.447 128.843Z" fill="#D9D9D9" stroke="#EFEFEF" stroke-width="28" mask="url(#path-2-inside-1_55_1024)"/>
<mask id="path-3-inside-2_55_1024" fill="white">
<path d="M109.647 121.854C119.961 114.141 127.57 103.362 131.383 91.061C135.196 78.7596 135.018 65.5669 130.874 53.3729C126.73 41.1789 118.834 30.6093 108.315 23.1783C97.7959 15.7473 85.1951 11.8362 72.3173 12.0053C59.4396 12.1743 46.9458 16.4149 36.6257 24.1195C26.3056 31.8241 18.6889 42.5974 14.8666 54.896C11.0443 67.1946 11.2127 80.3874 15.3475 92.5844C19.4823 104.781 27.3715 115.357 37.8848 122.796L44.0753 114.047C35.4092 107.915 28.9062 99.1975 25.4978 89.1434C22.0895 79.0894 21.9507 68.2146 25.1014 58.0769C28.2521 47.9392 34.5306 39.0588 43.0374 32.7078C51.5443 26.3569 61.8429 22.8614 72.458 22.722C83.0732 22.5827 93.4601 25.8066 102.131 31.932C110.801 38.0574 117.311 46.7699 120.727 56.8214C124.142 66.8729 124.289 77.7476 121.146 87.8876C118.003 98.0277 111.731 106.913 103.229 113.27L109.647 121.854Z"/>
</mask>
<path d="M109.647 121.854C119.961 114.141 127.57 103.362 131.383 91.061C135.196 78.7596 135.018 65.5669 130.874 53.3729C126.73 41.1789 118.834 30.6093 108.315 23.1783C97.7959 15.7473 85.1951 11.8362 72.3173 12.0053C59.4396 12.1743 46.9458 16.4149 36.6257 24.1195C26.3056 31.8241 18.6889 42.5974 14.8666 54.896C11.0443 67.1946 11.2127 80.3874 15.3475 92.5844C19.4823 104.781 27.3715 115.357 37.8848 122.796L44.0753 114.047C35.4092 107.915 28.9062 99.1975 25.4978 89.1434C22.0895 79.0894 21.9507 68.2146 25.1014 58.0769C28.2521 47.9392 34.5306 39.0588 43.0374 32.7078C51.5443 26.3569 61.8429 22.8614 72.458 22.722C83.0732 22.5827 93.4601 25.8066 102.131 31.932C110.801 38.0574 117.311 46.7699 120.727 56.8214C124.142 66.8729 124.289 77.7476 121.146 87.8876C118.003 98.0277 111.731 106.913 103.229 113.27L109.647 121.854Z" stroke="#E0E0E0" stroke-width="18" stroke-dasharray="1 20" mask="url(#path-3-inside-2_55_1024)"/>
<mask id="path-4-inside-3_55_1024" fill="white">
<path d="M119.475 25.2869C121.547 23.1489 121.506 19.7186 119.219 17.8122C112.928 12.5686 105.779 8.42792 98.0719 5.58046C88.6768 2.10913 78.6608 0.636178 68.6641 1.25577C58.6674 1.87536 48.9099 4.57385 40.0153 9.17875C31.1208 13.7837 23.2848 20.1937 17.0084 27.9991C10.7319 35.8045 6.15299 44.8335 3.56433 54.5091C0.975667 64.1847 0.434203 74.294 1.97455 84.1907C3.5149 94.0875 7.10316 103.554 12.51 111.985C16.9451 118.901 22.5237 124.996 28.9953 130.014C31.348 131.839 34.7073 131.143 36.3507 128.66C37.9941 126.177 37.2964 122.851 34.9679 120.995C29.7349 116.825 25.211 111.818 21.5859 106.165C16.9887 98.9963 13.9378 90.9474 12.6281 82.5326C11.3184 74.1179 11.7788 65.5225 13.9798 57.2957C16.1808 49.069 20.074 41.3921 25.4106 34.7555C30.7472 28.1189 37.4097 22.6688 44.9723 18.7535C52.535 14.8381 60.8313 12.5437 69.331 12.0169C77.8308 11.4901 86.3469 12.7425 94.3351 15.694C100.634 18.0215 106.496 21.3652 111.692 25.5813C114.004 27.4573 117.403 27.4249 119.475 25.2869Z"/>
</mask>
<path d="M119.475 25.2869C121.547 23.1489 121.506 19.7186 119.219 17.8122C112.928 12.5686 105.779 8.42792 98.0719 5.58046C88.6768 2.10913 78.6608 0.636178 68.6641 1.25577C58.6674 1.87536 48.9099 4.57385 40.0153 9.17875C31.1208 13.7837 23.2848 20.1937 17.0084 27.9991C10.7319 35.8045 6.15299 44.8335 3.56433 54.5091C0.975667 64.1847 0.434203 74.294 1.97455 84.1907C3.5149 94.0875 7.10316 103.554 12.51 111.985C16.9451 118.901 22.5237 124.996 28.9953 130.014C31.348 131.839 34.7073 131.143 36.3507 128.66C37.9941 126.177 37.2964 122.851 34.9679 120.995C29.7349 116.825 25.211 111.818 21.5859 106.165C16.9887 98.9963 13.9378 90.9474 12.6281 82.5326C11.3184 74.1179 11.7788 65.5225 13.9798 57.2957C16.1808 49.069 20.074 41.3921 25.4106 34.7555C30.7472 28.1189 37.4097 22.6688 44.9723 18.7535C52.535 14.8381 60.8313 12.5437 69.331 12.0169C77.8308 11.4901 86.3469 12.7425 94.3351 15.694C100.634 18.0215 106.496 21.3652 111.692 25.5813C114.004 27.4573 117.403 27.4249 119.475 25.2869Z" fill="#D9D9D9" stroke="#5F80F2" stroke-width="28" mask="url(#path-4-inside-3_55_1024)"/>
<g filter="url(#filter0_di_55_1024)">
<circle cx="119.5" cy="25.5" r="8.5" fill="#5F80F2"/>
</g>
<path d="M63.8182 81.2C62.2448 81.2 61.0248 80.78 60.1582 79.94C59.2915 79.0867 58.8448 77.8733 58.8182 76.3H61.3382C61.3648 77.22 61.5848 77.8933 61.9982 78.32C62.4115 78.7467 63.0182 78.96 63.8182 78.96C64.6448 78.96 65.2648 78.7733 65.6782 78.4C66.0915 78.0133 66.2982 77.4933 66.2982 76.84C66.2982 76.2667 66.0982 75.7933 65.6982 75.42C65.3115 75.0467 64.7315 74.86 63.9582 74.86H62.1182V72.74H63.9582C64.5982 72.74 65.0982 72.5733 65.4582 72.24C65.8182 71.9067 65.9982 71.4733 65.9982 70.94C65.9982 70.3667 65.8115 69.9067 65.4382 69.56C65.0782 69.2133 64.5382 69.04 63.8182 69.04C62.4848 69.04 61.7582 69.7933 61.6382 71.3H59.1182C59.1448 69.8867 59.5648 68.7867 60.3782 68C61.2048 67.2 62.3515 66.8 63.8182 66.8C64.5915 66.8 65.2715 66.9 65.8582 67.1C66.4448 67.2867 66.9315 67.56 67.3182 67.92C67.7182 68.2667 68.0182 68.6867 68.2182 69.18C68.4182 69.66 68.5182 70.1933 68.5182 70.78C68.5182 71.42 68.3782 72 68.0982 72.52C67.8182 73.04 67.3848 73.46 66.7982 73.78C67.4782 74.1133 67.9848 74.56 68.3182 75.12C68.6515 75.68 68.8182 76.3133 68.8182 77.02C68.8182 77.6467 68.7115 78.2133 68.4982 78.72C68.2848 79.2267 67.9648 79.6667 67.5382 80.04C67.1248 80.4133 66.6048 80.7 65.9782 80.9C65.3648 81.1 64.6448 81.2 63.8182 81.2ZM72.7197 81.2C72.2531 81.2 71.8664 81.0467 71.5597 80.74C71.2664 80.4333 71.1197 80.0533 71.1197 79.6C71.1197 79.1467 71.2664 78.7667 71.5597 78.46C71.8664 78.1533 72.2531 78 72.7197 78C73.1864 78 73.5664 78.1533 73.8597 78.46C74.1664 78.7667 74.3197 79.1467 74.3197 79.6C74.3197 80.0533 74.1664 80.4333 73.8597 80.74C73.5664 81.0467 73.1864 81.2 72.7197 81.2ZM81.4158 81.2C79.8425 81.2 78.6225 80.78 77.7558 79.94C76.8892 79.0867 76.4425 77.8733 76.4158 76.3H78.9358C78.9625 77.22 79.1825 77.8933 79.5958 78.32C80.0092 78.7467 80.6158 78.96 81.4158 78.96C82.2425 78.96 82.8625 78.7733 83.2758 78.4C83.6892 78.0133 83.8958 77.4933 83.8958 76.84C83.8958 76.2667 83.6958 75.7933 83.2958 75.42C82.9092 75.0467 82.3292 74.86 81.5558 74.86H79.7158V72.74H81.5558C82.1958 72.74 82.6958 72.5733 83.0558 72.24C83.4158 71.9067 83.5958 71.4733 83.5958 70.94C83.5958 70.3667 83.4092 69.9067 83.0358 69.56C82.6758 69.2133 82.1358 69.04 81.4158 69.04C80.0825 69.04 79.3558 69.7933 79.2358 71.3H76.7158C76.7425 69.8867 77.1625 68.7867 77.9758 68C78.8025 67.2 79.9492 66.8 81.4158 66.8C82.1892 66.8 82.8692 66.9 83.4558 67.1C84.0425 67.2867 84.5292 67.56 84.9158 67.92C85.3158 68.2667 85.6158 68.6867 85.8158 69.18C86.0158 69.66 86.1158 70.1933 86.1158 70.78C86.1158 71.42 85.9758 72 85.6958 72.52C85.4158 73.04 84.9825 73.46 84.3958 73.78C85.0758 74.1133 85.5825 74.56 85.9158 75.12C86.2492 75.68 86.4158 76.3133 86.4158 77.02C86.4158 77.6467 86.3092 78.2133 86.0958 78.72C85.8825 79.2267 85.5625 79.6667 85.1358 80.04C84.7225 80.4133 84.2025 80.7 83.5758 80.9C82.9625 81.1 82.2425 81.2 81.4158 81.2Z" fill="#5F80F2"/>
<defs>
<filter id="filter0_di_55_1024" x="111" y="14" width="17" height="20" filterUnits="userSpaceOnUse" color-interpolation-filters="sRGB">
<feFlood flood-opacity="0" result="BackgroundImageFix"/>
<feColorMatrix in="SourceAlpha" type="matrix" values="0 0 0 0 0 0 0 0 0 0 0 0 0 0 0 0 0 0 127 0" result="hardAlpha"/>
<feMorphology radius="4" operator="erode" in="SourceAlpha" result="effect1_dropShadow_55_1024"/>
<feOffset dy="-3"/>
<feGaussianBlur stdDeviation="2"/>
<feComposite in2="hardAlpha" operator="out"/>
<feColorMatrix type="matrix" values="0 0 0 0 0.172537 0 0 0 0 0.11026 0 0 0 0 0.304167 0 0 0 0.46 0"/>
<feBlend mode="normal" in2="BackgroundImageFix" result="effect1_dropShadow_55_1024"/>
<feBlend mode="normal" in="SourceGraphic" in2="effect1_dropShadow_55_1024" result="shape"/>
<feColorMatrix in="SourceAlpha" type="matrix" values="0 0 0 0 0 0 0 0 0 0 0 0 0 0 0 0 0 0 127 0" result="hardAlpha"/>
<feOffset dy="-1"/>
<feGaussianBlur stdDeviation="2"/>
<feComposite in2="hardAlpha" operator="arithmetic" k2="-1" k3="1"/>
<feColorMatrix type="matrix" values="0 0 0 0 1 0 0 0 0 1 0 0 0 0 1 0 0 0 0.25 0"/>
<feBlend mode="normal" in2="shape" result="effect2_innerShadow_55_1024"/>
</filter>
</defs>
</svg>
