<svg width="148" height="164" viewBox="0 0 148 164" fill="none" xmlns="http://www.w3.org/2000/svg">
<path d="M31.3982 153.716L35.7382 147.318H37.4462V153.716H38.6782V154.92H37.4462V157.118H36.1302V154.92H31.3982V153.716ZM36.1302 153.716V148.788L32.8402 153.716H36.1302ZM43.3042 157.23C42.7908 157.23 42.3242 157.146 41.9042 156.978C41.4935 156.81 41.1435 156.544 40.8542 156.18C40.5648 155.807 40.3408 155.331 40.1822 154.752C40.0235 154.164 39.9442 153.455 39.9442 152.624V151.812C39.9442 150.991 40.0235 150.291 40.1822 149.712C40.3408 149.124 40.5648 148.648 40.8542 148.284C41.1528 147.911 41.5075 147.64 41.9182 147.472C42.3382 147.295 42.8002 147.206 43.3042 147.206C43.8175 147.206 44.2795 147.29 44.6902 147.458C45.1102 147.626 45.4648 147.897 45.7542 148.27C46.0435 148.634 46.2675 149.11 46.4262 149.698C46.5848 150.277 46.6642 150.981 46.6642 151.812V152.624C46.6642 153.445 46.5848 154.15 46.4262 154.738C46.2675 155.317 46.0388 155.793 45.7402 156.166C45.4508 156.53 45.0962 156.801 44.6762 156.978C44.2655 157.146 43.8082 157.23 43.3042 157.23ZM43.3042 155.97C43.6122 155.97 43.8875 155.919 44.1302 155.816C44.3822 155.704 44.5922 155.522 44.7602 155.27C44.9282 155.009 45.0588 154.663 45.1522 154.234C45.2455 153.805 45.2922 153.268 45.2922 152.624V151.812C45.2922 151.168 45.2455 150.636 45.1522 150.216C45.0588 149.787 44.9235 149.441 44.7462 149.18C44.5782 148.919 44.3682 148.737 44.1162 148.634C43.8735 148.522 43.6028 148.466 43.3042 148.466C42.9962 148.466 42.7162 148.522 42.4642 148.634C42.2215 148.737 42.0162 148.919 41.8482 149.18C41.6802 149.432 41.5495 149.773 41.4562 150.202C41.3628 150.631 41.3162 151.168 41.3162 151.812V152.624C41.3162 153.268 41.3628 153.805 41.4562 154.234C41.5495 154.654 41.6802 154.995 41.8482 155.256C42.0255 155.517 42.2355 155.704 42.4782 155.816C42.7302 155.919 43.0055 155.97 43.3042 155.97ZM51.5691 157.23C50.7198 157.23 49.9918 157.015 49.3851 156.586C48.7784 156.157 48.3864 155.531 48.2091 154.71H49.5811C49.7398 155.13 49.9871 155.447 50.3231 155.662C50.6591 155.867 51.0744 155.97 51.5691 155.97C52.1851 155.97 52.6704 155.788 53.0251 155.424C53.3798 155.06 53.5571 154.547 53.5571 153.884C53.5571 153.231 53.3798 152.722 53.0251 152.358C52.6704 151.994 52.1851 151.812 51.5691 151.812C51.1491 151.812 50.7851 151.896 50.4771 152.064C50.1784 152.232 49.9498 152.437 49.7911 152.68H48.4891L48.9091 147.318H54.2991V148.522H50.1131L49.9031 151.196C50.4071 150.767 51.0418 150.552 51.8071 150.552C52.2551 150.552 52.6704 150.631 53.0531 150.79C53.4358 150.949 53.7671 151.177 54.0471 151.476C54.3271 151.765 54.5418 152.115 54.6911 152.526C54.8498 152.927 54.9291 153.38 54.9291 153.884C54.9291 154.388 54.8498 154.85 54.6911 155.27C54.5324 155.681 54.3038 156.031 54.0051 156.32C53.7158 156.609 53.3658 156.833 52.9551 156.992C52.5444 157.151 52.0824 157.23 51.5691 157.23ZM59.6251 157.23C59.0745 157.23 58.5891 157.16 58.1691 157.02C57.7585 156.88 57.4085 156.689 57.1191 156.446C56.8391 156.194 56.6245 155.895 56.4751 155.55C56.3351 155.205 56.2651 154.827 56.2651 154.416C56.2651 153.847 56.4098 153.361 56.6991 152.96C56.9978 152.559 57.3898 152.241 57.8751 152.008C57.4645 151.793 57.1378 151.509 56.8951 151.154C56.6618 150.799 56.5451 150.365 56.5451 149.852C56.5451 149.479 56.6198 149.133 56.7691 148.816C56.9185 148.489 57.1238 148.209 57.3851 147.976C57.6558 147.733 57.9778 147.547 58.3511 147.416C58.7338 147.276 59.1585 147.206 59.6251 147.206C60.1011 147.206 60.5258 147.271 60.8991 147.402C61.2818 147.533 61.6038 147.715 61.8651 147.948C62.1358 148.181 62.3411 148.461 62.4811 148.788C62.6305 149.115 62.7051 149.469 62.7051 149.852C62.7051 150.356 62.5791 150.785 62.3271 151.14C62.0845 151.495 61.7578 151.779 61.3471 151.994C61.8418 152.227 62.2385 152.549 62.5371 152.96C62.8358 153.361 62.9851 153.847 62.9851 154.416C62.9851 154.817 62.9105 155.191 62.7611 155.536C62.6118 155.872 62.3925 156.166 62.1031 156.418C61.8231 156.67 61.4731 156.871 61.0531 157.02C60.6331 157.16 60.1571 157.23 59.6251 157.23ZM59.6251 151.476C59.8305 151.448 60.0358 151.401 60.2411 151.336C60.4465 151.261 60.6285 151.163 60.7871 151.042C60.9551 150.911 61.0858 150.753 61.1791 150.566C61.2818 150.37 61.3331 150.137 61.3331 149.866C61.3331 149.689 61.2958 149.516 61.2211 149.348C61.1465 149.18 61.0345 149.031 60.8851 148.9C60.7451 148.769 60.5678 148.667 60.3531 148.592C60.1385 148.508 59.8958 148.466 59.6251 148.466C59.3545 148.466 59.1118 148.508 58.8971 148.592C58.6825 148.667 58.5005 148.769 58.3511 148.9C58.2111 149.031 58.1038 149.18 58.0291 149.348C57.9545 149.516 57.9171 149.689 57.9171 149.866C57.9171 150.127 57.9685 150.351 58.0711 150.538C58.1831 150.725 58.3185 150.883 58.4771 151.014C58.6451 151.145 58.8271 151.247 59.0231 151.322C59.2285 151.397 59.4291 151.448 59.6251 151.476ZM59.6251 155.97C59.9425 155.97 60.2225 155.928 60.4651 155.844C60.7171 155.76 60.9271 155.648 61.0951 155.508C61.2631 155.359 61.3891 155.191 61.4731 155.004C61.5665 154.808 61.6131 154.607 61.6131 154.402C61.6131 154.122 61.5571 153.875 61.4451 153.66C61.3331 153.445 61.1838 153.263 60.9971 153.114C60.8198 152.955 60.6098 152.829 60.3671 152.736C60.1338 152.643 59.8865 152.582 59.6251 152.554C59.3545 152.582 59.0978 152.643 58.8551 152.736C58.6125 152.82 58.3978 152.941 58.2111 153.1C58.0338 153.249 57.8938 153.431 57.7911 153.646C57.6885 153.861 57.6371 154.113 57.6371 154.402C57.6371 154.617 57.6791 154.817 57.7631 155.004C57.8565 155.191 57.9871 155.359 58.1551 155.508C58.3231 155.648 58.5285 155.76 58.7711 155.844C59.0231 155.928 59.3078 155.97 59.6251 155.97ZM71.1029 157.23C70.1043 157.23 69.3156 156.936 68.7369 156.348C68.1676 155.76 67.8829 154.915 67.8829 153.814V153.422C67.8829 152.33 68.1723 151.49 68.7509 150.902C69.3296 150.305 70.1136 150.006 71.1029 150.006C72.1016 150.006 72.8856 150.3 73.4549 150.888C74.0336 151.476 74.3229 152.321 74.3229 153.422V153.814C74.3229 154.906 74.0336 155.751 73.4549 156.348C72.8763 156.936 72.0923 157.23 71.1029 157.23ZM71.1029 156.082C71.6909 156.082 72.1529 155.9 72.4889 155.536C72.8343 155.163 73.0069 154.589 73.0069 153.814V153.422C73.0069 152.657 72.8343 152.087 72.4889 151.714C72.1529 151.341 71.6909 151.154 71.1029 151.154C70.5149 151.154 70.0483 151.341 69.7029 151.714C69.3669 152.078 69.1989 152.647 69.1989 153.422V153.814C69.1989 154.579 69.3669 155.149 69.7029 155.522C70.0483 155.895 70.5149 156.082 71.1029 156.082ZM81.3902 157.118H76.0002V150.118H77.2602V155.97H80.4102V150.118H81.6702V155.97H82.6502V158.938H81.3902V157.118ZM86.7846 157.23C86.2899 157.23 85.8419 157.155 85.4406 157.006C85.0486 156.847 84.7126 156.623 84.4326 156.334C84.1526 156.035 83.9379 155.676 83.7886 155.256C83.6392 154.836 83.5646 154.355 83.5646 153.814V153.422C83.5646 152.881 83.6392 152.4 83.7886 151.98C83.9379 151.551 84.1479 151.191 84.4186 150.902C84.6986 150.613 85.0299 150.393 85.4126 150.244C85.8046 150.085 86.2386 150.006 86.7146 150.006C87.1906 150.006 87.6199 150.085 88.0026 150.244C88.3946 150.393 88.7259 150.617 88.9966 150.916C89.2766 151.215 89.4912 151.579 89.6406 152.008C89.7899 152.437 89.8646 152.932 89.8646 153.492V153.996H84.8806C84.8992 154.659 85.0672 155.172 85.3846 155.536C85.7112 155.9 86.1546 156.082 86.7146 156.082C87.1626 156.082 87.5312 155.998 87.8206 155.83C88.1099 155.662 88.3292 155.391 88.4786 155.018H89.7946C89.6266 155.746 89.2812 156.297 88.7586 156.67C88.2452 157.043 87.5872 157.23 86.7846 157.23ZM86.7146 151.154C86.1826 151.154 85.7626 151.308 85.4546 151.616C85.1466 151.924 84.9599 152.372 84.8946 152.96H88.5486C88.4366 151.756 87.8252 151.154 86.7146 151.154ZM91.5451 150.118H92.8051V152.974H96.3051V150.118H97.5651V157.118H96.3051V154.122H92.8051V157.118H91.5451V150.118ZM102.466 157.23C101.468 157.23 100.679 156.936 100.1 156.348C99.5309 155.76 99.2462 154.915 99.2462 153.814V153.422C99.2462 152.33 99.5355 151.49 100.114 150.902C100.693 150.305 101.477 150.006 102.466 150.006C103.465 150.006 104.249 150.3 104.818 150.888C105.397 151.476 105.686 152.321 105.686 153.422V153.814C105.686 154.906 105.397 155.751 104.818 156.348C104.24 156.936 103.456 157.23 102.466 157.23ZM102.466 156.082C103.054 156.082 103.516 155.9 103.852 155.536C104.198 155.163 104.37 154.589 104.37 153.814V153.422C104.37 152.657 104.198 152.087 103.852 151.714C103.516 151.341 103.054 151.154 102.466 151.154C101.878 151.154 101.412 151.341 101.066 151.714C100.73 152.078 100.562 152.647 100.562 153.422V153.814C100.562 154.579 100.73 155.149 101.066 155.522C101.412 155.895 101.878 156.082 102.466 156.082ZM107.363 150.118H108.623V152.904H109.603L111.507 150.118H112.963L110.597 153.436L113.243 157.118H111.731L109.603 154.052H108.623V157.118H107.363V150.118Z" fill="black" fill-opacity="0.6"/>
<mask id="path-2-inside-1_55_971" fill="white">
<path d="M109.447 128.843C111.099 131.378 114.509 132.109 116.911 130.269C127.712 121.993 135.979 110.798 140.698 97.9558C146.05 83.3943 146.556 67.4938 142.139 52.6219C137.723 37.75 128.621 24.7023 116.189 15.4218C103.758 6.1413 88.6608 1.12439 73.147 1.11817C57.6333 1.11195 42.5324 6.11675 30.0932 15.3873C17.654 24.6578 8.54183 37.6982 4.11359 52.5665C-0.314643 67.4349 0.177944 83.3358 5.518 97.9016C10.2275 110.747 18.4852 121.949 29.2796 130.234C31.6802 132.076 35.0905 131.348 36.7451 128.814C38.3998 126.28 37.669 122.903 35.2938 121.028C26.4646 114.058 19.7033 104.758 15.8068 94.1295C11.2796 81.7807 10.8619 68.2999 14.6162 55.6945C18.3704 43.0892 26.0957 32.0336 36.6417 24.174C47.1876 16.3145 59.9901 12.0714 73.1426 12.0767C86.2952 12.082 99.0942 16.3353 109.634 24.2033C120.174 32.0713 127.89 43.1331 131.634 55.7415C135.378 68.3498 134.95 81.8303 130.413 94.1755C126.508 104.801 119.739 114.095 110.904 121.059C108.527 122.932 107.794 126.308 109.447 128.843Z"/>
</mask>
<path d="M109.447 128.843C111.099 131.378 114.509 132.109 116.911 130.269C127.712 121.993 135.979 110.798 140.698 97.9558C146.05 83.3943 146.556 67.4938 142.139 52.6219C137.723 37.75 128.621 24.7023 116.189 15.4218C103.758 6.1413 88.6608 1.12439 73.147 1.11817C57.6333 1.11195 42.5324 6.11675 30.0932 15.3873C17.654 24.6578 8.54183 37.6982 4.11359 52.5665C-0.314643 67.4349 0.177944 83.3358 5.518 97.9016C10.2275 110.747 18.4852 121.949 29.2796 130.234C31.6802 132.076 35.0905 131.348 36.7451 128.814C38.3998 126.28 37.669 122.903 35.2938 121.028C26.4646 114.058 19.7033 104.758 15.8068 94.1295C11.2796 81.7807 10.8619 68.2999 14.6162 55.6945C18.3704 43.0892 26.0957 32.0336 36.6417 24.174C47.1876 16.3145 59.9901 12.0714 73.1426 12.0767C86.2952 12.082 99.0942 16.3353 109.634 24.2033C120.174 32.0713 127.89 43.1331 131.634 55.7415C135.378 68.3498 134.95 81.8303 130.413 94.1755C126.508 104.801 119.739 114.095 110.904 121.059C108.527 122.932 107.794 126.308 109.447 128.843Z" fill="#D9D9D9" stroke="#EFEFEF" stroke-width="28" mask="url(#path-2-inside-1_55_971)"/>
<mask id="path-3-inside-2_55_971" fill="white">
<path d="M109.647 121.854C119.961 114.141 127.57 103.362 131.383 91.061C135.196 78.7596 135.018 65.5669 130.874 53.3729C126.73 41.1789 118.834 30.6093 108.315 23.1783C97.7959 15.7473 85.1951 11.8362 72.3173 12.0053C59.4396 12.1743 46.9458 16.4149 36.6257 24.1195C26.3056 31.8241 18.6889 42.5974 14.8666 54.896C11.0443 67.1946 11.2127 80.3874 15.3475 92.5844C19.4823 104.781 27.3715 115.357 37.8848 122.796L44.0753 114.047C35.4092 107.915 28.9062 99.1975 25.4978 89.1434C22.0895 79.0894 21.9507 68.2146 25.1014 58.0769C28.2521 47.9392 34.5306 39.0588 43.0374 32.7078C51.5443 26.3569 61.8429 22.8614 72.458 22.722C83.0732 22.5827 93.4601 25.8066 102.131 31.932C110.801 38.0574 117.311 46.7699 120.727 56.8214C124.142 66.8729 124.289 77.7476 121.146 87.8876C118.003 98.0277 111.731 106.913 103.229 113.27L109.647 121.854Z"/>
</mask>
<path d="M109.647 121.854C119.961 114.141 127.57 103.362 131.383 91.061C135.196 78.7596 135.018 65.5669 130.874 53.3729C126.73 41.1789 118.834 30.6093 108.315 23.1783C97.7959 15.7473 85.1951 11.8362 72.3173 12.0053C59.4396 12.1743 46.9458 16.4149 36.6257 24.1195C26.3056 31.8241 18.6889 42.5974 14.8666 54.896C11.0443 67.1946 11.2127 80.3874 15.3475 92.5844C19.4823 104.781 27.3715 115.357 37.8848 122.796L44.0753 114.047C35.4092 107.915 28.9062 99.1975 25.4978 89.1434C22.0895 79.0894 21.9507 68.2146 25.1014 58.0769C28.2521 47.9392 34.5306 39.0588 43.0374 32.7078C51.5443 26.3569 61.8429 22.8614 72.458 22.722C83.0732 22.5827 93.4601 25.8066 102.131 31.932C110.801 38.0574 117.311 46.7699 120.727 56.8214C124.142 66.8729 124.289 77.7476 121.146 87.8876C118.003 98.0277 111.731 106.913 103.229 113.27L109.647 121.854Z" stroke="#E0E0E0" stroke-width="18" stroke-dasharray="1 20" mask="url(#path-3-inside-2_55_971)"/>
<mask id="path-4-inside-3_55_971" fill="white">
<path d="M139.696 75.1405C142.672 75.2309 145.179 72.8889 145.047 69.9146C144.57 59.2123 141.71 48.727 136.647 39.2347C130.737 28.1532 122.03 18.8104 111.393 12.134C100.755 5.45763 88.5565 1.67989 76.0075 1.17589C63.4585 0.671872 50.9959 3.45911 39.8572 9.26089C28.7184 15.0627 19.291 23.6771 12.511 34.2489C5.73105 44.8207 1.83429 56.9821 1.20768 69.5256C0.581077 82.0691 3.24642 94.5583 8.93908 105.753C13.8154 115.343 20.7677 123.697 29.2641 130.222C31.6255 132.035 34.9815 131.323 36.6132 128.833C38.2449 126.343 37.5313 123.019 35.1941 121.175C28.2592 115.702 22.5733 108.779 18.5497 100.866C13.7095 91.3477 11.4433 80.7287 11.976 70.0636C12.5088 59.3984 15.8221 49.0582 21.5868 40.0694C27.3515 31.0807 35.3672 23.7563 44.8379 18.8233C54.3086 13.8903 64.9049 11.5205 75.5748 11.949C86.2446 12.3775 96.6167 15.5896 105.661 21.2662C114.706 26.9428 122.108 34.8865 127.134 44.3086C131.311 52.141 133.725 60.7685 134.234 69.588C134.406 72.5604 136.72 75.0501 139.696 75.1405Z"/>
</mask>
<path d="M139.696 75.1405C142.672 75.2309 145.179 72.8889 145.047 69.9146C144.57 59.2123 141.71 48.727 136.647 39.2347C130.737 28.1532 122.03 18.8104 111.393 12.134C100.755 5.45763 88.5565 1.67989 76.0075 1.17589C63.4585 0.671872 50.9959 3.45911 39.8572 9.26089C28.7184 15.0627 19.291 23.6771 12.511 34.2489C5.73105 44.8207 1.83429 56.9821 1.20768 69.5256C0.581077 82.0691 3.24642 94.5583 8.93908 105.753C13.8154 115.343 20.7677 123.697 29.2641 130.222C31.6255 132.035 34.9815 131.323 36.6132 128.833C38.2449 126.343 37.5313 123.019 35.1941 121.175C28.2592 115.702 22.5733 108.779 18.5497 100.866C13.7095 91.3477 11.4433 80.7287 11.976 70.0636C12.5088 59.3984 15.8221 49.0582 21.5868 40.0694C27.3515 31.0807 35.3672 23.7563 44.8379 18.8233C54.3086 13.8903 64.9049 11.5205 75.5748 11.949C86.2446 12.3775 96.6167 15.5896 105.661 21.2662C114.706 26.9428 122.108 34.8865 127.134 44.3086C131.311 52.141 133.725 60.7685 134.234 69.588C134.406 72.5604 136.72 75.0501 139.696 75.1405Z" fill="#D9D9D9" stroke="#875BE4" stroke-width="28" mask="url(#path-4-inside-3_55_971)"/>
<g filter="url(#filter0_di_55_971)">
<circle cx="139.5" cy="71.5" r="8.5" fill="#9060F3"/>
</g>
<path d="M58.4182 75.94L64.2582 67H67.4182V75.94H69.0182V78.06H67.4182V81H65.0182V78.06H58.4182V75.94ZM65.0182 75.94V69.66L60.9982 75.94H65.0182ZM72.4268 81.2C71.9601 81.2 71.5734 81.0467 71.2668 80.74C70.9734 80.4333 70.8268 80.0533 70.8268 79.6C70.8268 79.1467 70.9734 78.7667 71.2668 78.46C71.5734 78.1533 71.9601 78 72.4268 78C72.8934 78 73.2734 78.1533 73.5668 78.46C73.8734 78.7667 74.0268 79.1467 74.0268 79.6C74.0268 80.0533 73.8734 80.4333 73.5668 80.74C73.2734 81.0467 72.8934 81.2 72.4268 81.2ZM76.1229 78.88L80.6429 74.54C81.0829 74.1133 81.4562 73.74 81.7629 73.42C82.0695 73.1 82.3095 72.8067 82.4829 72.54C82.6695 72.2733 82.8029 72.0267 82.8829 71.8C82.9629 71.5733 83.0029 71.34 83.0029 71.1C83.0029 70.4733 82.8095 69.9733 82.4229 69.6C82.0362 69.2267 81.5029 69.04 80.8229 69.04C80.1429 69.04 79.6095 69.24 79.2229 69.64C78.8362 70.0267 78.6429 70.58 78.6429 71.3H76.1229C76.1229 70.62 76.2295 70 76.4429 69.44C76.6562 68.88 76.9629 68.4067 77.3629 68.02C77.7762 67.6333 78.2695 67.3333 78.8429 67.12C79.4295 66.9067 80.0895 66.8 80.8229 66.8C81.5562 66.8 82.2095 66.9067 82.7829 67.12C83.3695 67.32 83.8629 67.6133 84.2629 68C84.6762 68.3733 84.9895 68.8267 85.2029 69.36C85.4162 69.88 85.5229 70.46 85.5229 71.1C85.5229 71.8867 85.2695 72.66 84.7629 73.42C84.2562 74.18 83.4695 75.0467 82.4029 76.02L79.2629 78.88H85.5229V81H76.1229V78.88Z" fill="#875BE4"/>
<defs>
<filter id="filter0_di_55_971" x="131" y="60" width="17" height="20" filterUnits="userSpaceOnUse" color-interpolation-filters="sRGB">
<feFlood flood-opacity="0" result="BackgroundImageFix"/>
<feColorMatrix in="SourceAlpha" type="matrix" values="0 0 0 0 0 0 0 0 0 0 0 0 0 0 0 0 0 0 127 0" result="hardAlpha"/>
<feMorphology radius="4" operator="erode" in="SourceAlpha" result="effect1_dropShadow_55_971"/>
<feOffset dy="-3"/>
<feGaussianBlur stdDeviation="2"/>
<feComposite in2="hardAlpha" operator="out"/>
<feColorMatrix type="matrix" values="0 0 0 0 0.172537 0 0 0 0 0.11026 0 0 0 0 0.304167 0 0 0 0.46 0"/>
<feBlend mode="normal" in2="BackgroundImageFix" result="effect1_dropShadow_55_971"/>
<feBlend mode="normal" in="SourceGraphic" in2="effect1_dropShadow_55_971" result="shape"/>
<feColorMatrix in="SourceAlpha" type="matrix" values="0 0 0 0 0 0 0 0 0 0 0 0 0 0 0 0 0 0 127 0" result="hardAlpha"/>
<feOffset dy="-1"/>
<feGaussianBlur stdDeviation="2"/>
<feComposite in2="hardAlpha" operator="arithmetic" k2="-1" k3="1"/>
<feColorMatrix type="matrix" values="0 0 0 0 1 0 0 0 0 1 0 0 0 0 1 0 0 0 0.25 0"/>
<feBlend mode="normal" in2="shape" result="effect2_innerShadow_55_971"/>
</filter>
</defs>
</svg>
