<svg width="17" height="17" viewBox="0 0 17 17" fill="none" xmlns="http://www.w3.org/2000/svg">
<path d="M7.21428 0.535721C10.9028 0.535721 13.8928 3.52582 13.8928 7.21429C13.8928 8.77549 13.3572 10.2116 12.4596 11.3488L16.0199 14.9087C16.3267 15.2155 16.3267 15.713 16.0199 16.0199C15.713 16.3267 15.2155 16.3267 14.9087 16.0199L11.3488 12.4596C10.2116 13.3572 8.77548 13.8929 7.21428 13.8929C3.5258 13.8929 0.535706 10.9028 0.535706 7.21429C0.535706 3.52582 3.5258 0.535721 7.21428 0.535721ZM7.21428 2.10715C4.39368 2.10715 2.10713 4.3937 2.10713 7.21429C2.10713 10.0349 4.39368 12.3214 7.21428 12.3214C10.0349 12.3214 12.3214 10.0349 12.3214 7.21429C12.3214 4.3937 10.0349 2.10715 7.21428 2.10715Z" fill="white" fill-opacity="0.55"/>
</svg>
