<svg width="17" height="13" viewBox="0 0 17 13" fill="none" xmlns="http://www.w3.org/2000/svg">
<path fill-rule="evenodd" clip-rule="evenodd" d="M5.31602 0.0093845C4.75799 0.0709954 4.11046 0.263444 3.59492 0.520892C2.18671 1.22412 1.1614 2.51624 0.782898 4.06455C0.657364 4.57811 0 9.33936 0 9.73511C0 10.0154 0.117294 10.4714 0.273471 10.7986C0.482884 11.2371 0.944505 11.7065 1.37187 11.9155C2.06299 12.2535 2.78149 12.2489 3.48351 11.9019C3.82298 11.7341 4.18086 11.4309 4.37808 11.1442C4.444 11.0483 4.85094 10.2845 5.28245 9.44678L6.06702 7.92364H8.50563H10.9442L11.7288 9.44678C12.1603 10.2845 12.5673 11.0483 12.6332 11.1442C13.0803 11.7943 13.9356 12.2067 14.733 12.1567C15.3619 12.1172 15.8592 11.8774 16.3138 11.3942C16.661 11.0252 16.8632 10.6308 16.9599 10.1338C17.0411 9.71638 17.0324 9.62678 16.6118 6.55282C16.3114 4.35775 16.2229 3.897 15.9907 3.31829C15.41 1.87115 14.1588 0.686495 12.7387 0.239302C11.9706 -0.00261014 12.1684 0.00892782 8.65752 0.00150252C6.89279 -0.00226724 5.38911 0.00131187 5.31602 0.0093845ZM12.474 1.88307C13.0734 2.15617 13.1078 3.0129 12.5321 3.33203C12.18 3.52722 11.7273 3.4166 11.4898 3.07736C11.3374 2.85967 11.3073 2.50843 11.422 2.28491C11.631 1.87725 12.0826 1.70475 12.474 1.88307ZM5.46791 3.03057V3.63982H6.07545H6.683V4.24908V4.85833H6.07545H5.46791V5.46759V6.07684H4.86036H4.25282V5.46759V4.85833H3.64527H3.03772V4.24908V3.63982H3.64527H4.25282V3.03057V2.42131H4.86036H5.46791V3.03057ZM10.9816 3.58556C11.5915 4.01493 11.3508 4.97942 10.6186 5.04031C10.3652 5.0614 10.1738 5.00135 9.99628 4.84512C9.56097 4.46182 9.65921 3.80333 10.1954 3.51051C10.2764 3.46622 10.3827 3.45152 10.564 3.45952C10.7753 3.46885 10.8463 3.49029 10.9816 3.58556ZM14.1174 3.52208C14.6426 3.79297 14.738 4.46429 14.3055 4.84512C13.7854 5.30309 12.9772 4.94385 12.9727 4.25266C12.9705 3.91802 13.1473 3.63834 13.4422 3.51009C13.6303 3.4283 13.9465 3.43393 14.1174 3.52208ZM12.5479 5.17632C12.9824 5.41309 13.0806 6.02669 12.7453 6.40976C12.2645 6.95885 11.3535 6.61649 11.3535 5.88675C11.3535 5.24505 11.9849 4.86949 12.5479 5.17632Z" fill="white"/>
</svg>
