<svg width="18" height="18" viewBox="0 0 18 18" fill="none" xmlns="http://www.w3.org/2000/svg">
<path fill-rule="evenodd" clip-rule="evenodd" d="M0 0.473664V0.947365H0.880623C1.60122 0.947365 1.78005 0.957415 1.86495 1.00273C1.92197 1.03317 1.97252 1.06173 1.97724 1.06623C1.98198 1.07069 1.99383 4.59282 2.0036 8.89317L2.02139 16.712L2.48719 16.7221L2.95299 16.7322V15.422C2.95299 14.6899 2.96652 14.1171 2.98371 14.1239C3.00059 14.1305 3.52319 14.3482 4.14504 14.6076L5.27572 15.0793L5.76806 15.56L6.2604 16.0408L10.0644 16.0388L13.8685 16.0368L15.925 14.9194L17.9816 13.802L17.9908 12.4525L18 11.1029L17.5777 10.4691L17.1554 9.83531V8.59856V7.36177L17.5773 6.72694L17.9992 6.09211L17.9979 4.74426L17.9966 3.39641L17.1985 2.7524L16.4005 2.1084L15.6091 2.10789L14.8177 2.10734L14.3129 1.61808L13.8081 1.12878H10.0389H6.26979L6.18454 1.22318C6.13768 1.2751 5.9142 1.49664 5.68791 1.71546L5.27653 2.11333L4.11713 2.59762L2.9577 3.08188L2.94655 2.02368L2.93541 0.965506L2.8419 0.759604C2.71682 0.484222 2.49654 0.245231 2.25492 0.122743L2.05654 0.0221684L1.02827 0.0110661L0 0V0.473664ZM11.2671 2.85142C12.4928 3.08667 13.6997 3.79501 14.489 4.7423C15.1419 5.52578 15.5382 6.3327 15.7713 7.35262C15.8643 7.76 15.8704 7.8354 15.8701 8.58477C15.8698 9.47571 15.8251 9.7844 15.5954 10.4814C14.9675 12.3872 13.356 13.8764 11.4633 14.3001C10.2002 14.5828 8.9298 14.4263 7.78674 13.8472C6.80561 13.3502 6.11957 12.736 5.53485 11.831C4.21117 9.78241 4.27469 7.09981 5.69367 5.12464C6.62545 3.8277 8.03866 2.98802 9.63236 2.78444C9.90572 2.74954 10.9617 2.79279 11.2671 2.85142ZM9.16941 3.84842C8.90688 3.89791 8.61404 3.99369 8.36739 4.11074C8.16452 4.20703 8.14578 4.22426 8.20368 4.26145C8.80117 4.64514 9.101 4.9793 9.36761 5.55872C9.4941 5.83367 9.66752 6.4624 9.66752 6.64617C9.66752 6.78042 9.70703 6.80016 9.87974 6.75215C10.1158 6.68656 10.6172 6.70332 10.8506 6.78459C10.9857 6.83168 11.0629 6.84308 11.0778 6.81819C11.0903 6.79743 11.1293 6.64763 11.1646 6.4853C11.2543 6.07255 11.2474 5.38286 11.1498 5.00462C11.0557 4.64006 10.8788 4.20493 10.7798 4.0947C10.6066 3.90179 9.65683 3.75659 9.16941 3.84842ZM0.0351546 4.28533V4.64815H0.826133H1.61711V4.28533V3.92251H0.826133H0.0351546V4.28533ZM12.8738 4.74745C12.8597 5.23676 12.7055 5.71826 12.4213 6.16097C12.2566 6.41742 11.9018 6.8105 11.671 6.99216L11.4999 7.12684L11.6751 7.32973C11.8859 7.5738 12.0421 7.8839 12.1001 8.17376C12.1426 8.38649 12.1435 8.38754 12.2499 8.36446C12.4545 8.32009 12.9681 8.10628 13.166 7.9831C13.594 7.71664 14.0227 7.27658 14.2728 6.84707C14.3507 6.71326 14.3527 6.69414 14.3111 6.48425C14.1725 5.78549 13.7061 5.05422 13.1258 4.62576C13.0073 4.53829 12.904 4.46674 12.8961 4.46674C12.8883 4.46674 12.8783 4.59307 12.8738 4.74745ZM6.51007 6.11722C5.9876 6.61646 5.58958 7.50287 5.58958 8.16723V8.33504L5.86203 8.19658C6.56723 7.83823 7.34134 7.81736 8.20874 8.13335C8.36992 8.19205 8.50889 8.24009 8.51757 8.24009C8.52626 8.24009 8.54236 8.18294 8.55333 8.11314C8.58996 7.8801 8.79793 7.50566 9.02151 7.27016L9.23677 7.04336L9.03537 6.84086C8.495 6.29765 7.80763 5.98279 7.04692 5.93011L6.72898 5.90805L6.51007 6.11722ZM0.0351546 8.60291V11.1427H0.826133H1.61711V8.60291V6.06316H0.826133H0.0351546V8.60291ZM9.97498 7.15267C9.40509 7.30023 8.95419 7.84679 8.90522 8.44929C8.84722 9.16354 9.24672 9.77022 9.9168 9.98544C10.5872 10.2008 11.3025 9.86604 11.6118 9.19217C11.7147 8.96784 11.7241 8.91755 11.7241 8.58477C11.7241 8.25351 11.7145 8.20145 11.6147 7.98611C11.4554 7.64245 11.258 7.43183 10.9462 7.2728C10.717 7.15587 10.6452 7.13707 10.3948 7.12844C10.2365 7.12296 10.0476 7.13388 9.97498 7.15267ZM8.20832 8.85195C7.76832 8.98202 7.26435 9.27925 6.91101 9.61703C6.70905 9.81013 6.33648 10.3144 6.30737 10.434C6.25421 10.6527 6.5429 11.4259 6.83609 11.8499C7.01485 12.1085 7.41973 12.5047 7.62936 12.6264L7.76917 12.7074V12.4263C7.76917 11.9305 7.95471 11.3738 8.27371 10.9125C8.42695 10.6908 8.8765 10.2242 9.04939 10.1072L9.13921 10.0465L8.96871 9.84909C8.77005 9.6191 8.60486 9.28824 8.5412 8.99294C8.51645 8.87822 8.47897 8.78548 8.45788 8.7869C8.43679 8.78831 8.3245 8.81759 8.20832 8.85195ZM14.8528 8.93315C14.2096 9.31647 13.2825 9.35602 12.4337 9.0363C12.2777 8.97752 12.1393 8.92945 12.1262 8.92945C12.1131 8.92945 12.0934 8.98659 12.0824 9.0564C12.0458 9.28966 11.8378 9.66387 11.6137 9.89993L11.398 10.1272L11.6529 10.3719C12.191 10.8884 12.8517 11.1804 13.6143 11.2388L13.9226 11.2625L14.1943 10.9727C14.6794 10.4556 14.9916 9.77054 15.0357 9.12704C15.0472 8.95851 15.0503 8.82234 15.0426 8.82448C15.0349 8.82663 14.9495 8.87553 14.8528 8.93315ZM9.53062 10.4412C9.40206 10.9416 9.37144 11.3093 9.42196 11.746C9.47149 12.1741 9.56093 12.4845 9.74152 12.8554L9.87771 13.135L10.1035 13.207C10.6333 13.3759 11.2259 13.3889 11.7641 13.2434C12.0103 13.1769 12.4799 12.9818 12.4799 12.9461C12.4799 12.9377 12.381 12.868 12.2602 12.7913C11.6223 12.3861 11.1415 11.5883 10.9928 10.6883C10.9452 10.4002 10.9445 10.3989 10.8423 10.4086C10.1893 10.4703 9.91845 10.4522 9.62572 10.3274C9.57875 10.3074 9.55889 10.3311 9.53062 10.4412ZM0.0351546 12.9205V13.2833H0.826133H1.61711V12.9205V12.5577H0.826133H0.0351546V12.9205ZM5.27319 16.7634V18H5.78293H6.29267V17.2414V16.4828L5.81489 16.0169C5.55211 15.7606 5.32272 15.5455 5.30515 15.5389C5.28637 15.5318 5.27319 16.0366 5.27319 16.7634ZM14.3079 16.2014L13.8333 16.4627L13.8238 17.2313L13.8144 18H14.3072H14.8001V16.966C14.8001 16.3972 14.7961 15.9338 14.7913 15.936C14.7865 15.9383 14.5689 16.0577 14.3079 16.2014ZM7.06608 17.2381V18H7.47035H7.87463V17.6372V17.2744H8.06798H8.26133V17.6372V18H8.56015H8.85896V17.6372V17.2744H9.05231H9.24566V17.6372V18H9.56205H9.87844V17.6372V17.2744H10.0542H10.23V17.6372V18H10.5464H10.8628V17.6372V17.2744H11.0385H11.2143V17.6372V18H11.5307H11.8471V17.6372V17.2744H12.0405H12.2338V17.6372V18H12.6381H13.0424V17.2381V16.4761H10.0542H7.06608V17.2381Z" fill="white"/>
</svg>
