<svg width="17" height="17" viewBox="0 0 17 17" fill="none" xmlns="http://www.w3.org/2000/svg">
<path fill-rule="evenodd" clip-rule="evenodd" d="M2.94852 0.806769L2.93963 1.61178L2.284 1.62077L1.62838 1.62977V2.47498V3.32019L0.823367 3.32909L0.0183575 3.33798L0.00916217 3.82703L0 4.31608L0.805872 4.32497L1.61178 4.33387L1.62104 4.77372L1.6303 5.21357H0.81603H0.0017594V5.71151V6.20946H0.815599H1.62947L1.62061 7.09746L1.61178 7.98546L0.806769 7.99436L0.0017594 8.00325V8.5006V8.99794H0.815068H1.62838V9.89424V10.7905H0.815068H0.0017594V11.2885V11.7864H0.81603H1.6303L1.62104 12.2263L1.61178 12.6661L0.805872 12.675L0 12.6839L0.00916217 13.173L0.0183575 13.662L0.823367 13.6709L1.62838 13.6798V14.525V15.3702L2.284 15.3792L2.93963 15.3882L2.94852 16.1932L2.95742 16.9982H3.45477H3.95211V16.1841V15.3699L4.45836 15.3791L4.9646 15.3882L4.9735 16.1932L4.98239 16.9982H5.47974H5.97709V16.1841V15.3699L6.48333 15.3791L6.98957 15.3882L6.99847 16.1932L7.00736 16.9982H7.50471H8.00206V16.1841V15.3699L8.5083 15.3791L9.01454 15.3882L9.02344 16.1941L9.03234 17L9.52138 16.9908L10.0104 16.9816L10.0193 16.1758L10.0282 15.3699L10.5339 15.3791L11.0395 15.3882L11.0484 16.1941L11.0573 17L11.5464 16.9908L12.0354 16.9816L12.0443 16.1758L12.0532 15.3699L12.5588 15.3791L13.0645 15.3882L13.0734 16.1941L13.0823 17L13.5713 16.9908L14.0604 16.9816L14.0693 16.1766L14.0782 15.3716H14.7249H15.3716V14.5251V13.6786H16.1849H16.9982V13.1813V12.6839L16.1932 12.675L15.3882 12.6661L15.379 12.2263L15.3697 11.7864H16.184H16.9982V11.2885V10.7905H16.1849H15.3716V9.89424V8.99794H16.1849H16.9982V8.5006V8.00325L16.1932 7.99436L15.3882 7.98546L15.3794 7.09746L15.3705 6.20946H16.1844H16.9982V5.71151V5.21357H16.184H15.3697L15.379 4.77372L15.3882 4.33387L16.1932 4.32497L16.9982 4.31608V3.81873V3.32138H16.1849H15.3716V2.47488V1.62838H14.7249H14.0782L14.0693 0.823367L14.0604 0.0183575L13.5713 0.00916217L13.0823 0L13.0734 0.805872L13.0645 1.61178L12.5588 1.62094L12.0532 1.6301L12.0443 0.82423L12.0354 0.0183575L11.5464 0.00916217L11.0573 0L11.0484 0.805872L11.0395 1.61178L10.5339 1.62094L10.0282 1.6301L10.0193 0.82423L10.0104 0.0183575L9.52138 0.00916217L9.03234 0L9.02344 0.805872L9.01454 1.61178L8.5083 1.62094L8.00206 1.6301V0.815931V0.0017594H7.50471H7.00736L6.99847 0.806769L6.98957 1.61178L6.48333 1.62094L5.97709 1.6301V0.815931V0.0017594H5.47974H4.98239L4.9735 0.806769L4.9646 1.61178L4.45836 1.62094L3.95211 1.6301V0.815931V0.0017594H3.45477H2.95742L2.94852 0.806769ZM13.2803 8.5V13.2803H8.5H3.71974V8.5V3.71974H8.5H13.2803V8.5ZM4.71563 8.5V12.2844H8.5H12.2844V8.5V4.71563H8.5H4.71563V8.5Z" fill="white"/>
</svg>
