<svg width="25" height="22" viewBox="0 0 25 22" fill="none" xmlns="http://www.w3.org/2000/svg">
<path fill-rule="evenodd" clip-rule="evenodd" d="M0.378905 0.0964195C0.17278 0.202571 0 0.483546 0 0.712565C0 0.948869 0.172682 1.22322 0.389304 1.33104C0.568088 1.42 0.675447 1.42691 1.87768 1.42691H3.1734V2.80797V4.18904H2.68324C2.28832 4.18904 2.15562 4.20766 2.00042 4.2849C1.7838 4.39272 1.61111 4.66707 1.61111 4.90338C1.61111 5.13968 1.7838 5.41404 2.00042 5.52186C2.15562 5.5991 2.28832 5.61772 2.68324 5.61772H3.1734V6.23682V6.85592H1.87768C0.675447 6.85592 0.568088 6.86282 0.389304 6.95178C0.265248 7.0135 0.161551 7.11465 0.0982779 7.23566C0.00307576 7.41773 0 7.5113 0 10.2371C0 12.963 0.00307576 13.0566 0.0982779 13.2386C0.161551 13.3596 0.265248 13.4608 0.389304 13.5225C0.568088 13.6115 0.675447 13.6184 1.87768 13.6184H3.1734V14.428V15.2375H2.68324C2.08659 15.2375 1.86225 15.325 1.70939 15.6173C1.5849 15.8553 1.5849 16.0485 1.70939 16.2865C1.86225 16.5788 2.08659 16.6662 2.68324 16.6662H3.1734V19.0493C3.1734 21.3437 3.17707 21.4393 3.27168 21.6203C3.38222 21.8316 3.66348 22 3.90573 22C4.14798 22 4.42924 21.8316 4.53978 21.6203C4.6318 21.4442 4.63805 21.3415 4.63805 20.0017V18.5712H5.85859H7.07913V19.8113C7.07913 20.9601 7.08636 21.0652 7.17741 21.2393C7.24068 21.3603 7.34438 21.4614 7.46844 21.5232C7.65411 21.6155 7.7519 21.619 10.1549 21.619C12.5579 21.619 12.6557 21.6155 12.8414 21.5232C12.9654 21.4614 13.0691 21.3603 13.1324 21.2393C13.2234 21.0652 13.2307 20.9601 13.2307 19.8113V18.5712H14.0606H14.8906V19.8113C14.8906 20.9601 14.8978 21.0652 14.9889 21.2393C15.0521 21.3603 15.1558 21.4614 15.2799 21.5232C15.4673 21.6164 15.5616 21.619 18.7475 21.619C21.9334 21.619 22.0277 21.6164 22.2151 21.5232C22.3392 21.4614 22.4429 21.3603 22.5061 21.2393C22.5972 21.0652 22.6044 20.9601 22.6044 19.8113V18.5712H22.7973C23.8027 18.5712 24.7357 17.8297 24.9425 16.8663C25.02 16.5056 25.0188 3.96126 24.9413 3.60799C24.7613 2.78773 24.0852 2.12777 23.2489 1.95624C23.064 1.91828 20.3731 1.90314 13.8141 1.90314H4.63805V1.23451C4.63805 0.44459 4.57361 0.255766 4.24875 0.094086C4.06601 0.00317385 3.96598 -0.00168367 2.30877 0.000316489C0.665634 0.00231665 0.550561 0.00803138 0.378905 0.0964195ZM23.1427 3.42769C23.2668 3.48941 23.3705 3.59056 23.4337 3.71157C23.5308 3.89716 23.532 3.97935 23.532 10.2371C23.532 16.4949 23.5308 16.5771 23.4337 16.7627C23.3705 16.8837 23.2668 16.9849 23.1427 17.0466C22.9516 17.1417 22.8741 17.1425 13.7941 17.1425H4.63805V10.2371V3.33182H13.7941C22.8741 3.33182 22.9516 3.33263 23.1427 3.42769ZM6.67689 5.0492C6.47077 5.15535 6.29799 5.43633 6.29799 5.66535C6.29799 6.01737 6.66757 6.37969 7.0267 6.37969C7.4017 6.37969 7.76264 6.02933 7.76264 5.66535C7.76264 5.42904 7.58995 5.15469 7.37333 5.04687C7.13279 4.92719 6.91246 4.92791 6.67689 5.0492ZM15.8182 4.97867C15.7511 4.99024 15.5643 5.02201 15.4032 5.0493C14.4229 5.21507 13.4517 5.70287 12.6918 6.41103C11.8426 7.20242 11.3278 8.10969 11.0747 9.26087C10.9935 9.63052 10.9935 10.8438 11.0747 11.2134C11.3063 12.2667 11.7621 13.1236 12.4816 13.8583C13.2889 14.6826 14.2289 15.19 15.4032 15.4356C15.7805 15.5145 17.0251 15.5149 17.4049 15.4362C18.5794 15.1929 19.5134 14.6885 20.3265 13.8583C21.0461 13.1236 21.5018 12.2667 21.7334 11.2134C21.8146 10.8438 21.8146 9.63052 21.7334 9.26087C21.4966 8.18398 21.0413 7.34048 20.2818 6.57194C19.5059 5.78683 18.6017 5.29513 17.5093 5.0643C17.1697 4.99253 16.0625 4.93648 15.8182 4.97867ZM16.3064 6.41541C16.3063 6.43503 16.2005 6.81277 16.0712 7.25476L15.8362 8.0584L15.6106 8.14193C15.4865 8.18788 15.3051 8.27365 15.2074 8.33251C15.1098 8.39138 15.0136 8.42076 14.9936 8.3978C14.9736 8.37485 14.7171 8.11292 14.4235 7.81581L13.8897 7.27552L14.0362 7.15885C14.2596 6.98093 14.7453 6.72415 15.0663 6.61423C15.5671 6.44288 16.3065 6.3243 16.3064 6.41541ZM18.3154 6.86354C18.8059 7.11861 19.3961 7.64903 19.6973 8.10554C19.8003 8.2617 19.8848 8.2246 18.8582 8.47386L18.0657 8.66625L17.8386 8.49719C17.7138 8.40419 17.5486 8.29637 17.4716 8.25751C17.3947 8.21869 17.3317 8.17507 17.3317 8.16059C17.3317 8.14012 17.6036 7.1969 17.7519 6.70329C17.7806 6.60752 17.874 6.63404 18.3154 6.86354ZM3.1734 10.2371V12.1897H2.31903H1.46465V10.2371V8.28461H2.31903H3.1734V10.2371ZM14.1663 9.68548C14.1573 9.71386 14.1354 9.90821 14.1175 10.1173L14.085 10.4975L13.3139 10.6827C12.8898 10.7846 12.5273 10.8528 12.5084 10.8342C12.4894 10.8158 12.4749 10.5292 12.4762 10.1974C12.4786 9.54223 12.5452 9.22654 12.798 8.67264L12.9361 8.37009L13.5594 9.002C13.9022 9.34955 14.1753 9.6571 14.1663 9.68548ZM16.7115 9.49189C16.9253 9.57904 17.1733 9.86483 17.2126 10.0695C17.2677 10.3559 17.1953 10.5733 16.972 10.7911C16.6203 11.1341 16.1878 11.1341 15.8362 10.7911C15.5085 10.4714 15.4878 10.0572 15.7831 9.72915C16.0412 9.44241 16.3786 9.35617 16.7115 9.49189ZM6.67689 9.621C6.47077 9.72715 6.29799 10.0081 6.29799 10.2371C6.29799 10.4734 6.47067 10.7478 6.68729 10.8556C6.86046 10.9418 6.97422 10.9515 7.81146 10.9515C8.6487 10.9515 8.76245 10.9418 8.93563 10.8556C9.15225 10.7478 9.32493 10.4734 9.32493 10.2371C9.32493 10.0008 9.15225 9.72648 8.93563 9.61867C8.76172 9.53214 8.65124 9.52299 7.80121 9.5249C6.9603 9.5268 6.83991 9.53709 6.67689 9.621ZM20.3273 9.79663C20.4286 10.3947 20.2686 11.3168 19.9593 11.9179L19.8663 12.0984L19.2459 11.4694C18.9047 11.1235 18.6328 10.8172 18.6418 10.7888C18.6508 10.7604 18.6728 10.5669 18.6906 10.3588L18.7231 9.98036L19.431 9.80368C19.8204 9.70648 20.1745 9.625 20.218 9.62252C20.2727 9.61943 20.3063 9.673 20.3273 9.79663ZM15.0306 12.0111C15.1882 12.1224 15.3549 12.235 15.401 12.2613C15.478 12.3053 15.4668 12.3698 15.262 13.0658C15.1395 13.482 15.0307 13.831 15.0201 13.8413C14.9815 13.8789 14.2614 13.4852 13.9815 13.2735C13.56 12.9547 12.9889 12.3152 13.0614 12.2431C13.0857 12.2191 14.5797 11.8287 14.7074 11.8132C14.7274 11.8107 14.8729 11.8998 15.0306 12.0111ZM18.3539 12.6307C18.8759 13.1583 18.9035 13.1958 18.8284 13.2767C18.6969 13.4185 18.0615 13.7516 17.6826 13.8772C17.3116 14.0004 16.572 14.1314 16.5222 14.0828C16.5063 14.0674 16.6006 13.6871 16.7317 13.2379L16.9701 12.4211L17.2394 12.3143C17.3875 12.2556 17.5619 12.1713 17.6268 12.1269C17.6917 12.0825 17.7572 12.0517 17.7722 12.0584C17.7873 12.0651 18.049 12.3226 18.3539 12.6307ZM6.67689 14.1928C6.47077 14.2989 6.29799 14.5799 6.29799 14.8089C6.29799 15.161 6.66757 15.5233 7.0267 15.5233C7.4017 15.5233 7.76264 15.1729 7.76264 14.8089C7.76264 14.5726 7.58995 14.2983 7.37333 14.1905C7.13279 14.0708 6.91246 14.0715 6.67689 14.1928ZM11.766 19.3807V20.1903H10.1549H8.54378V19.3807V18.5712H10.1549H11.766V19.3807ZM21.1398 19.3807V20.1903H18.7475H16.3552V19.3807V18.5712H18.7475H21.1398V19.3807Z" fill="#53566A"/>
</svg>
